<?xml version="1.0" encoding="utf-8"?>
<!-- Generator: Adobe Illustrator 23.0.2, SVG Export Plug-In . SVG Version: 6.00 Build 0)  -->
<svg version="1.1" id="Layer_1" xmlns="http://www.w3.org/2000/svg" xmlns:xlink="http://www.w3.org/1999/xlink" x="0px" y="0px"
	 viewBox="0 0 20 20" style="enable-background:new 0 0 20 20;" xml:space="preserve">
<style type="text/css">
	.st0{fill:#AF8166;}
</style>
<g>
	<g>
		<path class="st0" d="M10,20C4.5,20,0,15.5,0,10S4.5,0,10,0s10,4.5,10,10S15.5,20,10,20z M10,0.7c-5.1,0-9.3,4.2-9.3,9.3
			s4.2,9.3,9.3,9.3s9.3-4.2,9.3-9.3S15.1,0.7,10,0.7z"/>
	</g>
	<g>
		<path class="st0" d="M4.8,7.8c0-0.5,0.4-0.9,0.9-0.9c0.5,0,0.9,0.4,0.9,0.9S6.1,8.6,5.7,8.6C5.2,8.6,4.8,8.2,4.8,7.8z"/>
	</g>
	<g>
		<path class="st0" d="M13.5,7.8c0-0.5,0.4-0.9,0.9-0.9c0.5,0,0.9,0.4,0.9,0.9s-0.4,0.9-0.9,0.9C13.9,8.6,13.5,8.2,13.5,7.8z"/>
	</g>
	<g>
		<path class="st0" d="M4.8,15.3c-1.1,0-1.9-0.9-1.9-1.9c0-0.4,0.1-0.7,0.4-1.1l1.3-2.4c0.1-0.1,0.2-0.2,0.3-0.2l0,0
			c0.1,0,0.2,0.1,0.3,0.2l1.3,2.4c0,0,0,0,0,0l0,0c0.2,0.4,0.3,0.6,0.3,1.1C6.7,14.4,5.9,15.3,4.8,15.3z M4.8,10.7l-1,1.8
			c-0.2,0.4-0.3,0.5-0.3,0.8c0,0.7,0.6,1.2,1.2,1.2S6,14,6,13.4c0-0.3,0-0.3-0.3-0.8l0,0L4.8,10.7z"/>
	</g>
	<g>
		<path class="st0" d="M13,12.2c-0.1,0-0.1,0-0.2-0.1C12,11.5,11,11.2,10,11.2c-0.9,0-1.8,0.3-2.6,0.7C7.3,12,7.1,12,7,11.8
			c-0.1-0.2-0.1-0.4,0.1-0.5C8,10.8,9,10.5,10,10.5c1.2,0,2.3,0.4,3.2,1.1c0.2,0.1,0.2,0.3,0.1,0.5C13.3,12.1,13.1,12.2,13,12.2z"/>
	</g>
</g>
</svg>
