<?xml version="1.0" encoding="utf-8"?>
<!-- Generator: Adobe Illustrator 23.0.2, SVG Export Plug-In . SVG Version: 6.00 Build 0)  -->
<svg version="1.1" id="Layer_1" xmlns="http://www.w3.org/2000/svg" xmlns:xlink="http://www.w3.org/1999/xlink" x="0px" y="0px"
	 viewBox="0 0 20 20" style="enable-background:new 0 0 20 20;" xml:space="preserve">
<style type="text/css">
	.st0{fill:#AF8166;}
</style>
<g>
	<g>
		<path class="st0" d="M4.8,7.8c0-0.5,0.4-0.9,0.9-0.9s0.9,0.4,0.9,0.9S6.1,8.6,5.6,8.6C5.2,8.6,4.8,8.2,4.8,7.8z"/>
	</g>
	<g>
		<path class="st0" d="M13.5,7.8c0-0.5,0.4-0.9,0.9-0.9c0.5,0,0.9,0.4,0.9,0.9s-0.4,0.9-0.9,0.9C13.9,8.6,13.5,8.2,13.5,7.8z"/>
	</g>
	<g>
		<path class="st0" d="M10,20C4.5,20,0,15.5,0,10S4.5,0,10,0s10,4.5,10,10S15.5,20,10,20z M10,0.7c-5.1,0-9.3,4.2-9.3,9.3
			s4.2,9.3,9.3,9.3s9.3-4.2,9.3-9.3S15.1,0.7,10,0.7z"/>
	</g>
	<g>
		<path class="st0" d="M15,13H5c-0.2,0-0.3-0.2-0.3-0.3s0.2-0.3,0.3-0.3h10c0.2,0,0.3,0.2,0.3,0.3S15.2,13,15,13z"/>
	</g>
</g>
</svg>
