<svg xmlns="http://www.w3.org/2000/svg" xmlns:xlink="http://www.w3.org/1999/xlink" width="30" height="30" viewBox="0 0 30 30">
  <defs>
    <clipPath id="clip-Cart">
      <rect width="30" height="30"/>
    </clipPath>
  </defs>
  <g id="Cart" clip-path="url(#clip-Cart)">
    <rect width="30" height="30" fill="#fff"/>
    <path id="Icon_awesome-shopping-bag" data-name="Icon awesome-shopping-bag" d="M9.8,4.455V3.564a3.564,3.564,0,0,0-7.127,0v.891H0v7.573a2.227,2.227,0,0,0,2.227,2.227h8.018a2.227,2.227,0,0,0,2.227-2.227V4.455ZM4.455,3.564a1.782,1.782,0,0,1,3.564,0v.891H4.455ZM8.909,6.9a.668.668,0,1,1,.668-.668A.668.668,0,0,1,8.909,6.9Zm-5.346,0a.668.668,0,1,1,.668-.668A.668.668,0,0,1,3.564,6.9Z" transform="translate(9.527 8)" fill="none" stroke="#3a3a3a" stroke-width="0.75"/>
  </g>
</svg>
