<svg id="Layer_1" data-name="Layer 1" xmlns="http://www.w3.org/2000/svg" viewBox="0 0 30 30"><defs><style>.cls-1{fill:none;stroke:#c1c1c1;stroke-miterlimit:10;stroke-width:0.75px;}.cls-2{fill:#c1c1c1;}</style></defs><title>cart</title><path class="cls-1" d="M19.49,22.91h-8A1.76,1.76,0,0,1,9.7,21.24L9.17,10.88a.61.61,0,0,1,.61-.64H21.17a.61.61,0,0,1,.61.64l-.53,10.36A1.76,1.76,0,0,1,19.49,22.91Z"/><path class="cls-1" d="M18.62,11.93V9.29a2.44,2.44,0,0,0-2.45-2.44h-1.4a2.44,2.44,0,0,0-2.44,2.44v2.64"/><polygon class="cls-2" points="9.17 14.32 9.86 21.89 10.65 22.91 20.07 22.81 21.18 21.64 21.6 14.32 9.17 14.32"/></svg>