<svg id="Layer_1" data-name="Layer 1" xmlns="http://www.w3.org/2000/svg" viewBox="0 0 30 30"><defs><style>.cls-1{fill:#3f3126;}.cls-2{fill:none;stroke:#3f3127;stroke-miterlimit:10;stroke-width:0.5px;}</style></defs><title>icons</title><path class="cls-1" d="M15,7.42c2.47,0,2.76,0,3.73.06a5,5,0,0,1,1.72.32,2.67,2.67,0,0,1,1.06.69,2.67,2.67,0,0,1,.69,1.06,5,5,0,0,1,.32,1.72c.05,1,.06,1.26.06,3.73s0,2.76-.06,3.73a5,5,0,0,1-.32,1.72,3.06,3.06,0,0,1-1.75,1.75,5,5,0,0,1-1.72.32c-1,.05-1.26.06-3.73.06s-2.76,0-3.73-.06a5,5,0,0,1-1.72-.32,2.67,2.67,0,0,1-1.06-.69,2.67,2.67,0,0,1-.69-1.06,5,5,0,0,1-.32-1.72c-.05-1-.06-1.26-.06-3.73s0-2.76.06-3.73A5,5,0,0,1,7.8,9.55a2.67,2.67,0,0,1,.69-1.06A2.67,2.67,0,0,1,9.55,7.8a5,5,0,0,1,1.72-.32c1-.05,1.26-.06,3.73-.06m0-1.66c-2.51,0-2.82,0-3.81.06A6.91,6.91,0,0,0,9,6.24,4.76,4.76,0,0,0,6.24,9a6.91,6.91,0,0,0-.42,2.24c-.05,1-.06,1.3-.06,3.81s0,2.82.06,3.81a6.86,6.86,0,0,0,.42,2.24A4.76,4.76,0,0,0,9,23.76a6.91,6.91,0,0,0,2.24.42c1,.05,1.3.06,3.81.06s2.82,0,3.81-.06a6.91,6.91,0,0,0,2.24-.42,4.76,4.76,0,0,0,2.71-2.71,6.86,6.86,0,0,0,.42-2.24c.05-1,.06-1.3.06-3.81s0-2.82-.06-3.81A6.91,6.91,0,0,0,23.76,9a4.76,4.76,0,0,0-2.71-2.71,6.91,6.91,0,0,0-2.24-.42c-1-.05-1.3-.06-3.81-.06"/><path class="cls-1" d="M15,10.26A4.75,4.75,0,1,0,19.75,15,4.75,4.75,0,0,0,15,10.26m0,7.82A3.08,3.08,0,1,1,18.08,15,3.08,3.08,0,0,1,15,18.08"/><path class="cls-1" d="M21,10.07A1.11,1.11,0,1,1,19.93,9,1.11,1.11,0,0,1,21,10.07"/><rect class="cls-2" x="0.8" y="0.8" width="28.4" height="28.4" rx="4.14"/><rect class="cls-2" x="0.8" y="0.8" width="28.4" height="28.4" rx="4.14"/></svg>