<svg xmlns="http://www.w3.org/2000/svg" xmlns:xlink="http://www.w3.org/1999/xlink" width="90" height="90" viewBox="0 0 90 90">
  <defs>
    <clipPath id="clip-Icons">
      <rect width="90" height="90"/>
    </clipPath>
  </defs>
  <g id="Icons" clip-path="url(#clip-Icons)">
    <rect width="90" height="90" style="fill:transparent;"/>
    <g id="Group_178" data-name="Group 178" transform="translate(-722.634 -60.551)">
      <g id="Group_177" data-name="Group 177" transform="translate(744.634 80.416)">
        <path id="Path_304" data-name="Path 304" d="M779.746,80.427a.036.036,0,0,0-.057.043c1,2.075,2.565,3.8,3.364,6a12.273,12.273,0,0,1-.035,7.714c-1.187,4.127-3.488,8.42-2.069,12.793a.3.3,0,0,0,.572-.158c-1.2-5.437,1.952-10.153,2.575-15.423A13.447,13.447,0,0,0,779.746,80.427Z" transform="translate(-756.302 -80.416)" fill="#8c745e"/>
        <path id="Path_305" data-name="Path 305" d="M779.661,81.264a.041.041,0,0,0-.071.041,19.7,19.7,0,0,1,2.195,7.261,18.248,18.248,0,0,1-1.532,7.253c-1.317,3.549-3.157,8.146-.893,11.72a.129.129,0,0,0,.235-.1,13.816,13.816,0,0,1,.04-7.66c.656-2.367,1.644-4.628,2.229-7.017A14.053,14.053,0,0,0,779.661,81.264Z" transform="translate(-755.839 -80.692)" fill="#8c745e"/>
        <path id="Path_306" data-name="Path 306" d="M787.389,100.662a2.89,2.89,0,0,0-1.863.867,3.232,3.232,0,0,0-1.272,1.772.036.036,0,0,0,.06.035c.533-.418.914-1.01,1.443-1.444s1.205-.643,1.681-1.111A.07.07,0,0,0,787.389,100.662Z" transform="translate(-757.823 -87.155)" fill="#8c745e"/>
        <path id="Path_307" data-name="Path 307" d="M793.612,97.232c-3.752-.011-8.488,2.819-10.144,6.2-.055.111.089.245.182.141a21.789,21.789,0,0,1,4.344-4.143,18.4,18.4,0,0,1,5.631-2.1A.052.052,0,0,0,793.612,97.232Z" transform="translate(-757.558 -86.014)" fill="#8c745e"/>
        <path id="Path_308" data-name="Path 308" d="M793.956,97.29a11.762,11.762,0,0,0-6.672,2.809.023.023,0,0,0,.028.036,21.281,21.281,0,0,1,6.651-2.795C793.992,97.335,793.986,97.287,793.956,97.29Z" transform="translate(-758.83 -86.033)" fill="#8c745e"/>
        <path id="Path_309" data-name="Path 309" d="M803.695,92.745c-2.318,1.073-4.73.121-7.092-.245a10.934,10.934,0,0,0-5.082.382c-2.361.767-5.267,2.938-4.732,5.77.012.063.1.054.12,0,.607-1.9,1.251-3.364,2.977-4.5A9.338,9.338,0,0,1,795.69,92.8c2.764.23,5.422,1.536,8.028-.011C803.745,92.769,803.721,92.733,803.695,92.745Z" transform="translate(-758.646 -84.393)" fill="#8c745e"/>
        <path id="Path_310" data-name="Path 310" d="M803.833,92.67c-2.446,1-4.037,3.378-5.859,5.173-3.021,2.979-6.541,3.487-10.172,1.225a.14.14,0,0,0-.169.219,7.052,7.052,0,0,0,8.468.558c2.984-1.871,4.831-5.031,7.833-6.935C804.054,92.835,803.978,92.611,803.833,92.67Z" transform="translate(-758.935 -84.492)" fill="#8c745e"/>
        <path id="Path_311" data-name="Path 311" d="M765.733,94.426a10.432,10.432,0,0,0-10.872,3.092.031.031,0,0,0,.043.044c2.936-2.437,6.646-3.82,10.455-2.646a9.693,9.693,0,0,1,6.46,7.367.086.086,0,0,0,.167-.023C771.891,98.681,769.02,95.56,765.733,94.426Z" transform="translate(-748.036 -84.92)" fill="#8c745e"/>
        <path id="Path_312" data-name="Path 312" d="M767.613,96.274a9.606,9.606,0,0,0-10.016.077.077.077,0,0,0,.078.133c3.133-1.365,6.953-1.6,9.927.3a9.929,9.929,0,0,1,3.275,3.439c.706,1.233.836,2.611,1.44,3.849a.057.057,0,0,0,.1-.014C773.04,101.1,769.938,97.633,767.613,96.274Z" transform="translate(-748.937 -85.239)" fill="#8c745e"/>
        <path id="Path_313" data-name="Path 313" d="M766.262,102.455c-3.116,4.753-9.033.059-13.2-.132a10.392,10.392,0,0,0-8.422,3.637.039.039,0,0,0,.055.055c3.924-3.237,8-3.608,12.7-1.935,2.917,1.037,7.5,2.149,9.185-1.436A.188.188,0,0,0,766.262,102.455Z" transform="translate(-744.634 -87.705)" fill="#8c745e"/>
        <path id="Path_314" data-name="Path 314" d="M767.147,90.721a8.983,8.983,0,0,0-7.676-2.857c-6.965.621-11.646,7.507-14.74,13.069-.049.088.077.2.145.113,3.295-4.061,5.754-8.907,10.624-11.371a10.3,10.3,0,0,1,7.439-.924c2.459.686,7.354,4.694,3.644,7.074a.132.132,0,0,0,.133.227C769,95.051,768.466,92.3,767.147,90.721Z" transform="translate(-744.663 -82.882)" fill="#8c745e"/>
        <path id="Path_315" data-name="Path 315" d="M789.012,117.165c-.833-1.818-3.833-1.756-5.487-1.945a63.4,63.4,0,0,0-10.164-.359.245.245,0,0,0,0,.49,72.3,72.3,0,0,1,7.632.216c1.451.128,2.9.3,4.337.537s3.154.464,3.122,2.31c-.025,1.454-3.18,2.3-4.159,2.574a28.056,28.056,0,0,1-3.564.72,70.107,70.107,0,0,1-8.425.7,68.665,68.665,0,0,1-7.52-.205c-2.428-.205-5.275-.525-7.43-1.775-2.6-1.506.883-2.964,2.062-3.4A27.883,27.883,0,0,1,762.859,116a37.666,37.666,0,0,1,7.95-.72.253.253,0,0,0,0-.506,23.344,23.344,0,0,0-7.828.542c-2.065.46-4.917,1.084-6.609,2.458-3.576,2.9,4.959,4.682,6.386,4.882a64.7,64.7,0,0,0,17.148-.137C781.993,122.246,790.851,121.183,789.012,117.165Z" transform="translate(-748.253 -91.811)" fill="#8c745e"/>
        <path id="Path_316" data-name="Path 316" d="M781.765,114.9l-.079.087a.013.013,0,0,0,.018.019l.086-.079C781.807,114.912,781.78,114.886,781.765,114.9Z" transform="translate(-756.967 -91.895)" fill="#8c745e"/>
        <path id="Path_317" data-name="Path 317" d="M786.808,115.058a8.356,8.356,0,0,0-2.466-.259,21.536,21.536,0,0,0-2.845-.035c-.247.021-.351.429-.063.471a20.8,20.8,0,0,0,2.705.14,8.953,8.953,0,0,0,2.669-.112A.107.107,0,0,0,786.808,115.058Z" transform="translate(-756.827 -91.838)" fill="#8c745e"/>
        <path id="Path_318" data-name="Path 318" d="M784.637,120.225c-1-.1-1.923-.514-2.917-.571a9.578,9.578,0,0,0-2.717.429c-1.056.247-2.852.142-3.359,1.3a.036.036,0,0,0,.057.044c.929-.874,3.263-1.075,4.523-1.288,1.575-.266,2.959.672,4.44.288A.1.1,0,0,0,784.637,120.225Z" transform="translate(-754.956 -93.476)" fill="#8c745e"/>
        <path id="Path_319" data-name="Path 319" d="M771.493,117.89a6.214,6.214,0,0,0-3.466-.069,10.893,10.893,0,0,1-1.234.449c-.5.069-.946-.21-1.408-.214a3.344,3.344,0,0,0-1.261.286c-1.674.581-3.3-.011-5,.262a5.105,5.105,0,0,0-2.894,1.6.119.119,0,0,0,.144.186c1.534-.763,2.6-1.388,4.372-1.322a9.382,9.382,0,0,0,3.011-.131,24.581,24.581,0,0,1,3.151-.233c.5-.083.983-.39,1.491-.5a6.8,6.8,0,0,1,2.973.1A.22.22,0,0,0,771.493,117.89Z" transform="translate(-748.484 -92.797)" fill="#8c745e"/>
        <path id="Path_320" data-name="Path 320" d="M796.628,120.573c-1.172-1.8-3.7-1.949-5.643-2.15-1.632-.168-3.267-.337-4.9-.486-1.48-.135-2.961.229-4.407.073-.171-.018-.206.262-.041.3a11.17,11.17,0,0,0,2.71-.035,31.845,31.845,0,0,1,4.025.4c2.713.322,5.825.237,8,2.1C796.5,120.888,796.737,120.74,796.628,120.573Z" transform="translate(-756.916 -92.896)" fill="#8c745e"/>
        <path id="Path_321" data-name="Path 321" d="M756.278,122.956c-.068-.764.2-1.724-.221-2.385a.034.034,0,0,0-.053-.007c-.719.6-.518,2-.418,2.835a5.449,5.449,0,0,0,1.163,3.085c.121.132.294-.012.272-.158C756.846,125.183,756.382,124.123,756.278,122.956Z" transform="translate(-748.246 -93.778)" fill="#8c745e"/>
        <path id="Path_322" data-name="Path 322" d="M805.271,118.744a.13.13,0,0,0-.215.057,11.991,11.991,0,0,0,.129,2.539c0,.965-.309,1.919-.245,2.874.005.079.115.149.176.073C806.07,123.094,806.317,119.933,805.271,118.744Z" transform="translate(-764.707 -93.163)" fill="#8c745e"/>
        <path id="Path_323" data-name="Path 323" d="M788.93,126.453c-4.191,3.093-10.16,3.057-15.149,3.352a59.9,59.9,0,0,1-8.145,0c-2.828-.218-6.041-.532-8.491-2.066-.189-.119-.354.137-.226.292,1.56,1.863,4.925,2.055,7.165,2.319a53.541,53.541,0,0,0,9.381.154c5.245-.306,11.343-.322,15.728-3.6C789.463,126.707,789.2,126.251,788.93,126.453Z" transform="translate(-748.709 -95.725)" fill="#8c745e"/>
        <path id="Path_324" data-name="Path 324" d="M805.44,123.661a.085.085,0,0,0-.133-.017,1.749,1.749,0,0,0-.312.817,9.241,9.241,0,0,1-.3,1.1c-.112.335.393.457.519.143C805.452,125.12,805.8,124.256,805.44,123.661Z" transform="translate(-764.624 -94.798)" fill="#8c745e"/>
        <path id="Path_325" data-name="Path 325" d="M766.149,146.415a16.778,16.778,0,0,1-1.724-3.07c-.547-1.47-1.048-2.961-1.561-4.444-.962-2.781-1.77-5.708-2.981-8.391-.147-.325-.644-.09-.561.236.876,3.456,2.364,6.816,3.519,10.19.592,1.728,1.184,4.943,3.123,5.72C766.1,146.712,766.22,146.529,766.149,146.415Z" transform="translate(-749.52 -97.041)" fill="#8c745e"/>
        <path id="Path_326" data-name="Path 326" d="M784.644,154.061a25.721,25.721,0,0,1-7.661,1.048c-2.731-.007-5.836-.1-8.3-1.372-.224-.115-.5.19-.284.369,2.087,1.729,5.7,1.675,8.273,1.712s5.991.171,8.061-1.611A.088.088,0,0,0,784.644,154.061Z" transform="translate(-752.518 -104.816)" fill="#8c745e"/>
        <path id="Path_327" data-name="Path 327" d="M797.935,128.264c-1.314,2.985-2.173,6.2-3.191,9.3-.963,2.927-1.486,7.247-4.532,8.655-.108.05-.047.209.057.211,2.709.076,3.5-4.011,4.144-5.923,1.34-3.977,3-7.974,3.951-12.063C798.421,128.2,798.046,128.01,797.935,128.264Z" transform="translate(-759.788 -96.304)" fill="#8c745e"/>
      </g>
      <path id="Path_328" data-name="Path 328" d="M762.111,95.449a4,4,0,0,0-2.259,2.188c-.009.023.027.045.043.025a8.423,8.423,0,0,1,2.252-2.128C762.19,95.508,762.162,95.429,762.111,95.449Z" transform="translate(-5.066 -5.003)" fill="#8c745e"/>
      <path id="Path_329" data-name="Path 329" d="M765.955,95.446c-.694.012-1.424.758-1.869,1.237a5.579,5.579,0,0,0-1.212,2.073.026.026,0,0,0,.047.02,7,7,0,0,1,1.366-1.893,6.292,6.292,0,0,1,.9-.714,3.557,3.557,0,0,0,.832-.579A.086.086,0,0,0,765.955,95.446Z" transform="translate(-6.071 -5.003)" fill="#8c745e"/>
      <path id="Path_330" data-name="Path 330" d="M769.927,96.707a5.3,5.3,0,0,0-3.074,3.2.034.034,0,0,0,.061.026,9.334,9.334,0,0,1,1.31-1.767A11.2,11.2,0,0,1,770,96.871C770.077,96.817,770.03,96.674,769.927,96.707Z" transform="translate(-7.396 -5.421)" fill="#8c745e"/>
      <path id="Path_331" data-name="Path 331" d="M773.876,98.68a3.511,3.511,0,0,0-1.147,3.037.044.044,0,0,0,.084,0c.129-.493.185-1,.362-1.477a8.033,8.033,0,0,1,.832-1.46C774.059,98.7,773.945,98.624,773.876,98.68Z" transform="translate(-9.339 -6.073)" fill="#8c745e"/>
      <path id="Path_332" data-name="Path 332" d="M777.474,95.739A2.511,2.511,0,0,0,775.582,97a.036.036,0,0,0,.057.043,10.222,10.222,0,0,1,.917-.717c.3-.191.634-.318.942-.5A.049.049,0,0,0,777.474,95.739Z" transform="translate(-10.301 -5.101)" fill="#8c745e"/>
      <path id="Path_333" data-name="Path 333" d="M773.608,92.367a3.185,3.185,0,0,0-.7,1.1,1.778,1.778,0,0,0-.245,1.016.016.016,0,0,0,.026.007,3.8,3.8,0,0,0,.486-1.033c.163-.355.376-.682.512-1.049C773.7,92.366,773.639,92.338,773.608,92.367Z" transform="translate(-9.325 -3.975)" fill="#8c745e"/>
      <path id="Path_334" data-name="Path 334" d="M766.716,91.839a2.439,2.439,0,0,0-1.29-.853c-.051-.011-.1.056-.055.1a9.865,9.865,0,0,1,1.088.926c.319.354.488.829.8,1.167a.05.05,0,0,0,.084-.035A2.137,2.137,0,0,0,766.716,91.839Z" transform="translate(-6.897 -3.518)" fill="#8c745e"/>
      <path id="Path_335" data-name="Path 335" d="M762.105,93.9a3.8,3.8,0,0,0-2.81-.8c-.049.007-.045.084,0,.095.469.109.948.149,1.412.284s.885.372,1.344.514A.057.057,0,0,0,762.105,93.9Z" transform="translate(-4.869 -4.212)" fill="#8c745e"/>
      <path id="Path_336" data-name="Path 336" d="M757.889,96a5.06,5.06,0,0,0-2.472.332.026.026,0,0,0,.014.05c.81-.158,1.628-.217,2.448-.3C757.92,96.073,757.939,96,757.889,96Z" transform="translate(-3.584 -5.174)" fill="#8c745e"/>
      <path id="Path_337" data-name="Path 337" d="M758.879,96.286a3.308,3.308,0,0,0-1.442,1.386c-.007.015.013.033.025.019a6.859,6.859,0,0,1,1.457-1.338A.039.039,0,0,0,758.879,96.286Z" transform="translate(-4.262 -5.281)" fill="#8c745e"/>
      <path id="Path_338" data-name="Path 338" d="M748.4,102.57a6.845,6.845,0,0,0-1.468,1.221,3.588,3.588,0,0,0-1,1.422c0,.01.009.022.019.015a9.812,9.812,0,0,0,1.1-1.324,15.848,15.848,0,0,1,1.395-1.281C748.467,102.6,748.429,102.55,748.4,102.57Z" transform="translate(-0.43 -7.373)" fill="#8c745e"/>
      <path id="Path_339" data-name="Path 339" d="M771.217,90.41a3.873,3.873,0,0,0-2.777-.795.036.036,0,0,0,0,.072,8.119,8.119,0,0,1,2.722.817C771.215,90.527,771.257,90.446,771.217,90.41Z" transform="translate(-7.913 -3.061)" fill="#8c745e"/>
      <path id="Path_340" data-name="Path 340" d="M790.325,100.693c-.037-.27.021-.535-.007-.8-.008-.075-.117-.126-.159-.043a1.43,1.43,0,0,0,.162,1.608c.035.039.117.011.11-.045C790.4,101.17,790.359,100.933,790.325,100.693Z" transform="translate(-15.095 -6.455)" fill="#8c745e"/>
      <path id="Path_341" data-name="Path 341" d="M789.755,99.544a3.047,3.047,0,0,0-1.122-.186.046.046,0,0,0-.013.091,3.062,3.062,0,0,0,1.125.171A.039.039,0,0,0,789.755,99.544Z" transform="translate(-14.632 -6.305)" fill="#8c745e"/>
      <path id="Path_342" data-name="Path 342" d="M791.207,97.891a2.7,2.7,0,0,1-.511-1.948c.005-.039-.054-.05-.072-.019a1.632,1.632,0,0,0,.452,2.1A.1.1,0,0,0,791.207,97.891Z" transform="translate(-15.243 -5.157)" fill="#8c745e"/>
      <path id="Path_343" data-name="Path 343" d="M794.6,100.863c-.461-.323-.961-.584-1.432-.893s-.894-.7-1.382-.96a.1.1,0,0,0-.122.158,5.294,5.294,0,0,0,1.348,1.069,6.015,6.015,0,0,0,1.538.744A.064.064,0,0,0,794.6,100.863Z" transform="translate(-15.647 -6.185)" fill="#8c745e"/>
      <path id="Path_344" data-name="Path 344" d="M797.678,99.443a9.376,9.376,0,0,0-4.021-.861.033.033,0,0,0-.009.065,30.694,30.694,0,0,0,3.987.9C797.692,99.556,797.741,99.472,797.678,99.443Z" transform="translate(-16.308 -6.046)" fill="#8c745e"/>
      <path id="Path_345" data-name="Path 345" d="M800.566,97.843c-1.422-.064-2.833-.139-4.248-.3-.035,0-.041.052-.008.061a11.289,11.289,0,0,0,4.256.308A.036.036,0,0,0,800.566,97.843Z" transform="translate(-17.196 -5.703)" fill="#8c745e"/>
      <path id="Path_346" data-name="Path 346" d="M801.493,95.573c-1.81.613-3.775.822-5.552,1.492a.008.008,0,0,0,0,.015,14.444,14.444,0,0,0,5.555-1.488C801.51,95.587,801.506,95.568,801.493,95.573Z" transform="translate(-17.078 -5.045)" fill="#8c745e"/>
      <path id="Path_347" data-name="Path 347" d="M793.6,96.07a1.855,1.855,0,0,0-.453,1.572c0,.006.012.009.015,0,.1-.233.149-.48.227-.719.088-.271.225-.528.3-.8A.055.055,0,0,0,793.6,96.07Z" transform="translate(-16.139 -5.206)" fill="#8c745e"/>
      <path id="Path_348" data-name="Path 348" d="M798.9,94.891a9.927,9.927,0,0,0-1.025.789,5.116,5.116,0,0,0-.912.893c-.016.023.015.045.035.035a5.019,5.019,0,0,0,.981-.718,9.615,9.615,0,0,0,.983-.918C799,94.93,798.955,94.857,798.9,94.891Z" transform="translate(-17.42 -4.816)" fill="#8c745e"/>
      <path id="Path_349" data-name="Path 349" d="M809.355,93.581c-.6.238-1.212.45-1.835.629a9,9,0,0,0-1.653.46c-.047.025-.019.087.025.091a6.776,6.776,0,0,0,3.482-1.138C809.4,93.611,809.38,93.571,809.355,93.581Z" transform="translate(-20.376 -4.382)" fill="#8c745e"/>
      <path id="Path_350" data-name="Path 350" d="M798.349,100.274a9.079,9.079,0,0,1-2.935,1.535,21.122,21.122,0,0,1-2.922.429v.005c2.027.484,4.38-.647,5.872-1.949C798.375,100.285,798.36,100.265,798.349,100.274Z" transform="translate(-15.932 -6.61)" fill="#8c745e"/>
      <path id="Path_351" data-name="Path 351" d="M799.448,93.641a8.056,8.056,0,0,0-4.55.738c-.043.023-.012.085.032.075.7-.148,1.375-.368,2.077-.5a23.562,23.562,0,0,1,2.428-.215C799.487,93.738,799.509,93.649,799.448,93.641Z" transform="translate(-16.726 -4.38)" fill="#8c745e"/>
      <path id="Path_352" data-name="Path 352" d="M766.651,102.912c-2,.161-3.811-.686-5.714-1.158a14.72,14.72,0,0,0-4.906-.5.046.046,0,0,0,0,.093,33.593,33.593,0,0,1,6.161,1.172,8.328,8.328,0,0,0,4.464.429C766.675,102.944,766.671,102.91,766.651,102.912Z" transform="translate(-3.779 -6.921)" fill="#8c745e"/>
      <path id="Path_353" data-name="Path 353" d="M768.121,121.651a2.37,2.37,0,0,0-1.155.232,3.626,3.626,0,0,1-1.668.4,4.557,4.557,0,0,1-1.472-.358c-.8-.272-1.6-.447-2.192.274-.023.029.005.073.04.053,1.418-.821,2.483.439,3.884.331a24.575,24.575,0,0,0,2.578-.829C768.2,121.745,768.18,121.654,768.121,121.651Z" transform="translate(-5.656 -13.725)" fill="#8c745e"/>
      <path id="Path_354" data-name="Path 354" d="M784.166,123.337a1.31,1.31,0,0,0-1.344-.453,1.615,1.615,0,0,0-.72.309c-.149.111-.257.286-.41.388a1.752,1.752,0,0,1-1.119.265.05.05,0,0,0-.025.091,1.211,1.211,0,0,0,1.342-.1,3.724,3.724,0,0,1,.775-.5,2.143,2.143,0,0,1,1.4.141A.094.094,0,0,0,784.166,123.337Z" transform="translate(-11.948 -14.128)" fill="#8c745e"/>
      <path id="Path_355" data-name="Path 355" d="M794.323,120.075a8.441,8.441,0,0,0-1.511.3,4.722,4.722,0,0,1-2.651-.522c-.032-.011-.046.035-.021.052a3.718,3.718,0,0,0,2.208.754c1.123-.037,2.634-.871,3.285.536.047.1.177.021.165-.07A1.317,1.317,0,0,0,794.323,120.075Z" transform="translate(-15.145 -13.128)" fill="#8c745e"/>
      <path id="Path_356" data-name="Path 356" d="M775.424,124.166a1.845,1.845,0,0,1-1.534.156,4.609,4.609,0,0,0-.743-.351,1.172,1.172,0,0,0-1.177.314.06.06,0,0,0,.058.1,1.983,1.983,0,0,1,1.376-.021,3.356,3.356,0,0,0,.753.334,1.679,1.679,0,0,0,1.306-.468C775.491,124.207,775.458,124.152,775.424,124.166Z" transform="translate(-9.095 -14.486)" fill="#8c745e"/>
      <path id="Path_357" data-name="Path 357" d="M791.877,123.319c-.355-.337-.775-.206-1.161.033a4,4,0,0,1-2.655.747c-.044,0-.051.065-.01.076a2.864,2.864,0,0,0,1.676-.021c.743-.235,1.289-.91,2.123-.788C791.875,123.37,791.9,123.341,791.877,123.319Z" transform="translate(-14.444 -14.214)" fill="#8c745e"/>
      <path id="Path_358" data-name="Path 358" d="M802.438,124.665c-.949.278-1.67,1.233-2.543,1.725a12.113,12.113,0,0,1-3.6,1.245.026.026,0,0,0,.007.051,9.051,9.051,0,0,0,3.586-.918c.879-.424,2.27-1.073,2.571-2.078A.021.021,0,0,0,802.438,124.665Z" transform="translate(-17.193 -14.73)" fill="#8c745e"/>
      <path id="Path_359" data-name="Path 359" d="M802.405,123.478a10.937,10.937,0,0,0-2.366,1.448,9.369,9.369,0,0,1-3.716,1.215s0,.005,0,0c1.789-.183,5.292-.734,6.118-2.622A.032.032,0,0,0,802.405,123.478Z" transform="translate(-17.206 -14.335)" fill="#8c745e"/>
      <path id="Path_360" data-name="Path 360" d="M803.649,122.159a16.944,16.944,0,0,1-3.556,2.187c-.012,0-.007.024.006.02a7.209,7.209,0,0,0,3.734-1.967C803.937,122.274,803.8,122.058,803.649,122.159Z" transform="translate(-18.46 -13.887)" fill="#8c745e"/>
      <path id="Path_361" data-name="Path 361" d="M805.023,123.181a.237.237,0,0,0-.067-.283c.011-.031.022-.063.032-.095a.213.213,0,0,0-.079-.261.186.186,0,0,0-.143-.207c.013-.1.028-.2.037-.294a.16.16,0,0,0-.01-.074c.009-.039.021-.076.029-.115.018-.1-.12-.224-.2-.118a5.076,5.076,0,0,0-.672,1.32c-.054.139.071.235.192.234-.023.111-.047.222-.071.333-.089.241-.177.481-.262.723a.19.19,0,0,0,.006.137c-.012.034-.025.067-.037.1a.22.22,0,0,0,0,.155c-.026.068-.055.135-.081.2a.227.227,0,0,0-.015.1c-.017.045-.036.089-.053.134-.117.3.363.426.483.133.008-.021.016-.041.025-.062a.224.224,0,0,0,.25-.133,12.971,12.971,0,0,0,.7-1.69A.218.218,0,0,0,805.023,123.181Z" transform="translate(-19.634 -13.741)" fill="#8c745e"/>
      <path id="Path_362" data-name="Path 362" d="M759.549,125.336a14.051,14.051,0,0,1-1.957-.951,2.9,2.9,0,0,1-1.463-1.635.162.162,0,0,0-.309,0c-.568,1.591,2.728,2.4,3.721,2.616A.016.016,0,0,0,759.549,125.336Z" transform="translate(-3.702 -14.055)" fill="#8c745e"/>
      <path id="Path_363" data-name="Path 363" d="M759.962,126.922a5.171,5.171,0,0,1-2.1-.75c-.523-.324-.911-.808-1.439-1.112a.026.026,0,0,0-.038.029c.362,1.414,2.328,1.9,3.574,1.865A.016.016,0,0,0,759.962,126.922Z" transform="translate(-3.912 -14.86)" fill="#8c745e"/>
      <path id="Path_364" data-name="Path 364" d="M761.657,128.805c-.9-.247-1.782-.56-2.649-.894a6.908,6.908,0,0,1-2.214-1.412c-.008-.007-.025-.006-.027.007-.266,1.722,3.849,2.2,4.878,2.343C761.673,128.854,761.687,128.813,761.657,128.805Z" transform="translate(-4.035 -15.34)" fill="#8c745e"/>
      <path id="Path_365" data-name="Path 365" d="M798.532,130.09a6.069,6.069,0,0,0-2.314,1.019,14.288,14.288,0,0,1-3.392,1.217c-.017,0-.013.033,0,.03a15.971,15.971,0,0,0,3.392-.744c.8-.294,1.957-.681,2.324-1.5A.017.017,0,0,0,798.532,130.09Z" transform="translate(-16.039 -16.536)" fill="#8c745e"/>
      <path id="Path_366" data-name="Path 366" d="M797.262,132.006c-1.049.478-1.922,1.277-2.995,1.751a13.359,13.359,0,0,1-3.755,1.008.039.039,0,0,0,0,.077c2.253.073,5.568-.668,6.866-2.72C797.428,132.044,797.333,131.973,797.262,132.006Z" transform="translate(-15.26 -17.171)" fill="#8c745e"/>
      <path id="Path_367" data-name="Path 367" d="M796.484,134.675c-1.017.157-1.993,1.136-2.91,1.616a27.607,27.607,0,0,1-3.873,1.524c-.067.023-.062.139.018.131a11.978,11.978,0,0,0,3.9-1.143c.971-.455,2.458-1.063,2.886-2.109C796.508,134.682,796.494,134.674,796.484,134.675Z" transform="translate(-14.987 -18.062)" fill="#8c745e"/>
      <path id="Path_368" data-name="Path 368" d="M796,137.726c-.938.382-1.7,1.141-2.62,1.592a15.793,15.793,0,0,1-3.6,1.178.057.057,0,0,0,.015.111c2.029.055,5.275-.8,6.32-2.729C796.157,137.806,796.091,137.69,796,137.726Z" transform="translate(-15.017 -19.076)" fill="#8c745e"/>
      <path id="Path_369" data-name="Path 369" d="M794.434,140.995c-1.085.636-1.8,1.551-3.056,1.985a24.616,24.616,0,0,1-3.689.722c-.05.009-.036.084.012.086,1.938.066,6.316-.225,6.824-2.723A.063.063,0,0,0,794.434,140.995Z" transform="translate(-14.322 -20.163)" fill="#8c745e"/>
      <path id="Path_370" data-name="Path 370" d="M793.933,144.431c-.915.395-1.625,1.182-2.544,1.621a10.172,10.172,0,0,1-3.6.88.039.039,0,0,0,0,.077c1.923.216,5.337-.52,6.217-2.5A.057.057,0,0,0,793.933,144.431Z" transform="translate(-14.355 -21.308)" fill="#8c745e"/>
      <path id="Path_371" data-name="Path 371" d="M791.8,147.409c-1.261.451-2.284,1.337-3.616,1.722a26.98,26.98,0,0,1-5.015.666.039.039,0,0,0,0,.077c2.414.138,7.4.266,8.686-2.394C791.87,147.446,791.841,147.393,791.8,147.409Z" transform="translate(-12.815 -22.301)" fill="#8c745e"/>
      <path id="Path_372" data-name="Path 372" d="M790.6,150.359c-1.232.46-2.251,1.3-3.529,1.722a16.342,16.342,0,0,1-4.365.632c-.085,0-.114.138-.021.157,2.448.494,6.456-.249,7.974-2.436A.052.052,0,0,0,790.6,150.359Z" transform="translate(-12.647 -23.283)" fill="#8c745e"/>
      <path id="Path_373" data-name="Path 373" d="M771.192,153.486a15.809,15.809,0,0,1-2.9-1.054.259.259,0,0,0-.35.092c.018-.037-.025.037-.027.053l-.009.076a.253.253,0,0,0,.127.221,4.838,4.838,0,0,0,3.159.766C771.274,153.63,771.261,153.507,771.192,153.486Z" transform="translate(-7.747 -23.963)" fill="#8c745e"/>
      <path id="Path_374" data-name="Path 374" d="M769.118,150.754c-.486-.144-.977-.284-1.454-.457-.3-.107-.686-.4-1-.259a.032.032,0,0,0-.014.035c.051.369.593.5.9.606a3.586,3.586,0,0,0,1.543.2A.063.063,0,0,0,769.118,150.754Z" transform="translate(-7.33 -23.164)" fill="#8c745e"/>
      <path id="Path_375" data-name="Path 375" d="M767.448,148.277a2.514,2.514,0,0,0-.746-.348c-.246-.094-.507-.307-.777-.249a.141.141,0,0,0-.1.171c.084.276.415.373.66.475a1.407,1.407,0,0,0,.91.141A.114.114,0,0,0,767.448,148.277Z" transform="translate(-7.053 -22.388)" fill="#8c745e"/>
      <path id="Path_376" data-name="Path 376" d="M762.474,133.393a6.5,6.5,0,0,1-1.2-.329c-.365-.167-.625-.491-.977-.654a.162.162,0,0,0-.235.181,1.759,1.759,0,0,0,1.007.881,1.911,1.911,0,0,0,1.4.12A.1.1,0,0,0,762.474,133.393Z" transform="translate(-5.133 -17.303)" fill="#8c745e"/>
      <path id="Path_377" data-name="Path 377" d="M764,136.247c-.531-.178-1.061-.295-1.606-.42-.387-.089-.732-.362-1.113-.413a.063.063,0,0,0-.078.06c-.069.944,2.236.883,2.78.9A.062.062,0,0,0,764,136.247Z" transform="translate(-5.516 -18.308)" fill="#8c745e"/>
      <path id="Path_378" data-name="Path 378" d="M765.126,139.687c-.592-.1-1.192-.17-1.776-.312a6.66,6.66,0,0,0-1.549-.4.037.037,0,0,0-.025.062c.663.848,2.373.973,3.351.777A.067.067,0,0,0,765.126,139.687Z" transform="translate(-5.703 -19.495)" fill="#8c745e"/>
      <path id="Path_379" data-name="Path 379" d="M765.8,142.62a6.524,6.524,0,0,1-1.321-.229,5.255,5.255,0,0,0-1.01-.343.044.044,0,0,0-.037.066c.422.685,1.686.761,2.384.622C765.882,142.723,765.859,142.626,765.8,142.62Z" transform="translate(-6.254 -20.517)" fill="#8c745e"/>
      <path id="Path_380" data-name="Path 380" d="M766.019,145.242c-.277-.039-.553-.1-.829-.148a2.579,2.579,0,0,0-.755-.1c-.047,0-.084.063-.042.1a2.085,2.085,0,0,0,1.626.254A.055.055,0,0,0,766.019,145.242Z" transform="translate(-6.572 -21.495)" fill="#8c745e"/>
    </g>
  </g>
</svg>
