<svg xmlns="http://www.w3.org/2000/svg" xmlns:xlink="http://www.w3.org/1999/xlink" width="90" height="90" viewBox="0 0 90 90">
  <defs>
    <clipPath id="clip-Icons5">
      <rect width="90" height="90"/>
    </clipPath>
  </defs>
  <g id="Icons5" clip-path="url(#clip-Icons5)">
    <rect width="90" height="90" style="fill:transparent;"/>
    <g id="Group_591" data-name="Group 591" transform="translate(-1126.112 -199.624)">
      <g id="Group_587" data-name="Group 587" transform="translate(1151.112 219.49)">
        <g id="Group_586" data-name="Group 586" transform="translate(7.01)">
          <path id="Path_1004" data-name="Path 1004" d="M1187.958,242.285c-.216-.864-.51-1.708-.8-2.551s-.542-1.681-.757-2.542c-.095-.379-.195-.758-.319-1.129-.043-.128-.082-.257-.121-.386.034.039.1,0,.091-.052-.088-.437-.235-.86-.357-1.288s-.22-.879-.325-1.321a17.248,17.248,0,0,0-.87-2.492c-.341-.835-.7-1.661-1.008-2.51-.145-.4-.155-.844-.281-1.252a11.509,11.509,0,0,1-.267-1.311c-.086-.464-.187-.924-.281-1.386a10.063,10.063,0,0,0-.377-1.323c-.152-.435-.3-.87-.453-1.3a3.748,3.748,0,0,0-.223-.545c-.051-.095-.113-.185-.16-.281a.2.2,0,0,0,.038-.331c.008.01,0,.012-.01-.007a.181.181,0,0,0-.058-.029.19.19,0,0,1,.057.027.1.1,0,0,1-.009-.018.865.865,0,0,1-.033-.117c-.01-.039-.016-.078-.022-.119,0-.007-.015-.115-.007-.058-.012-.1-.08-.207-.195-.195-.292.03-.585.094-.873.148a3.308,3.308,0,0,0-.9.263c-.136.068-.27.142-.41.2s-.3.094-.44.155c-.073.031-.142.068-.217.094a1.379,1.379,0,0,1-.269.04,4.321,4.321,0,0,0-.466.061.166.166,0,0,0-.176.162v.014a.145.145,0,0,0,.018.077,14.337,14.337,0,0,0-.009,2.511c.026.44.04.879.086,1.317s.15.884.178,1.335.018.892.084,1.337c.044.3.114.593.173.888a1.553,1.553,0,0,0-.1.976c.028.172.1.331.112.507.013.208-.023.42-.015.629a4.371,4.371,0,0,0,.086.577,3.706,3.706,0,0,1,.053.616,3.394,3.394,0,0,0,.012.591c.042.221.081.444.128.664.04.183.088.362.132.543s.054.367.081.554c.057.4.261.754.31,1.156.023.181.039.362.064.542.029.205.129.4.152.6.02.175.005.357.016.534a1.817,1.817,0,0,0,.021.216.225.225,0,0,1,0,.025c-.066,0-.132,0-.2,0-.245-.015-.489-.038-.733-.061-.188-.019-.376-.037-.564-.053a.086.086,0,0,0-.038-.1,3.392,3.392,0,0,0-.988-.16c-.343-.037-.675-.156-1.018-.2-.151-.019-.3-.005-.455-.01a3.242,3.242,0,0,1-.563-.1,2.546,2.546,0,0,0-.5-.059,2.483,2.483,0,0,1-.6-.071,2.1,2.1,0,0,0-.479-.083,2.843,2.843,0,0,0-.531.057,5.649,5.649,0,0,1-1.125.084,11.04,11.04,0,0,1-1.163-.135c-.167-.024-.334-.055-.5-.069a2.24,2.24,0,0,0-.241-.015l0-.007a.561.561,0,0,0-.142-.158.946.946,0,0,1-.165-.186,2.174,2.174,0,0,1-.261-.577,3.933,3.933,0,0,1-.2-1.237c0-.211-.037-.42-.049-.631s-.022-.436-.041-.654c-.018-.2-.033-.385-.067-.581a5.478,5.478,0,0,1-.058-.694,8.348,8.348,0,0,0-.163-1.242,5.2,5.2,0,0,1-.116-.671,2.441,2.441,0,0,0-.049-.3,1.7,1.7,0,0,0-.059-.327,5.185,5.185,0,0,1-.206-1.233c-.025-.209-.054-.417-.061-.628-.008-.238,0-.476-.011-.714-.015-.3-.094-.592-.119-.892-.011-.138-.014-.27-.038-.407-.028-.159-.064-.316-.1-.474-.03-.139-.057-.28-.082-.42a2.966,2.966,0,0,1-.014-.448.764.764,0,0,0-.006-.18c-.021-.076-.079-.146-.106-.222-.016-.046-.016-.1-.031-.143-.006-.018-.012-.034-.019-.051-.009-.133-.021-.266-.028-.4-.026-.424-.1-.844-.159-1.266a2.025,2.025,0,0,0-.239-1.007,1.458,1.458,0,0,0-.786-.419,1.52,1.52,0,0,0-.291-.043c-.13-.016-.244.019-.36-.065a1.7,1.7,0,0,0-.606-.177c-.232-.055-.463-.115-.693-.176a.1.1,0,0,0-.108.154.1.1,0,0,0-.062.047,1.244,1.244,0,0,0-.085.38c-.024.139-.055.278-.079.417a3.942,3.942,0,0,0-.074.866,5.689,5.689,0,0,1-.093,1.532.055.055,0,0,0,.081.062.936.936,0,0,0,.3-.6,2.768,2.768,0,0,0,.074-.85,4.493,4.493,0,0,1,.04-.92c.023-.155.043-.309.058-.466a.871.871,0,0,0-.023-.386,3.3,3.3,0,0,0,1.076.3c.1.012.238-.058.325-.018a1.836,1.836,0,0,0,.259.1,2.294,2.294,0,0,1,.5.2.818.818,0,0,1,.374.819,8.343,8.343,0,0,0,.134,1.216,7.145,7.145,0,0,0,.3,1.3,3.034,3.034,0,0,1,.119.679c.021.222.068.442.088.665a6.112,6.112,0,0,1-.04,1.34c-.059.439-.139.873-.17,1.316a24.117,24.117,0,0,0,.349,5.613,12.538,12.538,0,0,1,.121,1.332,8.326,8.326,0,0,0,.107,1.184,1.841,1.841,0,0,0,1.528,1.428,3.04,3.04,0,0,0,.667.043.084.084,0,0,0,.07-.046c.406.006.811.042,1.218.041.448,0,.9-.017,1.343-.028.92-.022,1.841.014,2.76.055s1.848.066,2.769.158c.469.047.939.09,1.41.1a1.717,1.717,0,0,0,.879-.084c.608-.309.192-1.2-.1-1.573a.1.1,0,0,0-.135-.024,1.8,1.8,0,0,0-.079-.3,6.78,6.78,0,0,1-.17-.661c-.04-.168-.106-.323-.154-.488a.928.928,0,0,1-.011-.277,2.089,2.089,0,0,0-.021-.327,4.946,4.946,0,0,0-.162-.6c-.062-.223-.119-.447-.181-.67-.121-.43-.225-.858-.314-1.3-.178-.882-.446-1.742-.609-2.625-.085-.456-.2-.906-.249-1.369s0-.905-.021-1.357c-.016-.41-.1-.81-.135-1.218-.038-.423-.051-.848-.082-1.272-.057-.77-.045-1.547-.127-2.316.139-.016.278-.033.417-.046a1.355,1.355,0,0,0,.494-.108c.135-.068.257-.174.391-.249l.4-.221a2.217,2.217,0,0,1,.93-.3c.175-.016.35-.01.526-.03a.6.6,0,0,1,.175.008.747.747,0,0,0,.14.4,1.377,1.377,0,0,0,.1.331,5.085,5.085,0,0,1,.2.517c.133.424.28.846.423,1.268s.32.82.468,1.234a8.8,8.8,0,0,1,.358,1.308c.085.441.1.894.175,1.338.035.212.083.419.1.634s.048.442.088.66a8.288,8.288,0,0,0,.38,1.27c.151.424.337.837.5,1.256s.368.864.512,1.307.321.883.478,1.326c.225.637.41,1.294.657,1.924a.056.056,0,0,0-.037.043,3.249,3.249,0,0,0,.186,1.272c.117.43.215.864.318,1.3.2.864.471,1.7.755,2.541a13.641,13.641,0,0,1,1.074,5.2c-.054.78-.189,1.55-.181,2.334,0,.078.123.1.139.019a18.119,18.119,0,0,0,.436-2.678A8.908,8.908,0,0,0,1187.958,242.285Zm-13.992-5.466c-.909-.023-1.81.008-2.718.043a5.673,5.673,0,0,0-1.528.166.087.087,0,0,0-.019.009c-.277-.112-.562-.2-.835-.322a1.428,1.428,0,0,1-.77-.725,3.032,3.032,0,0,1-.167-1.084c-.029-.44-.033-.882-.069-1.322-.038-.464-.148-.926-.205-1.388s-.1-.937-.147-1.405a25.684,25.684,0,0,1-.09-2.827c.007-.445.055-.883.084-1.326,0-.032,0-.063.005-.094,0,.023,0,.045,0,.067a11.594,11.594,0,0,0,.1,1.32c.024.2.041.407.062.611a1.756,1.756,0,0,0,.033.262,1.211,1.211,0,0,1,.071.31,4.971,4.971,0,0,0,.064.625c.034.239.081.477.121.716a11.688,11.688,0,0,1,.11,1.249,5.092,5.092,0,0,0,.083.62,6.411,6.411,0,0,1,.054.651,11.766,11.766,0,0,0,.169,1.8,4.666,4.666,0,0,0,.3.834,1.274,1.274,0,0,0,.213.34c.072.08.183.142.257.222l0,0a.047.047,0,0,0,0,.08,1.488,1.488,0,0,0,.429.13,4.273,4.273,0,0,0,.512.112,10.476,10.476,0,0,0,1.133.143,4.5,4.5,0,0,0,1.084-.137,5.066,5.066,0,0,1,.529-.083,1.626,1.626,0,0,1,.569.085,2.693,2.693,0,0,0,.5.1,2.983,2.983,0,0,1,.563.13,4.154,4.154,0,0,0,.474.111Q1174.452,236.832,1173.967,236.819Zm4.642-5.341c.084.42.193.827.306,1.24.056.206.108.413.164.619a6.094,6.094,0,0,1,.161.6,4.171,4.171,0,0,0,.056.549c.05.163.135.316.19.478a5.622,5.622,0,0,0,.2.575,2.213,2.213,0,0,1,.2.594c.009.058.069.059.1.03a1.612,1.612,0,0,1,.142.811c-.049.223-.44.186-.6.155a1.693,1.693,0,0,0-.265-.024c.007-.033.012-.066.017-.1a3.5,3.5,0,0,0,.023-.5,1.537,1.537,0,0,0-.069-.506c-.065-.2-.12-.4-.172-.6-.095-.367-.212-.726-.312-1.091a2.355,2.355,0,0,1-.055-.585,3.39,3.39,0,0,0-.069-.549c-.037-.2-.051-.405-.08-.607a4.132,4.132,0,0,1-.046-.635c0-.2.009-.4-.005-.6a4.783,4.783,0,0,0-.1-.629,4.1,4.1,0,0,1-.063-.516C1178.437,230.61,1178.522,231.044,1178.608,231.479Zm-.572-2.9c.016.089.029.178.04.268.018.146.041.291.066.434A1.822,1.822,0,0,1,1178.037,228.582Z" transform="translate(-1163.532 -219.49)" fill="#8c745e"/>
          <path id="Path_1005" data-name="Path 1005" d="M1195.348,220.881l-.011-.01v0Z" transform="translate(-1177.388 -220.091)" fill="#8c745e"/>
        </g>
        <path id="Path_1006" data-name="Path 1006" d="M1160.31,226.8c-.055.193-.11.385-.182.572-.019.049-.019.1-.042.148s-.045.077-.067.116a1.809,1.809,0,0,0-.121.285c-.15.4-.277.813-.4,1.225l-.191.629c-.067.222-.1.457-.156.682a6.345,6.345,0,0,0-.167.633,6.3,6.3,0,0,1-.147.66c-.111.414-.213.826-.306,1.244a13.124,13.124,0,0,1-.377,1.26c-.143.43-.343.84-.495,1.268a12.75,12.75,0,0,0-.393,1.273c-.087.362-.174.731-.227,1.1-.051.348-.028.7-.076,1.05a.083.083,0,0,0,.152.064,2.486,2.486,0,0,0,.279-1.116,13.416,13.416,0,0,1,.292-1.317c.115-.428.268-.85.424-1.265s.347-.833.48-1.268a12.592,12.592,0,0,0,.331-1.266c.081-.419.209-.824.3-1.24.045-.211.064-.425.121-.633.062-.227.119-.455.164-.686.088-.446.209-.882.327-1.321.095-.355.2-.707.3-1.059.022-.074.061-.142.089-.213a2.2,2.2,0,0,0,.057-.255c.047-.18.083-.363.123-.545A.046.046,0,0,0,1160.31,226.8Z" transform="translate(-1153.659 -222.659)" fill="#8c745e"/>
        <path id="Path_1007" data-name="Path 1007" d="M1160.066,271.105a3.042,3.042,0,0,0-.331-.42c-.147-.144-.3-.278-.458-.409a11.285,11.285,0,0,1-.9-.793,3.117,3.117,0,0,1-.665-.931c-.164-.37-.248-.776-.377-1.158a4.665,4.665,0,0,1-.282-1.28c-.021-.408-.037-.815-.052-1.224-.017-.457.017-.915.038-1.37a8.284,8.284,0,0,0-.051-1.329c-.02-.17-.041-.34-.062-.51-.007-.06-.1-.062-.1,0,.087.888.1,1.781.132,2.671.014.426,0,.853-.025,1.279a5.594,5.594,0,0,0,.02,1.218c.071.424.205.835.293,1.255a3.324,3.324,0,0,0,.392,1.068,4.322,4.322,0,0,0,.778.879,10.557,10.557,0,0,0,.915.771c.2.144.4.275.6.415C1160.012,271.291,1160.121,271.183,1160.066,271.105Z" transform="translate(-1153.603 -237.85)" fill="#8c745e"/>
        <path id="Path_1008" data-name="Path 1008" d="M1161.911,279.932c-.03-.043-.108-.018-.09.038s.041.03-.006.055a.878.878,0,0,1-.2.079,2.92,2.92,0,0,1-.441.089,7.212,7.212,0,0,0-.945.036.045.045,0,0,0-.011.082,2.01,2.01,0,0,0,1.266.1,1.028,1.028,0,0,0,.434-.19C1162.034,280.12,1161.982,280.033,1161.911,279.932Z" transform="translate(-1155.068 -245.811)" fill="#8c745e"/>
        <path id="Path_1009" data-name="Path 1009" d="M1167.274,221.606a2.8,2.8,0,0,1-.284-.1.719.719,0,0,0-.16-.046.25.25,0,0,0-.151.025l-.012.007a2.261,2.261,0,0,0-.085-.223.094.094,0,0,0-.067-.067l0,.017a.086.086,0,0,0-.083-.063c-.131,0-.222-.091-.341-.131a.991.991,0,0,0-.4,0,1.031,1.031,0,0,1-.6-.262c-.053-.039-.133.039-.092.092a.98.98,0,0,0,.519.366,1.143,1.143,0,0,0,.433,0,.576.576,0,0,1,.233.041.037.037,0,0,0-.013.045,1.046,1.046,0,0,1-.011.59c-.052.232-.048.473-.086.709-.015.1-.036.2-.054.3a1.942,1.942,0,0,0,0,.356c0,.258,0,.515,0,.773a.029.029,0,0,0,.057.008,3.693,3.693,0,0,0,.1-.726,2.985,2.985,0,0,1,.019-.409c.026-.125.045-.252.061-.379.029-.23.04-.459.067-.689a.969.969,0,0,0-.074-.547c.032.01.063.02.094.028a.145.145,0,0,0,.03.034.993.993,0,0,1,.016.154c0,.114-.017.23-.025.344-.017.26-.014.521-.014.781a14.9,14.9,0,0,0,.089,1.573c.058.54.024,1.082.041,1.624.008.271.042.541.077.81a4.754,4.754,0,0,0,.118.776.054.054,0,0,0,.1,0,2.327,2.327,0,0,0,.028-.776c-.016-.27-.038-.54-.042-.81-.007-.542.053-1.081.017-1.624-.017-.264-.059-.526-.072-.791s-.019-.521-.024-.782,0-.521-.019-.781c0-.073-.009-.146-.015-.218a1.325,1.325,0,0,0,.564.2A.117.117,0,0,0,1167.274,221.606Z" transform="translate(-1157.161 -220.042)" fill="#8c745e"/>
        <path id="Path_1010" data-name="Path 1010" d="M1165.739,222.047a.058.058,0,0,0-.116,0c-.033.485-.12.968-.2,1.447a5.128,5.128,0,0,0-.054.658,3.6,3.6,0,0,0-.04.694c.006.037.064.034.072,0,.048-.232.135-.458.16-.694s.038-.47.077-.705A6.325,6.325,0,0,0,1165.739,222.047Z" transform="translate(-1157.301 -220.579)" fill="#8c745e"/>
        <path id="Path_1011" data-name="Path 1011" d="M1164.227,228a5.082,5.082,0,0,0-.221.638c-.064.227-.144.448-.209.674-.06.21-.1.424-.171.634a3.6,3.6,0,0,0-.161.659,10.782,10.782,0,0,0-.1,1.471c0,.229-.038.455-.029.684,0,.119-.014.243-.013.363a1.216,1.216,0,0,1-.042.364.036.036,0,0,0,.066.028,1.582,1.582,0,0,0,.136-.629c.033-.217.061-.435.086-.654.028-.245.024-.493.047-.739s.049-.487.075-.731c.05-.462.234-.892.3-1.35.033-.231.114-.453.147-.684a3.515,3.515,0,0,1,.17-.692C1164.331,227.983,1164.249,227.948,1164.227,228Z" transform="translate(-1156.415 -223.186)" fill="#8c745e"/>
        <path id="Path_1012" data-name="Path 1012" d="M1163.05,231.278c-.04.247-.058.5-.116.74s-.146.449-.181.686a.021.021,0,0,0,.041.011c.081-.221.165-.446.224-.674s.072-.495.11-.741C1163.137,231.248,1163.058,231.226,1163.05,231.278Z" transform="translate(-1156.183 -224.612)" fill="#8c745e"/>
        <path id="Path_1013" data-name="Path 1013" d="M1165.636,255.987a6.826,6.826,0,0,1,.033-1.069c.018-.387.011-.776.019-1.163s.006-.79-.016-1.184c-.021-.377-.106-.748-.128-1.125s-.015-.735-.024-1.1a6.4,6.4,0,0,0-.065-1c-.029-.155-.024-.31-.038-.466a.552.552,0,0,0-.033-.217.449.449,0,0,1-.078-.171c-.013-.089-.129-.07-.154,0h0c-.007.048-.013.1-.018.144s.027.094.023.141a3.388,3.388,0,0,0-.022.518c.007.161.033.319.028.481l-.013.528c-.01.366-.019.733-.023,1.1s.079.743.1,1.117c.037.783-.015,1.569-.017,2.353a2.655,2.655,0,0,0,.279,1.575,3.13,3.13,0,0,1,.135.546c.006.04.061.024.065-.009a2.6,2.6,0,0,0-.045-.993Z" transform="translate(-1157.216 -232.096)" fill="#8c745e"/>
        <path id="Path_1014" data-name="Path 1014" d="M1166.687,266.322c-.06-.224-.1-.455-.154-.681s-.156-.44-.211-.667c-.064-.262-.114-.527-.165-.793-.012-.067-.109-.037-.1.028a9.193,9.193,0,0,0,.256,1.395c.064.208.088.429.148.639s.168.391.242.593a.037.037,0,0,0,.072,0A1.08,1.08,0,0,0,1166.687,266.322Z" transform="translate(-1157.622 -238.943)" fill="#8c745e"/>
        <path id="Path_1015" data-name="Path 1015" d="M1167.925,270.765c-.041-.081-.161-.01-.121.071a4.88,4.88,0,0,1,.287.659.038.038,0,0,0,.073,0C1168.225,271.239,1168.037,270.981,1167.925,270.765Z" transform="translate(-1158.38 -241.812)" fill="#8c745e"/>
        <path id="Path_1016" data-name="Path 1016" d="M1189.882,222.166a1.183,1.183,0,0,0-.283.067c-.1.029-.213.044-.317.077a.079.079,0,0,0,0,.152.677.677,0,0,0,.644-.19A.063.063,0,0,0,1189.882,222.166Z" transform="translate(-1167.716 -220.656)" fill="#8c745e"/>
        <path id="Path_1017" data-name="Path 1017" d="M1193.546,221.2a2.114,2.114,0,0,0-.688.046c-.1.007-.2.043-.3.059a1.072,1.072,0,0,0-.328.1c-.09.046-.026.2.069.165a.763.763,0,0,1,.287-.054c.107,0,.214-.008.321-.007.123,0,.247-.035.369-.045a1.556,1.556,0,0,0,.267-.014A.13.13,0,0,0,1193.546,221.2Z" transform="translate(-1169.007 -220.227)" fill="#8c745e"/>
        <path id="Path_1018" data-name="Path 1018" d="M1194.57,228c-.163-.5-.415-.964-.579-1.463s-.292-1.009-.443-1.512c-.036-.12-.079-.238-.121-.356a2.008,2.008,0,0,1-.092-.375c-.041-.258-.089-.515-.131-.772a2.174,2.174,0,0,0-.2-.636,1.362,1.362,0,0,0-.168-.245,1.1,1.1,0,0,0-.124-.113l-.007-.025c-.011-.04-.021-.08-.029-.12a.291.291,0,0,1-.005-.032.111.111,0,0,0,.029-.114.05.05,0,0,0-.021-.06.431.431,0,0,0-.039-.024.083.083,0,0,0-.091.008c-.141.018-.113.281-.092.383s.055.2.086.3c.011.036.022.072.032.107,0,.011.007.046,0,0a.776.776,0,0,0,.056.178,11.722,11.722,0,0,1,.344,1.256c.051.223.109.444.163.667a3.782,3.782,0,0,0,.191.617c.027.062.128.03.125-.034a4.786,4.786,0,0,0-.095-.686c.015.037.03.074.044.111.188.49.343,1,.51,1.494a5.869,5.869,0,0,0,.607,1.462C1194.536,228.044,1194.581,228.03,1194.57,228Zm-1.9-5.65,0-.028C1192.657,222.282,1192.678,222.318,1192.666,222.348Z" transform="translate(-1169.114 -220.644)" fill="#8c745e"/>
        <path id="Path_1019" data-name="Path 1019" d="M1197.957,239.39a5.671,5.671,0,0,0-.238-.787c-.089-.258-.161-.523-.231-.786-.307-1.15-.476-2.338-.841-3.473a.053.053,0,0,0-.1.028c.3,1.12.414,2.284.67,3.416.06.266.119.532.2.793s.182.516.24.786a5.53,5.53,0,0,1,.1.835,5.106,5.106,0,0,0,.081.808.082.082,0,0,0,.156,0A4.1,4.1,0,0,0,1197.957,239.39Z" transform="translate(-1170.903 -225.945)" fill="#8c745e"/>
        <path id="Path_1020" data-name="Path 1020" d="M1191.2,224.689c-.046-.255-.089-.51-.129-.766a3.669,3.669,0,0,1-.022-.386c0-.1.04-.178.031-.279-.006-.06-.1-.085-.114-.015a.365.365,0,0,1-.061.135.259.259,0,0,0-.014.115c-.005.115-.009.229-.011.344a2.566,2.566,0,0,0,.046.355c.021.147.042.293.067.44a8.72,8.72,0,0,0,.339,1.537c.021.06.124.055.118-.016A14.553,14.553,0,0,0,1191.2,224.689Z" transform="translate(-1168.438 -221.106)" fill="#8c745e"/>
        <path id="Path_1021" data-name="Path 1021" d="M1190.353,223.157a.062.062,0,0,0,.12,0,.6.6,0,0,1,.026-.1.09.09,0,0,0-.062-.109c-.177-.074-.3.1-.331.247a2.9,2.9,0,0,0-.014.637c.009.372.055.744.1,1.114a7.65,7.65,0,0,0,.163,1.05c.019.072.112.049.12-.016a4.04,4.04,0,0,0-.036-.878c-.031-.3-.068-.6-.092-.894-.02-.244-.022-.488-.034-.732,0-.081-.024-.253.041-.324Z" transform="translate(-1168.088 -220.989)" fill="#8c745e"/>
        <path id="Path_1022" data-name="Path 1022" d="M1182.594,263.172c-.085-.322-.235-.624-.346-.937a1.121,1.121,0,0,1,.017-.9.11.11,0,0,0-.172-.133c-.493.489-.2,1.2,0,1.755a1.464,1.464,0,0,1,.123.861,1.218,1.218,0,0,1-.512.628,7.552,7.552,0,0,1-1.856.86,24.42,24.42,0,0,0-2.439.909c-.392.186-.778.384-1.156.6-.177.1-.358.185-.535.284a4.035,4.035,0,0,0-.572.376c-.114.091-.285.222-.314.376-.045.235.291.262.446.27a2.162,2.162,0,0,0,.459-.034c.2-.033.414-.026.619-.051.433-.054.863-.122,1.29-.211a11.845,11.845,0,0,1,1.4-.235,3.476,3.476,0,0,1,.441-.007,1.952,1.952,0,0,1,.349,0c.248.052.255.28.336.472a.819.819,0,0,0,.445.453.962.962,0,0,0,.5.05.364.364,0,0,0,.095.173c.108.114.276.163.371.288a.433.433,0,0,1,.031.362,4.768,4.768,0,0,1-.183.544,7.027,7.027,0,0,0-.3,1.242,4.929,4.929,0,0,0-.049,1.326,3.87,3.87,0,0,0,.09.495.17.17,0,0,0-.095.174c.032.178.018.36.066.537a2.39,2.39,0,0,0,.111.236c.036.089.038.116-.039.163s-.144.055-.215.09c-.089.044-.179.087-.27.129-.209.1-.422.187-.634.278-.787.336-1.533.763-2.329,1.081a7.028,7.028,0,0,1-1.205.393c-.413.084-.833.125-1.251.182-.444.062-.888.121-1.331.192s-.872.164-1.312.23c-.919.137-1.825.344-2.74.5a8.149,8.149,0,0,1-1.293.135,7.876,7.876,0,0,1-1.323-.117,12.114,12.114,0,0,1-1.341-.253c-.411-.113-.818-.243-1.225-.369s-.826-.256-1.247-.358a6.909,6.909,0,0,0-1.134-.208.109.109,0,0,0-.06-.043,6.676,6.676,0,0,0-1.371-.137c-.464-.033-.923-.1-1.383-.169a5.265,5.265,0,0,1-1.112-.36,8.381,8.381,0,0,0-1.16-.372c-.418-.1-.847-.159-1.267-.25-.184-.04-.365-.075-.546-.129a6.044,6.044,0,0,0-.62-.164c-.419-.079-.843-.152-1.257-.256a12.683,12.683,0,0,1-1.217-.411,1.125,1.125,0,0,1-.27-.127,1.307,1.307,0,0,0-.244-.139c-.072-.031-.145-.042-.214-.072a.529.529,0,0,0-.163-.059.1.1,0,0,0,.058-.09c.015-.454-.006-.911.026-1.363a5.809,5.809,0,0,1,.232-1.236,9.153,9.153,0,0,1,.436-1.139c0,.018,0,.036,0,.054.047.381.579.38.869.4.2.017.393.035.59.044a2.391,2.391,0,0,1,.33.033,1.851,1.851,0,0,0,.3.069,1.187,1.187,0,0,1,.52.117c.05.03.1.051.155.081.071.041.093.064.023.11-.112.072-.265.2-.273.34a.625.625,0,0,0,.218.406,1.132,1.132,0,0,0,.433.248.759.759,0,0,0,.518.04c.031-.013.055-.058.022-.085a1.035,1.035,0,0,0-.369-.149,1.163,1.163,0,0,1-.441-.217.558.558,0,0,1-.127-.182c-.047-.1.086-.182.154-.23a.23.23,0,0,0,.1-.311.455.455,0,0,0-.276-.159c-.058-.018-.1-.051-.157-.065-.11-.027-.22-.055-.331-.074-.4-.071-.811-.153-1.214-.243-.188-.042-.379-.059-.565-.113-.047-.014-.154-.032-.155-.094a.511.511,0,0,1,.074-.209,1.606,1.606,0,0,1,.362-.429c.146-.142.27-.3.409-.446a1.866,1.866,0,0,1,.209-.153c.095-.077.193-.148.292-.22.187-.133.375-.266.565-.4a3.392,3.392,0,0,1,1.117-.545,1.585,1.585,0,0,1,.267-.033.064.064,0,0,0,0-.128,3.85,3.85,0,0,0-2.19,1.021c-.154.109-.331.175-.474.3s-.3.279-.455.414a2.54,2.54,0,0,0-.25.245c.1-.226.205-.453.3-.683a16.574,16.574,0,0,0,.733-2.6c.1-.427.22-.847.325-1.272s.192-.865.295-1.3a3.539,3.539,0,0,0,.13-1.258c-.056-.438-.171-.869-.239-1.305a11.627,11.627,0,0,1-.028-2.744c.075-.911.2-1.817.3-2.725a27.46,27.46,0,0,0,.177-2.757c.009-.911,0-1.833-.08-2.742a.073.073,0,0,0-.146,0c-.081.928-.057,1.866-.09,2.8a27.407,27.407,0,0,1-.256,2.76,19.5,19.5,0,0,0-.284,5.465c.065.442.191.866.291,1.3a2.471,2.471,0,0,1-.085,1.29c-.125.425-.225.856-.356,1.279s-.27.836-.381,1.262a16.136,16.136,0,0,1-.813,2.577,16.555,16.555,0,0,0-.972,2.374,5.371,5.371,0,0,0-.2,1.264,3.854,3.854,0,0,0,.228,1.339.1.1,0,0,0,.072.069.118.118,0,0,0,.021.232,3.663,3.663,0,0,0,.4.255c.067.046.131.1.2.145a1.779,1.779,0,0,0,.346.141,9.035,9.035,0,0,0,1.216.415c.412.1.833.169,1.249.256.192.04.38.1.567.159s.4.1.608.14c.417.089.838.168,1.256.251a6.42,6.42,0,0,1,1.15.388,4.81,4.81,0,0,0,1.115.341c.465.067.926.137,1.394.173a6.281,6.281,0,0,0,.941.028l.033.007a13.033,13.033,0,0,1,2.529.66c.406.137.809.282,1.219.406a16.188,16.188,0,0,0,2.671.463,6.469,6.469,0,0,0,1.308-.077c.914-.128,1.813-.344,2.722-.5.446-.076.892-.148,1.338-.23s.875-.144,1.315-.2a10.073,10.073,0,0,0,2.5-.486c.4-.167.806-.323,1.2-.513s.762-.383,1.147-.566.8-.351,1.2-.539c.327-.155.714-.309.611-.747a1.732,1.732,0,0,0-.147-.315.068.068,0,0,0,.039-.064,3.707,3.707,0,0,0-.062-.586,4.04,4.04,0,0,1-.037-.672,7.676,7.676,0,0,1,.159-1.307,7.593,7.593,0,0,1,.345-1.217,1,1,0,0,0-.034-.963.906.906,0,0,0-.387-.266.787.787,0,0,1-.189-.121c-.071-.054-.057-.178-.068-.255a1.99,1.99,0,0,1-.051-.619,1.368,1.368,0,0,0,.061-.57c-.031-.16-.188-.274-.273-.406a.367.367,0,0,1,.059-.474,4.925,4.925,0,0,0,.724-.768,1.513,1.513,0,0,0,.149-.409c.013-.052.026-.1.038-.157a1.718,1.718,0,0,0,.557-.643A1.362,1.362,0,0,0,1182.594,263.172Zm-.917,1.818a1.421,1.421,0,0,1-.348.423c-.253.233-.609.428-.7.78a.735.735,0,0,0,.072.5c.079.163.264.264.3.444s-.024.34,0,.508c.035.208.184.434.145.651a1.1,1.1,0,0,1-.588-.38c-.078-.131-.082-.292-.19-.409a.869.869,0,0,0-.44-.256,1.781,1.781,0,0,0-.493.037c-.232.012-.465.035-.695.067-.463.064-.919.168-1.376.266a11.3,11.3,0,0,1-1.31.212c-.163.016-.315.034-.475.062a1.269,1.269,0,0,1-.532,0c-.165-.044.147-.27.2-.306a5.309,5.309,0,0,1,.584-.366c.187-.1.372-.192.561-.294a11.34,11.34,0,0,1,1.2-.576c.813-.324,1.676-.5,2.514-.756a7.067,7.067,0,0,0,1.6-.656Z" transform="translate(-1151.112 -232.551)" fill="#8c745e"/>
        <path id="Path_1023" data-name="Path 1023" d="M1186.174,284.794a21.12,21.12,0,0,0-3.035,1.008.1.1,0,0,0,.055.2c.9-.21,1.76-.53,2.641-.8.321-.1.646-.187.973-.264a2.224,2.224,0,0,1,.285-.049.788.788,0,0,1,.137,0,.108.108,0,0,1,.042.013c0,.077-.177.22-.22.263-.143.142-.3.273-.455.4-.307.249-.608.512-.931.74a8.646,8.646,0,0,1-2.334,1.131,17.139,17.139,0,0,1-2.627.6c-.895.142-1.794.278-2.694.383a20.678,20.678,0,0,1-2.769.205c-.457-.008-.914-.047-1.371-.071s-.931-.04-1.4-.055c-.821-.026-1.641-.049-2.462-.087-.842-.04-1.683-.095-2.526-.118-.106,0-.1.147,0,.16.932.121,1.868.184,2.805.235s1.868.082,2.8.067,1.835-.063,2.754-.1c.46-.017.922-.008,1.383-.02s.932-.042,1.4-.079a22.771,22.771,0,0,0,5.27-.913,7.7,7.7,0,0,0,2.268-1.2,6.974,6.974,0,0,0,.869-.773,2.872,2.872,0,0,0,.333-.433.83.83,0,0,0,.152-.357C1187.558,284.38,1186.381,284.744,1186.174,284.794Z" transform="translate(-1158.211 -247.863)" fill="#8c745e"/>
        <path id="Path_1024" data-name="Path 1024" d="M1197.566,272.793a3.858,3.858,0,0,0-1.055-.007,3.606,3.606,0,0,0-.52.085l-.264.063a1.417,1.417,0,0,1-.349.02c-.354,0-.709.025-1.063.015a1.24,1.24,0,0,1-.514-.111.45.45,0,0,1-.229-.306.073.073,0,0,0-.141.039.879.879,0,0,0,.122.328.749.749,0,0,0,.383.244,3.511,3.511,0,0,0,1.1.075q.311,0,.62,0a1.373,1.373,0,0,0,.3-.072c.1-.027.209-.057.314-.086.419-.114.868-.114,1.291-.207A.043.043,0,0,0,1197.566,272.793Z" transform="translate(-1169.547 -242.583)" fill="#8c745e"/>
        <path id="Path_1025" data-name="Path 1025" d="M1201.007,273.437c0-.05-.08-.051-.078,0,.005.127.083.242-.041.334-.033.024-.072.022-.106.039-.092.045-.184.089-.279.127-.143.058-.292.055-.436.1s-.286.142-.434.188l-.952.3a3.185,3.185,0,0,0-.9.343.05.05,0,0,0,.025.093,1.716,1.716,0,0,0,.5-.119c.176-.059.351-.117.526-.179a5.589,5.589,0,0,0,1-.382,1.473,1.473,0,0,1,.506-.17,1.736,1.736,0,0,0,.449-.181c.082-.041.171-.052.229-.134C1201.107,273.669,1201.02,273.579,1201.007,273.437Z" transform="translate(-1171.435 -242.975)" fill="#8c745e"/>
        <path id="Path_1026" data-name="Path 1026" d="M1195.949,264.912a4.748,4.748,0,0,0-.647.8c-.193.262-.424.495-.627.748a4.58,4.58,0,0,0-.556.81,1.15,1.15,0,0,0-.169.8.09.09,0,0,0,.172,0,4.246,4.246,0,0,1,.94-1.509,5.446,5.446,0,0,0,.535-.742,4.635,4.635,0,0,0,.433-.865C1196.045,264.909,1195.983,264.882,1195.949,264.912Z" transform="translate(-1169.765 -239.272)" fill="#8c745e"/>
        <path id="Path_1027" data-name="Path 1027" d="M1198.833,251.318a2.542,2.542,0,0,0-.249.7,7.794,7.794,0,0,0-.09.823c-.02.285-.027.571-.055.855a5.026,5.026,0,0,1-.173.856,4.49,4.49,0,0,0-.13.818,8.924,8.924,0,0,1-.066.925c-.052.273-.062.553-.09.829s-.058.56-.088.84c-.01.091.147.112.16.021.037-.262.075-.523.111-.786.039-.281.061-.568.125-.845a4.633,4.633,0,0,0,.08-.823,4.579,4.579,0,0,1,.142-.914,5.957,5.957,0,0,0,.165-.773c.037-.283.049-.569.062-.854a7.98,7.98,0,0,1,.17-1.647C1198.915,251.306,1198.853,251.277,1198.833,251.318Z" transform="translate(-1171.49 -233.347)" fill="#8c745e"/>
        <path id="Path_1028" data-name="Path 1028" d="M1200.919,257.841a11.781,11.781,0,0,0-.5,2.157,10.451,10.451,0,0,1-.586,2,2.838,2.838,0,0,1-.528.862c-.256.265-.536.509-.8.762-.249.236-.468.5-.694.757a1.174,1.174,0,0,0-.4.738c0,.084.129.133.17.046a1.74,1.74,0,0,1,.145-.244c.008.065.109.111.156.052s.159-.068.213-.108c.111-.081.221-.16.327-.247.246-.2.509-.381.772-.559s.513-.327.758-.509a4.35,4.35,0,0,0,.644-.494.06.06,0,0,0-.058-.1,2.645,2.645,0,0,0-.781.361c-.271.177-.55.342-.815.529a8.023,8.023,0,0,0-.766.6c-.076.068-.15.141-.23.2.05-.056.1-.111.154-.166q.358-.384.717-.769a7.492,7.492,0,0,0,.719-.807,4.845,4.845,0,0,0,.483-.881,11.619,11.619,0,0,0,.6-1.971c.081-.364.147-.731.218-1.1s.15-.731.193-1.1C1201.032,257.789,1200.94,257.79,1200.919,257.841Z" transform="translate(-1171.279 -236.181)" fill="#8c745e"/>
        <path id="Path_1029" data-name="Path 1029" d="M1177.426,254.115a5.7,5.7,0,0,0-1.516-.388c-.567-.121-1.138-.208-1.7-.369-.265-.076-.528-.165-.79-.251a6.241,6.241,0,0,1-.817-.349c-.257-.128-.507-.267-.763-.4-.117-.059-.214-.141-.325-.205a.564.564,0,0,0-.211-.1c-.1-.012-.1.133-.023.165.02.008.049.058.064.074s.055.04.078.065a1.224,1.224,0,0,0,.291.214c.244.15.49.295.745.427a9.153,9.153,0,0,0,1.621.626,10.014,10.014,0,0,0,1.65.3c.278.034.554.068.833.094a3.678,3.678,0,0,1,.835.149A.03.03,0,0,0,1177.426,254.115Z" transform="translate(-1159.875 -233.677)" fill="#8c745e"/>
        <path id="Path_1030" data-name="Path 1030" d="M1181.169,256.611c-.081.22-.334.27-.533.334a3.953,3.953,0,0,0-.4.178,4.417,4.417,0,0,1-.457.173,9.924,9.924,0,0,1-1.181.29c-.274.057-.73.152-.759.5a.524.524,0,0,0,.326.468,1.444,1.444,0,0,0,.291.134.543.543,0,0,1,.3.216.089.089,0,0,0,.15-.062.531.531,0,0,0-.086-.268c-.065-.1-.166-.142-.258-.213a2.955,2.955,0,0,0-.274-.155.206.206,0,0,1-.076-.077.151.151,0,0,1-.005-.019l.013-.014s.051-.033.071-.043a1.081,1.081,0,0,1,.2-.074c.163-.048.331-.078.5-.113.148-.031.29-.078.434-.117a5.588,5.588,0,0,0,.865-.316c.143-.065.274-.16.418-.22.1-.041.2-.078.295-.124a.529.529,0,0,0,.3-.458C1181.314,256.545,1181.2,256.54,1181.169,256.611Z" transform="translate(-1162.755 -235.64)" fill="#8c745e"/>
        <path id="Path_1031" data-name="Path 1031" d="M1170.663,234.219a.019.019,0,0,0-.036,0c-.007.025-.031.047-.037.077-.012.05-.025.1-.036.149-.029.122-.064.243-.1.365-.073.262-.159.525-.209.793,0,.019.022.032.033.014a3.258,3.258,0,0,0,.282-.738q.057-.2.1-.4c.01-.047.016-.1.022-.144S1170.672,234.265,1170.663,234.219Z" transform="translate(-1159.447 -225.9)" fill="#8c745e"/>
        <path id="Path_1032" data-name="Path 1032" d="M1170.661,235.386a13.094,13.094,0,0,0-.409,1.532.014.014,0,0,0,.027.007,13.136,13.136,0,0,0,.45-1.521A.035.035,0,0,0,1170.661,235.386Z" transform="translate(-1159.45 -226.404)" fill="#8c745e"/>
        <path id="Path_1033" data-name="Path 1033" d="M1170.789,236.24a4.264,4.264,0,0,1-.456,1.327.017.017,0,0,0,.03.017,2.636,2.636,0,0,0,.5-1.344C1170.866,236.194,1170.795,236.2,1170.789,236.24Z" transform="translate(-1159.484 -226.772)" fill="#8c745e"/>
        <path id="Path_1034" data-name="Path 1034" d="M1171.014,237.163c-.141.5-.347.985-.5,1.485,0,.012.016.021.022.009a8.426,8.426,0,0,0,.546-1.476A.033.033,0,0,0,1171.014,237.163Z" transform="translate(-1159.562 -227.179)" fill="#8c745e"/>
        <path id="Path_1035" data-name="Path 1035" d="M1171.176,238.427c-.151.485-.351.953-.5,1.437,0,.016.02.026.027.011a9.036,9.036,0,0,0,.548-1.429C1171.263,238.4,1171.191,238.381,1171.176,238.427Z" transform="translate(-1159.633 -227.728)" fill="#8c745e"/>
        <path id="Path_1036" data-name="Path 1036" d="M1171.28,239.363c-.2.591-.405,1.179-.6,1.77a.012.012,0,0,0,.022.009,13.306,13.306,0,0,0,.64-1.763C1171.353,239.341,1171.292,239.325,1171.28,239.363Z" transform="translate(-1159.635 -228.138)" fill="#8c745e"/>
        <path id="Path_1037" data-name="Path 1037" d="M1171.343,240.791c-.093.277-.18.555-.265.834a5.938,5.938,0,0,0-.236.842c0,.016.019.028.028.012a4.161,4.161,0,0,0,.275-.78c.089-.3.179-.593.275-.887C1171.437,240.763,1171.359,240.742,1171.343,240.791Z" transform="translate(-1159.707 -228.757)" fill="#8c745e"/>
        <path id="Path_1038" data-name="Path 1038" d="M1171.439,241.892c-.076.295-.16.588-.261.875s-.249.558-.338.848c0,.015.016.028.027.016a2.586,2.586,0,0,0,.376-.792c.107-.3.192-.614.269-.927A.038.038,0,0,0,1171.439,241.892Z" transform="translate(-1159.706 -229.237)" fill="#8c745e"/>
        <path id="Path_1039" data-name="Path 1039" d="M1171.54,243.573q-.105.383-.221.763a5.946,5.946,0,0,0-.226.771.017.017,0,0,0,.031.014,3.434,3.434,0,0,0,.273-.709c.084-.269.161-.541.235-.814A.048.048,0,0,0,1171.54,243.573Z" transform="translate(-1159.816 -229.967)" fill="#8c745e"/>
        <path id="Path_1040" data-name="Path 1040" d="M1171.61,244.347a4.58,4.58,0,0,1-.111.936c-.034.156-.077.311-.125.463a1.8,1.8,0,0,0-.12.413.021.021,0,0,0,.035.015,1.065,1.065,0,0,0,.165-.35,4.247,4.247,0,0,0,.145-.513,4.465,4.465,0,0,0,.1-.964A.047.047,0,0,0,1171.61,244.347Z" transform="translate(-1159.887 -230.299)" fill="#8c745e"/>
        <path id="Path_1041" data-name="Path 1041" d="M1171.82,246.211a7.223,7.223,0,0,1-.15.892,4.5,4.5,0,0,0-.164.778.022.022,0,0,0,.041.011,3.077,3.077,0,0,0,.232-.815,6.971,6.971,0,0,0,.124-.866C1171.907,246.158,1171.825,246.159,1171.82,246.211Z" transform="translate(-1159.996 -231.113)" fill="#8c745e"/>
        <path id="Path_1042" data-name="Path 1042" d="M1172.2,246.971a4.963,4.963,0,0,1-.085.85c-.048.257-.155.513-.177.772,0,.019.023.022.032.009a2.076,2.076,0,0,0,.245-.807,4.79,4.79,0,0,0,.068-.824A.042.042,0,0,0,1172.2,246.971Z" transform="translate(-1160.184 -231.444)" fill="#8c745e"/>
        <path id="Path_1043" data-name="Path 1043" d="M1172.658,248.236c0,.212-.02.424-.041.635-.011.112-.025.224-.04.336-.009.068-.031.136.013.192a.026.026,0,0,0,.032,0c.055-.036.057-.1.064-.159.015-.109.025-.22.034-.33.019-.226.032-.453.03-.679A.046.046,0,0,0,1172.658,248.236Z" transform="translate(-1160.457 -231.993)" fill="#8c745e"/>
        <path id="Path_1044" data-name="Path 1044" d="M1173.184,249.168c0,.242-.062.476-.076.716,0,.029.039.031.047.007a2.3,2.3,0,0,0,.116-.722A.043.043,0,0,0,1173.184,249.168Z" transform="translate(-1160.694 -232.4)" fill="#8c745e"/>
        <path id="Path_1045" data-name="Path 1045" d="M1194.114,223.56a.037.037,0,0,0-.073,0,5.507,5.507,0,0,1-.086.751,5.9,5.9,0,0,0-.145.729.029.029,0,0,0,.054.014,2.121,2.121,0,0,0,.2-.713A4.162,4.162,0,0,0,1194.114,223.56Z" transform="translate(-1169.713 -221.247)" fill="#8c745e"/>
        <path id="Path_1046" data-name="Path 1046" d="M1194.419,224.659a.037.037,0,0,0-.073,0,4.38,4.38,0,0,1-.093.7c-.051.243-.147.479-.181.725a.025.025,0,0,0,.045.019A2.475,2.475,0,0,0,1194.419,224.659Z" transform="translate(-1169.827 -221.726)" fill="#8c745e"/>
        <path id="Path_1047" data-name="Path 1047" d="M1194.716,225.913c-.054.246-.1.494-.137.743a3.231,3.231,0,0,0-.088.746c0,.023.035.037.046.012a2.38,2.38,0,0,0,.142-.694c.034-.263.068-.526.114-.787C1194.8,225.884,1194.727,225.862,1194.716,225.913Z" transform="translate(-1170.008 -222.275)" fill="#8c745e"/>
        <path id="Path_1048" data-name="Path 1048" d="M1195.1,227.35a4.268,4.268,0,0,1-.13.543,2.208,2.208,0,0,0-.15.565c0,.026.036.044.054.023a1.34,1.34,0,0,0,.2-.505,3.722,3.722,0,0,0,.1-.615C1195.181,227.317,1195.107,227.307,1195.1,227.35Z" transform="translate(-1170.153 -222.902)" fill="#8c745e"/>
        <path id="Path_1049" data-name="Path 1049" d="M1195.34,228.626a2.033,2.033,0,0,1-.078.47,1.4,1.4,0,0,0-.1.389c0,.021.03.038.045.019a1.027,1.027,0,0,0,.147-.382,1.967,1.967,0,0,0,.069-.5A.044.044,0,0,0,1195.34,228.626Z" transform="translate(-1170.304 -223.451)" fill="#8c745e"/>
        <path id="Path_1050" data-name="Path 1050" d="M1196.559,234.711a.034.034,0,0,0-.066.018,1.547,1.547,0,0,1-.127.941c-.007.016.017.029.029.017A.954.954,0,0,0,1196.559,234.711Z" transform="translate(-1170.826 -226.11)" fill="#8c745e"/>
        <path id="Path_1051" data-name="Path 1051" d="M1196.828,235.63c-.007-.049-.089-.037-.086.012a3.615,3.615,0,0,1-.218,1.282c-.009.028.03.041.045.019A1.888,1.888,0,0,0,1196.828,235.63Z" transform="translate(-1170.894 -226.507)" fill="#8c745e"/>
        <path id="Path_1052" data-name="Path 1052" d="M1196.93,237.078c-.006-.057-.095-.059-.091,0a3.539,3.539,0,0,1-.308,1.569c-.007.019.021.035.033.02A2.176,2.176,0,0,0,1196.93,237.078Z" transform="translate(-1170.898 -227.133)" fill="#8c745e"/>
        <path id="Path_1053" data-name="Path 1053" d="M1198.005,245.363a3.209,3.209,0,0,1-.472.98,2.726,2.726,0,0,1-.37.421,2.769,2.769,0,0,0-.392.358c-.017.023.011.047.033.043a.947.947,0,0,0,.431-.267,2.9,2.9,0,0,0,.4-.446,2.374,2.374,0,0,0,.437-1.072C1198.074,245.34,1198.016,245.321,1198.005,245.363Z" transform="translate(-1171.001 -230.751)" fill="#8c745e"/>
        <path id="Path_1054" data-name="Path 1054" d="M1190.94,224.646c-.07.207-.144.413-.218.619a2.975,2.975,0,0,0-.192.632c0,.019.027.024.035.009a3.139,3.139,0,0,0,.223-.567c.077-.223.155-.447.229-.672C1191.034,224.617,1190.957,224.6,1190.94,224.646Z" transform="translate(-1168.284 -221.724)" fill="#8c745e"/>
        <path id="Path_1055" data-name="Path 1055" d="M1191.1,225.819a6.514,6.514,0,0,1-.191.662,3.024,3.024,0,0,0-.214.591c0,.021.026.029.039.016a1.39,1.39,0,0,0,.26-.529,5.936,5.936,0,0,0,.2-.714C1191.206,225.784,1191.112,225.758,1191.1,225.819Z" transform="translate(-1168.355 -222.232)" fill="#8c745e"/>
        <path id="Path_1056" data-name="Path 1056" d="M1191.228,227.426a3.056,3.056,0,0,0-.125.482c0,.032.038.057.056.024a2.992,2.992,0,0,0,.164-.479C1191.344,227.391,1191.248,227.365,1191.228,227.426Z" transform="translate(-1168.534 -222.932)" fill="#8c745e"/>
        <path id="Path_1057" data-name="Path 1057" d="M1194.891,239.186c-.023.126-.048.252-.082.376s-.1.258-.141.391a.023.023,0,0,0,.038.022,1.409,1.409,0,0,0,.259-.769C1194.971,239.159,1194.9,239.137,1194.891,239.186Z" transform="translate(-1170.086 -228.058)" fill="#8c745e"/>
        <path id="Path_1058" data-name="Path 1058" d="M1195.28,240.381a.038.038,0,0,0-.075,0c0,.072,0,.143-.006.214a1.439,1.439,0,0,0-.027.215c0,.018.026.034.04.016A.754.754,0,0,0,1195.28,240.381Z" transform="translate(-1170.306 -228.575)" fill="#8c745e"/>
        <path id="Path_1059" data-name="Path 1059" d="M1191.831,222.5l-.012.084h0c-.04,0-.08,0-.12,0,.023-.121.038-.244.051-.365a.02.02,0,0,0-.012-.022c.047-.019.093-.038.138-.06a.016.016,0,0,0-.008-.029c-.085.008-.169.019-.254.033.026-.038-.037-.075-.064-.036-.012.018-.023.035-.034.053-.309.056-.616.139-.922.2-.452.088-.906.172-1.358.26-.042.008-.023.069.017.063.441-.062.88-.123,1.318-.2.284-.053.584-.1.871-.181-.02.043-.038.087-.055.133a1.364,1.364,0,0,0-.061.209l-.129.024c-.224.04-.446.081-.671.116l-.327.05c.028-.073.056-.146.086-.217.017-.041-.054-.071-.072-.03l-.114.262c-.261.038-.524.072-.786.1-.012-.069-.024-.138-.037-.207-.006-.036-.067-.028-.063.008l.02.207-.036,0c-.036,0-.037.057,0,.056h.042c.089.911.158,1.823.171,2.74a.026.026,0,0,0,.052,0,10.24,10.24,0,0,0-.139-2.743c.243-.009.484-.025.726-.048-.046.108-.09.218-.129.328-.117.028-.234.059-.35.093a.034.034,0,0,0,.018.066c.1-.028.2-.054.3-.077a2.593,2.593,0,0,0-.088.327.014.014,0,0,0,.025.011,2.973,2.973,0,0,0,.175-.363l.13-.028a4.086,4.086,0,0,0-.239.808c0,.019.023.033.033.014a4.954,4.954,0,0,0,.333-.846q.174-.032.35-.056c.072-.01.145-.018.217-.025.13.638.2,1.282.3,1.925,0,.024.041.017.041-.006a6.573,6.573,0,0,0-.248-1.928l.216-.016c.1-.006.212-.007.317-.016v0a.028.028,0,0,0,.052.014c.005-.008.009-.017.015-.025a1.032,1.032,0,0,0,.109-.019.019.019,0,0,0,0-.036l-.073-.014a2.423,2.423,0,0,0,.1-.359c0-.018.009-.036.013-.054a1.394,1.394,0,0,0,.138-.056c-.025.171-.052.341-.082.511-.039.22-.106.436-.131.658,0,.026.036.033.047.012a3.186,3.186,0,0,0,.25-1.3C1191.9,222.468,1191.836,222.459,1191.831,222.5Zm-1.8.762c.041-.1.079-.208.117-.312l.124-.014c-.036.1-.074.2-.112.3Zm1.426-.177a2.7,2.7,0,0,0-.563.029c-.015-.047-.029-.093-.045-.139a.037.037,0,0,0-.072.02c.01.044.02.088.029.132l-.158.023q-.184.026-.366.061c.03-.1.059-.191.09-.286l.129-.017c.225-.032.449-.068.672-.108l.139-.025a.245.245,0,0,0,0,.027.023.023,0,0,0,.041.005.4.4,0,0,0,.024-.045c.06-.012.12-.027.178-.042A2.105,2.105,0,0,0,1191.457,223.082Zm.14-.49c-.059.007-.117.016-.175.027.008-.043.016-.086.027-.126a1.205,1.205,0,0,1,.083-.227c.055-.017.109-.036.162-.055h0A3.771,3.771,0,0,1,1191.6,222.592Z" transform="translate(-1167.689 -220.622)" fill="#8c745e"/>
        <path id="Path_1060" data-name="Path 1060" d="M1167.035,225.329c-.077.2-.164.395-.256.587a3.188,3.188,0,0,0-.255.562c0,.018.02.034.033.019a2.577,2.577,0,0,0,.287-.542c.093-.2.18-.4.256-.607C1167.114,225.306,1167.05,225.289,1167.035,225.329Z" transform="translate(-1157.825 -222.024)" fill="#8c745e"/>
        <path id="Path_1061" data-name="Path 1061" d="M1167.137,226.407q-.118.264-.222.532a1.394,1.394,0,0,0-.147.539.024.024,0,0,0,.045.012,1.842,1.842,0,0,0,.185-.474c.066-.194.139-.386.216-.576C1167.232,226.4,1167.156,226.364,1167.137,226.407Z" transform="translate(-1157.932 -222.494)" fill="#8c745e"/>
        <path id="Path_1062" data-name="Path 1062" d="M1167.4,228.818c-.019.1-.043.208-.071.311a.5.5,0,0,0-.225-.069,2.532,2.532,0,0,0,.13-.428l.012-.047a.563.563,0,0,0,.2-.021.022.022,0,0,0,0-.042.522.522,0,0,0-.18-.021c.043-.172.082-.345.124-.518a.046.046,0,0,0-.089-.024c-.047.181-.092.363-.142.545l-.228,0a2.092,2.092,0,0,0,.357-1.06c.005-.043-.069-.053-.076-.01a2.976,2.976,0,0,1-.142.539c-.065.179-.163.352-.216.536a.036.036,0,0,0,.014.069l.269,0a4.73,4.73,0,0,0-.141.476.86.86,0,0,0-.138.02c-.048.011-.028.084.02.073a.721.721,0,0,1,.108-.014l0,.025c0,.03.036.033.051.014a.439.439,0,0,0,.025-.037.706.706,0,0,1,.111.017,1.178,1.178,0,0,1,.136.047c-.006.022-.012.044-.019.066-.037.121-.1.239-.133.362a.367.367,0,0,0-.107.019c-.047.015-.027.09.021.075a.387.387,0,0,1,.068-.016l0,.02c0,.02.02.039.037.021s.021-.024.03-.036l.013,0c.046.021.053.073.069.116a.016.016,0,0,0,.031,0,.161.161,0,0,0-.055-.174l-.016-.009a1.56,1.56,0,0,0,.122-.31c.012-.037.023-.075.033-.112a.02.02,0,0,0,.01-.032h0c.031-.117.056-.236.076-.356C1167.489,228.787,1167.408,228.764,1167.4,228.818Z" transform="translate(-1157.959 -222.939)" fill="#8c745e"/>
        <path id="Path_1063" data-name="Path 1063" d="M1167.759,230.985a3.365,3.365,0,0,1-.133.524c-.041.124-.094.248-.137.373a.033.033,0,0,0-.058.028.132.132,0,0,0,.03.06c-.007.023-.013.046-.018.069a.02.02,0,0,0,.036.015l.027-.043c.011,0,.025-.011.017-.021l0,0a2.99,2.99,0,0,0,.167-.406,2.949,2.949,0,0,0,.147-.574C1167.842,230.956,1167.767,230.935,1167.759,230.985Z" transform="translate(-1158.221 -224.485)" fill="#8c745e"/>
        <path id="Path_1064" data-name="Path 1064" d="M1167.714,233.179l-.04.009.034-.058c.029-.05-.052-.087-.074-.032-.014.033-.027.065-.039.1h-.065a.056.056,0,0,0,0,.111l.035,0a.4.4,0,0,0-.008.089.021.021,0,0,0,.041,0,.383.383,0,0,1,.023-.1.147.147,0,0,0,.126-.087A.027.027,0,0,0,1167.714,233.179Z" transform="translate(-1158.241 -225.406)" fill="#8c745e"/>
        <path id="Path_1065" data-name="Path 1065" d="M1168.173,234.628c-.005-.056-.09-.058-.089,0a14.581,14.581,0,0,0,.216,2.247.02.02,0,0,0,.04-.005C1168.3,236.121,1168.238,235.375,1168.173,234.628Z" transform="translate(-1158.506 -226.066)" fill="#8c745e"/>
        <path id="Path_1066" data-name="Path 1066" d="M1168.709,241.351c-.044-.213-.083-.427-.116-.642-.006-.041-.077-.032-.072.01.022.2.051.4.073.6s0,.416.042.614a.067.067,0,0,0,.129,0A1.575,1.575,0,0,0,1168.709,241.351Z" transform="translate(-1158.696 -228.722)" fill="#8c745e"/>
        <path id="Path_1067" data-name="Path 1067" d="M1164.61,223.951c-.03-.032-.089.012-.062.048.11.149.224.3.328.451s.2.332.307.493a.022.022,0,0,0,.04-.016A2.013,2.013,0,0,0,1164.61,223.951Z" transform="translate(-1156.962 -221.429)" fill="#8c745e"/>
        <path id="Path_1068" data-name="Path 1068" d="M1164.693,224.872c-.046-.037-.112.026-.066.066a1.7,1.7,0,0,1,.327.381,3.085,3.085,0,0,0,.212.368c.016.019.045,0,.046-.019C1165.22,225.367,1164.912,225.047,1164.693,224.872Z" transform="translate(-1156.993 -221.83)" fill="#8c745e"/>
        <path id="Path_1069" data-name="Path 1069" d="M1164.639,226.1a1.019,1.019,0,0,0-.382-.116c-.038-.06-.077-.119-.115-.174s-.108,0-.077.045.047.079.069.118c-.172-.009-.348,0-.508.006a.044.044,0,0,0,0,.089c.159,0,.317.01.475.021l.1.01c.071.144.13.291.189.44a1.011,1.011,0,0,0-.243-.071c-.033-.049-.069-.1-.1-.143s-.1.014-.072.056l.038.059H1164l-.506-.123a.043.043,0,0,0-.023.084,3.459,3.459,0,0,0,.5.164l.124.033c.06.124.112.252.177.375a.637.637,0,0,0-.262-.1.868.868,0,0,0-.06-.065.048.048,0,0,0-.08.046,3.021,3.021,0,0,0-.335-.008.044.044,0,0,0,0,.088,2.393,2.393,0,0,1,.415.056l.025.006a.778.778,0,0,1,.078.158,2.451,2.451,0,0,0,.079.274.027.027,0,0,0,.045,0,.445.445,0,0,0-.052-.391.537.537,0,0,0,.172.02.024.024,0,0,0,.017-.041L1164.3,227a.022.022,0,0,0,.016-.019.687.687,0,0,0-.076-.351.515.515,0,0,0,.184,0l.047.119a.016.016,0,0,0,.032,0,1.14,1.14,0,0,0-.167-.624,2.7,2.7,0,0,0,.294.026A.022.022,0,0,0,1164.639,226.1Z" transform="translate(-1156.483 -222.236)" fill="#8c745e"/>
        <path id="Path_1070" data-name="Path 1070" d="M1164.037,228.818c0-.008-.007-.016-.01-.024a.022.022,0,0,0,.006-.029,1.857,1.857,0,0,0-.228-.257.043.043,0,0,0-.072.03.954.954,0,0,0-.339-.049.047.047,0,0,0,0,.095,1.325,1.325,0,0,1,.609.259A.023.023,0,0,0,1164.037,228.818Z" transform="translate(-1156.443 -223.41)" fill="#8c745e"/>
        <path id="Path_1071" data-name="Path 1071" d="M1163.964,229.482c-.059-.15-.3-.135-.423-.1a.057.057,0,0,0,.031.109.406.406,0,0,1,.214.005.29.29,0,0,0,.159.014A.027.027,0,0,0,1163.964,229.482Z" transform="translate(-1156.509 -223.789)" fill="#8c745e"/>
        <path id="Path_1072" data-name="Path 1072" d="M1163.619,230.148a.326.326,0,0,0-.231-.066.056.056,0,0,0,0,.111.265.265,0,0,1,.134.033c.028.018.042.051.063.076.006.014.011.027.019.04a.026.026,0,0,0,.044,0A.159.159,0,0,0,1163.619,230.148Z" transform="translate(-1156.437 -224.104)" fill="#8c745e"/>
        <path id="Path_1073" data-name="Path 1073" d="M1163.263,231.479c-.029-.047-.1,0-.074.043a.428.428,0,0,1,.085.442c-.026.062.094.091.1.013A.86.86,0,0,0,1163.263,231.479Z" transform="translate(-1156.37 -224.704)" fill="#8c745e"/>
        <path id="Path_1074" data-name="Path 1074" d="M1167.207,222.509a6.068,6.068,0,0,0-1.193-.513l-.118-.043v0a.034.034,0,0,0-.06-.02q-.547-.2-1.109-.345a.033.033,0,0,0-.017.064c.379.112.75.244,1.12.383,0,.1,0,.207,0,.311-.276-.08-.554-.152-.833-.222q-.15-.193-.309-.379c-.022-.026-.057.011-.037.037.083.1.163.209.241.316l-.119-.029a.03.03,0,0,0-.016.058l.2.06.072.1a4.138,4.138,0,0,0,.27.368q-.188-.042-.379-.071h-.015c-.071-.1-.139-.207-.2-.313a.036.036,0,0,0-.062.036,6.215,6.215,0,0,0,.334.546,1.532,1.532,0,0,0,.354.407c.019.014.036-.011.028-.028a2.791,2.791,0,0,0-.327-.474l-.059-.082a5.41,5.41,0,0,1,.849.236c.1.035.192.075.287.116a1.007,1.007,0,0,0-.072.262c0,.021.028.026.037.01a1.118,1.118,0,0,0,.1-.243l.077.033a3.918,3.918,0,0,1-.155.407c-.078.17-.186.328-.253.5-.009.023.023.036.038.022a1.787,1.787,0,0,0,.445-.9,3.186,3.186,0,0,0,.392.14c.024.007.033-.024.016-.038a1.9,1.9,0,0,0-.379-.221l.02-.086a.035.035,0,0,0-.067-.018c-.007.025-.014.05-.021.075l-.075-.031h0q.058-.157.113-.315a2.078,2.078,0,0,0,.589.111.022.022,0,0,0,.011-.04,2.388,2.388,0,0,0-.552-.208v0c.014-.041-.051-.058-.064-.017v0c-.135-.036-.27-.068-.4-.106l-.013,0c0-.1,0-.2,0-.3l.041.015c.2.076.4.156.6.237a3.842,3.842,0,0,0,.656.23A.017.017,0,0,0,1167.207,222.509Zm-1.823.161a2.821,2.821,0,0,0-.311-.451c.251.078.5.162.751.24l.008,0q0,.172.013.344Q1165.618,222.728,1165.384,222.67Zm.876-.065c-.031.089-.063.178-.1.268l-.016.043c-.084-.032-.169-.062-.251-.091l-.018-.006c.007-.112.011-.224.013-.336C1166.012,222.52,1166.135,222.564,1166.26,222.6Z" transform="translate(-1157.003 -220.402)" fill="#8c745e"/>
        <path id="Path_1075" data-name="Path 1075" d="M1191.816,221.6a10.421,10.421,0,0,0-1.384.25c-.233.049-.467.094-.7.139a3,3,0,0,0-.546.132.026.026,0,0,0,.007.051,2.085,2.085,0,0,0,.534-.046c.234-.038.466-.084.7-.129a7.365,7.365,0,0,0,1.4-.356C1191.843,221.638,1191.843,221.6,1191.816,221.6Z" transform="translate(-1167.69 -220.411)" fill="#8c745e"/>
        <path id="Path_1076" data-name="Path 1076" d="M1165.523,245.33a.813.813,0,0,0-.283-.24.235.235,0,0,0,.094-.059.032.032,0,0,0-.006-.049.5.5,0,0,0-.314-.016,4.409,4.409,0,0,0-.549-.239c-.054-.019-.074.064-.023.085a4.081,4.081,0,0,1,.381.178c-.144.016-.288.034-.43.063-.058.012-.045.109.013.1.168-.019.336-.023.505-.033.042,0,.091,0,.141,0a1.632,1.632,0,0,0,.445.246A.024.024,0,0,0,1165.523,245.33Z" transform="translate(-1156.881 -230.483)" fill="#8c745e"/>
        <path id="Path_1077" data-name="Path 1077" d="M1164.887,245.8a1.748,1.748,0,0,0-.236-.125.265.265,0,0,0,.158-.183c0-.016-.007-.04-.028-.037-.12.016-.2.111-.315.145-.087-.033-.175-.065-.261-.1-.266-.1-.529-.216-.787-.339-.048-.023-.09.047-.042.072.242.125.488.241.738.349.073.032.148.065.224.1a.057.057,0,0,0,.061.059.542.542,0,0,0,.071-.007,1.868,1.868,0,0,0,.406.108C1164.9,245.841,1164.9,245.808,1164.887,245.8Z" transform="translate(-1156.445 -230.671)" fill="#8c745e"/>
        <path id="Path_1078" data-name="Path 1078" d="M1164.661,249.493a23.914,23.914,0,0,1-1.179,2.25c-.014.023.019.041.034.02a10.709,10.709,0,0,0,1.205-2.235C1164.738,249.488,1164.68,249.452,1164.661,249.493Z" transform="translate(-1156.499 -232.552)" fill="#8c745e"/>
        <path id="Path_1079" data-name="Path 1079" d="M1164.515,251.17q-.252.585-.542,1.153c-.2.394-.413.788-.586,1.194a.027.027,0,0,0,.046.027,10.927,10.927,0,0,0,1.166-2.339C1164.618,251.157,1164.535,251.122,1164.515,251.17Z" transform="translate(-1156.458 -233.281)" fill="#8c745e"/>
        <path id="Path_1080" data-name="Path 1080" d="M1172.3,252.769c-.037-.028-.078.031-.048.062a3.3,3.3,0,0,1,.673,1.083c.01.024.05.011.049-.014A1.605,1.605,0,0,0,1172.3,252.769Z" transform="translate(-1160.315 -233.985)" fill="#8c745e"/>
        <path id="Path_1081" data-name="Path 1081" d="M1173.4,253.543c-.03-.023-.061.024-.038.049a2.783,2.783,0,0,1,.441.627c.115.223.173.471.275.7.011.025.046.011.047-.012A1.763,1.763,0,0,0,1173.4,253.543Z" transform="translate(-1160.8 -234.322)" fill="#8c745e"/>
        <path id="Path_1082" data-name="Path 1082" d="M1174.872,254.663a2.114,2.114,0,0,0-.632-.638c-.052-.034-.094.045-.047.081a2.286,2.286,0,0,1,.582.663c.146.251.2.53.326.789.012.026.046.01.049-.013A1.479,1.479,0,0,0,1174.872,254.663Z" transform="translate(-1161.158 -234.531)" fill="#8c745e"/>
        <path id="Path_1083" data-name="Path 1083" d="M1191.829,254.99a.321.321,0,0,0-.034-.063c-.016-.022-.035-.043-.051-.064a.058.058,0,0,0-.082.082c.02.016.04.034.062.049l.022.016a.22.22,0,0,0,.044.02A.032.032,0,0,0,1191.829,254.99Z" transform="translate(-1168.77 -234.892)" fill="#8c745e"/>
        <path id="Path_1084" data-name="Path 1084" d="M1203.928,257.865a.041.041,0,0,0-.08.011,4.086,4.086,0,0,0,.216,1.2c.006.016.036.016.033,0C1204.045,258.665,1204,258.266,1203.928,257.865Z" transform="translate(-1174.086 -236.195)" fill="#8c745e"/>
        <path id="Path_1085" data-name="Path 1085" d="M1204.431,260.978c-.02-.046-.1-.012-.081.034a4.372,4.372,0,0,1,.234.867c.052.312.067.628.125.939a.018.018,0,0,0,.034,0A3.351,3.351,0,0,0,1204.431,260.978Z" transform="translate(-1174.303 -237.554)" fill="#8c745e"/>
        <path id="Path_1086" data-name="Path 1086" d="M1203.25,259.312c-.013-.037-.072-.023-.06.017a19.278,19.278,0,0,1,.49,2.286c0,.021.034.015.036,0A6.13,6.13,0,0,0,1203.25,259.312Z" transform="translate(-1173.798 -236.829)" fill="#8c745e"/>
        <path id="Path_1087" data-name="Path 1087" d="M1203.343,262.721a7.792,7.792,0,0,0-.26-1.048c-.014-.038-.077-.036-.074.01a7.191,7.191,0,0,0,.172.965,6.389,6.389,0,0,0,.271,1.045c.009.024.05.023.049-.007A5.915,5.915,0,0,0,1203.343,262.721Z" transform="translate(-1173.72 -237.855)" fill="#8c745e"/>
        <path id="Path_1088" data-name="Path 1088" d="M1203.031,263.447a5.352,5.352,0,0,0-.376-1.1c-.016-.034-.072-.01-.06.025a8.556,8.556,0,0,1,.283,1.064,10.57,10.57,0,0,0,.2,1.128c.007.024.047.028.052,0A2.992,2.992,0,0,0,1203.031,263.447Z" transform="translate(-1173.54 -238.152)" fill="#8c745e"/>
        <path id="Path_1089" data-name="Path 1089" d="M1202.172,265.641a4.245,4.245,0,0,0-.187-.763c-.019-.055-.105-.032-.088.024a4.412,4.412,0,0,1,.154.669c.035.235.017.474.063.707,0,.02.029.015.036,0A1.212,1.212,0,0,0,1202.172,265.641Z" transform="translate(-1173.235 -239.249)" fill="#8c745e"/>
        <path id="Path_1090" data-name="Path 1090" d="M1201.548,265.97a.051.051,0,0,0-.1.027,1.774,1.774,0,0,1-.021.887.024.024,0,0,0,.04.023C1201.707,266.685,1201.641,266.248,1201.548,265.97Z" transform="translate(-1173.031 -239.723)" fill="#8c745e"/>
        <path id="Path_1091" data-name="Path 1091" d="M1201.085,266.65c-.013-.06-.1-.033-.09.025a1.918,1.918,0,0,1-.072.65.022.022,0,0,0,.037.021C1201.155,267.189,1201.133,266.872,1201.085,266.65Z" transform="translate(-1172.812 -240.02)" fill="#8c745e"/>
        <path id="Path_1092" data-name="Path 1092" d="M1200.329,267.424a1.464,1.464,0,0,1-.162.609.021.021,0,0,0,.033.026.889.889,0,0,0,.222-.635A.047.047,0,0,0,1200.329,267.424Z" transform="translate(-1172.481 -240.352)" fill="#8c745e"/>
        <path id="Path_1093" data-name="Path 1093" d="M1199.422,268.347a.837.837,0,0,1-.256.336c-.012.01,0,.028.016.021a.676.676,0,0,0,.207-.139.591.591,0,0,0,.113-.195C1199.521,268.32,1199.44,268.3,1199.422,268.347Z" transform="translate(-1172.045 -240.762)" fill="#8c745e"/>
        <path id="Path_1094" data-name="Path 1094" d="M1203.164,277.039a4.913,4.913,0,0,0-.929.771,3.3,3.3,0,0,0-.591.81l-.029-.006c-.037-.007-.054.05-.016.058l.02,0a1.365,1.365,0,0,0-.051.147c-.01.037.04.07.067.039.042-.049.08-.1.118-.152a6.406,6.406,0,0,1,1.231.516c.012.006.027-.01.016-.02a2.925,2.925,0,0,0-1.207-.555c.057-.083.111-.17.168-.252a5.346,5.346,0,0,1,.378-.486,6.5,6.5,0,0,1,.867-.821C1203.237,277.069,1203.2,277.018,1203.164,277.039Z" transform="translate(-1173.092 -244.558)" fill="#8c745e"/>
        <path id="Path_1095" data-name="Path 1095" d="M1201.884,277.368a4,4,0,0,0-.757.83,4.648,4.648,0,0,0-.3.489,1.289,1.289,0,0,0-.2.526.042.042,0,0,0,.071.029,1.789,1.789,0,0,0,.241-.432,5.555,5.555,0,0,1,.288-.495,5.956,5.956,0,0,1,.714-.883C1201.99,277.389,1201.929,277.332,1201.884,277.368Z" transform="translate(-1172.686 -244.699)" fill="#8c745e"/>
        <path id="Path_1096" data-name="Path 1096" d="M1200.567,277.959a9.084,9.084,0,0,0-.633.794,2.639,2.639,0,0,0-.46.9.03.03,0,0,0,.054.023c.2-.265.348-.571.532-.849s.378-.547.579-.813C1200.67,277.972,1200.6,277.92,1200.567,277.959Z" transform="translate(-1172.18 -244.955)" fill="#8c745e"/>
        <path id="Path_1097" data-name="Path 1097" d="M1203.2,281.326c-.046-.2-.263-.344-.419-.453a1.924,1.924,0,0,0-.736-.3c-.049-.01-.071.064-.021.076a2.032,2.032,0,0,1,.664.291,2,2,0,0,1,.262.21,1.281,1.281,0,0,0,.219.2A.021.021,0,0,0,1203.2,281.326Z" transform="translate(-1173.277 -246.102)" fill="#8c745e"/>
        <path id="Path_1098" data-name="Path 1098" d="M1203.368,282.315a.693.693,0,0,0-.311-.33,1.731,1.731,0,0,0-.51-.231.044.044,0,0,0-.023.084,1.808,1.808,0,0,1,.445.211c.131.086.228.219.366.291A.023.023,0,0,0,1203.368,282.315Z" transform="translate(-1173.496 -246.614)" fill="#8c745e"/>
        <path id="Path_1099" data-name="Path 1099" d="M1201.841,285a.038.038,0,0,0-.073.01,2.37,2.37,0,0,1-.105.612,1.963,1.963,0,0,1-.4.562c-.016.019,0,.054.026.045A1.039,1.039,0,0,0,1201.841,285Z" transform="translate(-1172.956 -248.018)" fill="#8c745e"/>
        <path id="Path_1100" data-name="Path 1100" d="M1191.151,284.514c-.049-.115-.2-.161-.308-.2a1.894,1.894,0,0,0-.484-.112c-.053-.007-.064.081-.012.093a2.594,2.594,0,0,1,.442.15c.1.045.218.136.334.124A.033.033,0,0,0,1191.151,284.514Z" transform="translate(-1168.19 -247.679)" fill="#8c745e"/>
        <path id="Path_1101" data-name="Path 1101" d="M1192.577,284.334c-.033-.019-.069-.031-.1-.05a.274.274,0,0,0-.084-.038.07.07,0,1,0-.019.137.233.233,0,0,1,.076.013.181.181,0,0,0,.13-.009A.03.03,0,0,0,1192.577,284.334Z" transform="translate(-1169.056 -247.699)" fill="#8c745e"/>
        <path id="Path_1102" data-name="Path 1102" d="M1194.223,284.338c-.3-.066-.614-.039-.914-.078-.067-.008-.081.1-.016.117a2.4,2.4,0,0,0,.93.019A.03.03,0,0,0,1194.223,284.338Z" transform="translate(-1169.469 -247.706)" fill="#8c745e"/>
        <path id="Path_1103" data-name="Path 1103" d="M1162.3,279.058a.038.038,0,0,0,0,.075A.038.038,0,0,0,1162.3,279.058Z" transform="translate(-1155.971 -245.44)" fill="#8c745e"/>
        <path id="Path_1104" data-name="Path 1104" d="M1159.02,279.293c-.06-.031-.112.058-.053.09a.554.554,0,0,1,.213.209,1.573,1.573,0,0,0,.125.246.033.033,0,0,0,.054-.014C1159.4,279.615,1159.189,279.381,1159.02,279.293Z" transform="translate(-1154.523 -245.54)" fill="#8c745e"/>
        <path id="Path_1105" data-name="Path 1105" d="M1155.68,279.668c-.235.338-.488.663-.742.986s-.541.633-.782.971c-.026.036.027.068.056.043a6.265,6.265,0,0,0,.857-.957,9.851,9.851,0,0,0,.677-1.005C1155.773,279.664,1155.708,279.628,1155.68,279.668Z" transform="translate(-1152.435 -245.698)" fill="#8c745e"/>
        <path id="Path_1106" data-name="Path 1106" d="M1155.119,279.593q-.322.488-.655.966a9.073,9.073,0,0,0-.63.945c-.014.027.022.057.043.033a7.667,7.667,0,0,0,.632-.888q.338-.508.663-1.024C1155.193,279.59,1155.14,279.56,1155.119,279.593Z" transform="translate(-1152.296 -245.667)" fill="#8c745e"/>
        <path id="Path_1107" data-name="Path 1107" d="M1155.07,278.966q-.207.378-.4.762a4.7,4.7,0,0,0-.344.785.035.035,0,0,0,.064.027,7.544,7.544,0,0,0,.387-.749c.128-.258.261-.512.4-.765C1155.206,278.958,1155.107,278.9,1155.07,278.966Z" transform="translate(-1152.51 -245.388)" fill="#8c745e"/>
        <path id="Path_1108" data-name="Path 1108" d="M1156.047,284.258c-.159-.188-.364-.333-.387-.6a.831.831,0,0,1,.176-.529,2.319,2.319,0,0,0-.009.505,1.026,1.026,0,0,0,.175.572.03.03,0,0,0,.051-.021,3.88,3.88,0,0,0-.1-.55,2.059,2.059,0,0,1,.031-.674.058.058,0,0,0,0-.019l.016-.018a.039.039,0,0,0-.055-.056l-.017.016a.052.052,0,0,0-.062.043l-.005.025a1.01,1.01,0,0,0-.347.705.756.756,0,0,0,.5.653C1156.048,284.324,1156.066,284.282,1156.047,284.258Z" transform="translate(-1153.031 -247.096)" fill="#8c745e"/>
        <path id="Path_1109" data-name="Path 1109" d="M1156.9,284.2a1.994,1.994,0,0,1-.056-.363,2.281,2.281,0,0,1,.091-.767.058.058,0,0,0-.112-.031,2.529,2.529,0,0,0-.109.8,1.03,1.03,0,0,0,.187.674.036.036,0,0,0,.061-.025A1.184,1.184,0,0,0,1156.9,284.2Z" transform="translate(-1153.551 -247.156)" fill="#8c745e"/>
        <path id="Path_1110" data-name="Path 1110" d="M1157.36,284.033a2.557,2.557,0,0,1,.037-.712c.015-.076-.1-.109-.117-.032a2.769,2.769,0,0,0-.055.69,1.719,1.719,0,0,0,.134.725c.016.029.055.012.057-.015A3.642,3.642,0,0,0,1157.36,284.033Z" transform="translate(-1153.774 -247.264)" fill="#8c745e"/>
        <path id="Path_1111" data-name="Path 1111" d="M1158.233,284.972c-.023-.192-.088-.377-.119-.568a2.765,2.765,0,0,1-.014-.672c.007-.074-.107-.072-.115,0a3.056,3.056,0,0,0,0,.69,1.3,1.3,0,0,0,.164.574C1158.169,285.031,1158.239,285.022,1158.233,284.972Z" transform="translate(-1154.097 -247.452)" fill="#8c745e"/>
        <path id="Path_1112" data-name="Path 1112" d="M1158.758,285.136a3.432,3.432,0,0,1-.048-.563.062.062,0,0,0-.124,0,3.676,3.676,0,0,0,.033.492,1.228,1.228,0,0,0,.147.525.03.03,0,0,0,.055-.015A2.057,2.057,0,0,0,1158.758,285.136Z" transform="translate(-1154.368 -247.816)" fill="#8c745e"/>
        <path id="Path_1113" data-name="Path 1113" d="M1159.384,285.234a.059.059,0,0,0-.115.032,1.693,1.693,0,0,0,.174.524.03.03,0,0,0,.056-.015A2.921,2.921,0,0,0,1159.384,285.234Z" transform="translate(-1154.665 -248.113)" fill="#8c745e"/>
        <path id="Path_1114" data-name="Path 1114" d="M1160.17,285.944a.064.064,0,0,0,0,.127A.064.064,0,0,0,1160.17,285.944Z" transform="translate(-1155.031 -248.44)" fill="#8c745e"/>
        <path id="Path_1115" data-name="Path 1115" d="M1161.915,286.911a1.132,1.132,0,0,0-.629-.367h-.016a.054.054,0,0,0-.043.017.056.056,0,0,0-.016.05.051.051,0,0,0,.032.047c.034.025.082.054.091.1s.06.025.064-.008a.126.126,0,0,0,0-.037c.169.073.31.191.485.261C1161.917,286.984,1161.934,286.935,1161.915,286.911Z" transform="translate(-1155.511 -248.701)" fill="#8c745e"/>
        <path id="Path_1116" data-name="Path 1116" d="M1157.334,291.315c-.352-.1-.729-.147-1.087-.231l-.236-.057a.036.036,0,0,0,.008-.04,2.62,2.62,0,0,0-.306-.418c-.1-.132-.2-.266-.293-.4-.039-.058-.134,0-.095.055.1.142.194.283.3.418a2.185,2.185,0,0,0,.33.375q-.26-.064-.517-.135a2.474,2.474,0,0,0-.417-.55c-.177-.213-.349-.43-.52-.649-.035-.045-.113.015-.079.061.152.21.306.418.464.624a3.309,3.309,0,0,0,.376.463l-.1-.029-.4-.119a3.552,3.552,0,0,0-.355-.581c-.166-.243-.343-.477-.525-.708-.038-.047-.121.016-.084.064.175.23.343.465.5.706.1.15.185.312.284.464l-.4-.122c-.128-.159-.283-.3-.4-.464a3.219,3.219,0,0,1-.415-.768c-.025-.065-.13-.038-.105.029a3.5,3.5,0,0,0,.387.761,3.352,3.352,0,0,0,.268.359l-.344-.1c-.121-.188-.272-.356-.406-.534s-.268-.371-.391-.564c-.027-.042-.095,0-.068.04.121.194.249.383.384.568a3.88,3.88,0,0,0,.366.456c-.155-.046-.31-.091-.466-.133a.045.045,0,0,0-.024.086c.4.13.791.267,1.187.4a.725.725,0,0,0,.1.057.03.03,0,0,0,.039-.011c.145.049.29.1.436.143.015.018.031.036.047.052a.025.025,0,0,0,.042-.024l.3.091c.358.108.72.211,1.087.287a3.991,3.991,0,0,0,1.122.128A.023.023,0,0,0,1157.334,291.315Z" transform="translate(-1151.807 -249.859)" fill="#8c745e"/>
        <path id="Path_1117" data-name="Path 1117" d="M1166.243,294.464a1.056,1.056,0,0,0-.442-.168c-.182-.047-.366-.089-.55-.132-.365-.086-.722-.2-1.081-.3-.72-.213-1.459-.333-2.19-.5-.032-.007-.046.041-.013.049.726.178,1.434.426,2.163.594.365.084.729.168,1.088.275.181.054.36.111.542.16a1.05,1.05,0,0,0,.468.076A.034.034,0,0,0,1166.243,294.464Z" transform="translate(-1155.833 -251.673)" fill="#8c745e"/>
        <path id="Path_1118" data-name="Path 1118" d="M1180.582,296.648c-.688-.095-1.381-.141-2.073-.2-.726-.064-1.45-.133-2.178-.156-.059,0-.056.084,0,.089.708.073,1.415.15,2.123.218a12.773,12.773,0,0,0,2.123.093C1180.6,296.688,1180.606,296.652,1180.582,296.648Z" transform="translate(-1162.079 -252.947)" fill="#8c745e"/>
        <path id="Path_1119" data-name="Path 1119" d="M1189.036,295.5c-.408.075-.821.119-1.229.2s-.84.167-1.261.249c-.055.011-.03.091.023.082.407-.064.814-.12,1.22-.192a12.6,12.6,0,0,0,1.252-.315C1189.057,295.522,1189.051,295.5,1189.036,295.5Z" transform="translate(-1166.535 -252.605)" fill="#8c745e"/>
        <path id="Path_1120" data-name="Path 1120" d="M1197.623,293.046c-.342.123-.678.261-1.023.376a8.962,8.962,0,0,1-1.1.283c-.748.146-1.5.274-2.259.362-.054.006-.056.09,0,.086a12.419,12.419,0,0,0,2.238-.328,9.849,9.849,0,0,0,2.159-.752C1197.649,293.066,1197.639,293.041,1197.623,293.046Z" transform="translate(-1169.446 -251.534)" fill="#8c745e"/>
        <path id="Path_1121" data-name="Path 1121" d="M1200.456,288.289a8.524,8.524,0,0,1-.343,1.335q-.182.155-.375.293a3.661,3.661,0,0,0,.2-.867L1200,289c.041-.03,0-.1-.041-.07l-.007.005c.009-.108.014-.215.016-.321.044-.033.089-.067.132-.1s-.01-.077-.043-.055l-.088.056c0-.024,0-.049,0-.073a.037.037,0,0,0-.073,0c0,.041,0,.083-.006.124a13.29,13.29,0,0,1-1.589.862c-.019.008-.005.039.014.033a5.779,5.779,0,0,0,1.567-.782c-.009.112-.021.222-.038.333-.143.1-.286.2-.432.293,0-.06-.093-.084-.1-.019-.005.032-.011.064-.016.1q-.211.137-.427.269-.291.179-.589.348c-.2.113-.407.21-.594.339-.013.009,0,.032.011.027a5.182,5.182,0,0,0,1.182-.591c.131-.08.26-.163.388-.247a4.119,4.119,0,0,1-.2.675c-.023.057-.048.112-.075.167q-.231.118-.472.217a2.2,2.2,0,0,0,.237-.6c.018-.079-.1-.112-.121-.033a2.176,2.176,0,0,1-.252.608c-.022.037-.046.073-.071.108q-.259.1-.525.179a.053.053,0,0,0-.084-.011l-.05.05-.06.018a.019.019,0,0,0,0,.038,3.441,3.441,0,0,0-.3.3.028.028,0,0,0,.04.04c.149-.121.307-.232.448-.362.141-.025.281-.059.418-.1-.077.094-.159.185-.234.281-.012.015,0,.046.021.037a.977.977,0,0,0,.429-.386,4.675,4.675,0,0,0,.476-.193c-.1.182-.215.359-.31.547a.021.021,0,0,0,.033.026,1.836,1.836,0,0,0,.475-.671q.179-.095.352-.2c-.09.175-.188.345-.284.517a.018.018,0,0,0,.028.022,2.247,2.247,0,0,0,.48-.689q.2-.145.392-.309c-.156.415-.354.809-.523,1.218-.008.019.022.036.034.02a4.394,4.394,0,0,0,.625-1.231,7.432,7.432,0,0,0,.361-1.49C1200.557,288.255,1200.466,288.228,1200.456,288.289Zm-.921,1.765c-.122.079-.247.154-.375.224a4.141,4.141,0,0,0,.229-.835c.146-.1.289-.2.431-.306a4.395,4.395,0,0,1-.125.511A3.465,3.465,0,0,1,1199.535,290.054Z" transform="translate(-1171.224 -249.446)" fill="#8c745e"/>
        <path id="Path_1122" data-name="Path 1122" d="M1185.06,266.924c-1.352,1.09-2.671,2.221-4.023,3.312q-1.009.814-2.029,1.612l-.994.781c-.344.269-.706.524-1.028.819a.036.036,0,0,0,.044.056c.351-.227.676-.5,1.007-.757s.674-.521,1.01-.784q1.019-.8,2.03-1.61c1.364-1.1,2.737-2.2,4.011-3.4C1185.106,266.934,1185.079,266.909,1185.06,266.924Z" transform="translate(-1162.379 -240.152)" fill="#8c745e"/>
        <path id="Path_1123" data-name="Path 1123" d="M1198.624,252.27c-.177.225-.339.462-.519.685s-.385.466-.577.7c-.03.036.019.087.052.052.208-.218.4-.448.592-.684a5.66,5.66,0,0,0,.512-.706C1198.7,252.28,1198.651,252.235,1198.624,252.27Z" transform="translate(-1171.328 -233.765)" fill="#8c745e"/>
        <path id="Path_1124" data-name="Path 1124" d="M1196.631,264.96a.027.027,0,0,0,0,.054A.027.027,0,0,0,1196.631,264.96Z" transform="translate(-1170.931 -239.298)" fill="#8c745e"/>
        <path id="Path_1125" data-name="Path 1125" d="M1194.806,266.6v-.548a.067.067,0,0,0-.133,0v.495a1.808,1.808,0,0,0,.033.468.036.036,0,0,0,.068,0A1.627,1.627,0,0,0,1194.806,266.6Z" transform="translate(-1170.088 -239.748)" fill="#8c745e"/>
        <path id="Path_1126" data-name="Path 1126" d="M1186.744,266.487a5.306,5.306,0,0,0-.611.484l-.635.528c-.423.352-.843.707-1.264,1.062-.853.719-1.712,1.439-2.51,2.219-.03.029.014.072.045.045.839-.711,1.666-1.436,2.506-2.145q.63-.532,1.263-1.063c.21-.177.418-.357.627-.536a5.2,5.2,0,0,0,.608-.555C1186.793,266.506,1186.77,266.472,1186.744,266.487Z" transform="translate(-1164.444 -239.962)" fill="#8c745e"/>
        <path id="Path_1127" data-name="Path 1127" d="M1187.79,265.991c-.413.318-.789.685-1.174,1.036s-.792.729-1.182,1.1c-.036.034.018.088.055.055.383-.352.77-.7,1.156-1.047a14.28,14.28,0,0,0,1.167-1.113C1187.826,266.005,1187.808,265.977,1187.79,265.991Z" transform="translate(-1166.059 -239.746)" fill="#8c745e"/>
        <path id="Path_1128" data-name="Path 1128" d="M1187.995,265.733c-.292.265-.567.548-.869.8-.037.031.016.084.053.053a8.7,8.7,0,0,0,.849-.82A.024.024,0,0,0,1187.995,265.733Z" transform="translate(-1166.796 -239.632)" fill="#8c745e"/>
        <path id="Path_1129" data-name="Path 1129" d="M1188.687,264.791c-.106.046-.192.125-.295.177-.053.027-.006.109.046.08.1-.056.18-.143.278-.2A.03.03,0,0,0,1188.687,264.791Z" transform="translate(-1167.343 -239.223)" fill="#8c745e"/>
        <path id="Path_1130" data-name="Path 1130" d="M1195.163,274.142a2.808,2.808,0,0,0-.166-.406,3.181,3.181,0,0,0-.546-.771c-.044-.047-.109.021-.069.069a3.832,3.832,0,0,1,.473.731,2.961,2.961,0,0,1,.165.417,1.388,1.388,0,0,0,.122.366.043.043,0,0,0,.078-.011A.753.753,0,0,0,1195.163,274.142Z" transform="translate(-1169.957 -242.779)" fill="#8c745e"/>
        <path id="Path_1131" data-name="Path 1131" d="M1195.865,273.93a1.749,1.749,0,0,0-.487-.628c-.05-.042-.122.027-.073.073a1.825,1.825,0,0,1,.427.611c.089.212.094.456.2.657a.034.034,0,0,0,.062-.008A1.106,1.106,0,0,0,1195.865,273.93Z" transform="translate(-1170.357 -242.927)" fill="#8c745e"/>
        <path id="Path_1132" data-name="Path 1132" d="M1197.6,274.253a4.539,4.539,0,0,1-.174-.53.074.074,0,0,0-.143.039,1.911,1.911,0,0,0,.214.533C1197.529,274.349,1197.623,274.314,1197.6,274.253Z" transform="translate(-1171.225 -243.093)" fill="#8c745e"/>
        <path id="Path_1133" data-name="Path 1133" d="M1198.261,273.749a1.884,1.884,0,0,0-.054-.393.02.02,0,0,0-.033-.009c-.1.089-.075.26-.062.381a.733.733,0,0,0,.152.416.027.027,0,0,0,.046-.019A2.279,2.279,0,0,0,1198.261,273.749Z" transform="translate(-1171.581 -242.95)" fill="#8c745e"/>
        <path id="Path_1134" data-name="Path 1134" d="M1198.677,273.228a.043.043,0,0,0-.061.061.937.937,0,0,1,.206.48.063.063,0,0,0,.045.045.055.055,0,0,0,.035,0,.066.066,0,0,0,.047-.063A.735.735,0,0,0,1198.677,273.228Z" transform="translate(-1171.802 -242.895)" fill="#8c745e"/>
        <path id="Path_1135" data-name="Path 1135" d="M1200.042,273.309a.878.878,0,0,0-.351-.094.054.054,0,0,0-.089.051.641.641,0,0,0,.114.287.125.125,0,0,0,.1.044c.017,0,.042-.009.05-.027-.007.016,0,.007.011,0a.12.12,0,0,0,.025-.017c.016-.013,0-.035-.015-.037l-.031,0c-.023-.025-.062-.041-.081-.07a.522.522,0,0,1-.061-.15.464.464,0,0,1,.261.093c.062.051.108.17.189.183a.034.034,0,0,0,.038-.015C1200.253,273.455,1200.122,273.349,1200.042,273.309Z" transform="translate(-1172.236 -242.888)" fill="#8c745e"/>
        <path id="Path_1136" data-name="Path 1136" d="M1190.5,241.221c-.087.26-.173.521-.265.779a8.082,8.082,0,0,0-.3.845.021.021,0,0,0,.039.016,2.994,2.994,0,0,0,.351-.781,7.66,7.66,0,0,0,.235-.843A.033.033,0,0,0,1190.5,241.221Z" transform="translate(-1168.025 -228.947)" fill="#8c745e"/>
        <path id="Path_1137" data-name="Path 1137" d="M1190.847,242.489a3.013,3.013,0,0,1-.113.768c-.073.26-.2.5-.292.753a.022.022,0,0,0,.036.021,2.424,2.424,0,0,0,.459-1.542A.045.045,0,0,0,1190.847,242.489Z" transform="translate(-1168.245 -229.49)" fill="#8c745e"/>
        <path id="Path_1138" data-name="Path 1138" d="M1190.982,243.66c-.051.287-.111.573-.185.855-.08.308-.207.6-.27.916a.021.021,0,0,0,.039.016,2.825,2.825,0,0,0,.317-.854c.077-.3.135-.6.184-.91C1191.077,243.628,1190.993,243.6,1190.982,243.66Z" transform="translate(-1168.283 -230.005)" fill="#8c745e"/>
        <path id="Path_1139" data-name="Path 1139" d="M1191.26,245q-.077.361-.185.714c-.037.12-.077.239-.12.357a.923.923,0,0,0-.1.374.025.025,0,0,0,.043.018.609.609,0,0,0,.141-.257c.052-.134.093-.273.134-.41.076-.253.137-.51.188-.769C1191.375,244.966,1191.274,244.937,1191.26,245Z" transform="translate(-1168.426 -230.588)" fill="#8c745e"/>
        <path id="Path_1140" data-name="Path 1140" d="M1191.466,246.122a4,4,0,0,1-.16.694,3.6,3.6,0,0,0-.2.594c0,.028.034.038.051.021a1.41,1.41,0,0,0,.265-.585,3.908,3.908,0,0,0,.143-.725C1191.569,246.06,1191.474,246.062,1191.466,246.122Z" transform="translate(-1168.533 -231.072)" fill="#8c745e"/>
        <path id="Path_1141" data-name="Path 1141" d="M1191.58,247.382c-.076.222-.15.445-.227.666a4.186,4.186,0,0,0-.222.677c0,.012.015.027.025.014a2.052,2.052,0,0,0,.278-.616c.08-.238.153-.479.23-.718C1191.68,247.352,1191.6,247.33,1191.58,247.382Z" transform="translate(-1168.546 -231.628)" fill="#8c745e"/>
        <path id="Path_1142" data-name="Path 1142" d="M1191.791,248.138a8.423,8.423,0,0,1-.495,1.3c-.007.016.018.029.028.016a2.958,2.958,0,0,0,.559-1.287C1191.9,248.1,1191.805,248.078,1191.791,248.138Z" transform="translate(-1168.617 -231.955)" fill="#8c745e"/>
        <path id="Path_1143" data-name="Path 1143" d="M1192.188,249.247a2.59,2.59,0,0,0-.222.869.02.02,0,0,0,.038.005,3.743,3.743,0,0,0,.119-.424c.041-.144.09-.287.137-.429C1192.276,249.221,1192.2,249.2,1192.188,249.247Z" transform="translate(-1168.909 -232.442)" fill="#8c745e"/>
        <path id="Path_1144" data-name="Path 1144" d="M1192.763,249.913a2.545,2.545,0,0,1-.221.521c-.016.03.027.067.05.038a1.444,1.444,0,0,0,.261-.534A.047.047,0,0,0,1192.763,249.913Z" transform="translate(-1169.159 -232.729)" fill="#8c745e"/>
      </g>
      <g id="Group_590" data-name="Group 590" transform="translate(1164.534 244.045)">
        <circle id="Ellipse_70" data-name="Ellipse 70" cx="13.545" cy="13.545" r="13.545" transform="translate(0)" fill="#e8e4d9"/>
        <g id="Group_589" data-name="Group 589" transform="translate(4.28 2.778)">
          <g id="Group_588" data-name="Group 588">
            <path id="Path_1145" data-name="Path 1145" d="M1200.136,271.853a34.55,34.55,0,0,1-3.308,5.118c-1.271,1.643-2.759,3.042-4.172,4.555a22.086,22.086,0,0,0-3.2,4.392,22.881,22.881,0,0,0-1.174,2.47,10.293,10.293,0,0,0-.814,2.589.038.038,0,0,0,.071.019c.408-.875.637-1.845,1.019-2.737a22.734,22.734,0,0,1,1.213-2.42,23.41,23.41,0,0,1,3.541-4.673,43.242,43.242,0,0,0,3.825-4.272,30.418,30.418,0,0,0,3.01-5.037C1200.148,271.852,1200.139,271.847,1200.136,271.853Z" transform="translate(-1184.651 -269.634)" fill="#8c745e"/>
            <path id="Path_1146" data-name="Path 1146" d="M1199.46,272.751a35.826,35.826,0,0,1-3.782,4.951c-1.357,1.526-2.905,2.84-4.212,4.416-2.173,2.62-4.622,5.718-4.9,9.25a.1.1,0,0,0,.186.025,15.618,15.618,0,0,1,1.925-5.15,33.427,33.427,0,0,1,3.48-4.679c1.27-1.471,2.781-2.7,4.031-4.193a27.887,27.887,0,0,0,3.278-4.616S1199.463,272.747,1199.46,272.751Z" transform="translate(-1184.259 -270.026)" fill="#8c745e"/>
            <path id="Path_1147" data-name="Path 1147" d="M1187.752,304.907a.007.007,0,1,0,0,.014A.007.007,0,0,0,1187.752,304.907Z" transform="translate(-1184.772 -284.035)" fill="#8c745e"/>
            <path id="Path_1148" data-name="Path 1148" d="M1187.127,305.644a1.224,1.224,0,0,0-.387-.091.217.217,0,0,0-.025-.093.065.065,0,0,0-.111,0,.809.809,0,0,0-.048.167c-.026.069.039.121.1.128.143.019.29.016.432.039A.078.078,0,0,0,1187.127,305.644Z" transform="translate(-1184.252 -284.262)" fill="#8c745e"/>
            <path id="Path_1149" data-name="Path 1149" d="M1187.676,304.354a.8.8,0,0,0-.2.355,1.692,1.692,0,0,0-.112.458.1.1,0,0,0,.049.086c.017.01.033.023.053.017l.024-.007a.1.1,0,0,0,.069-.07c.031-.145.055-.292.086-.438a1.366,1.366,0,0,0,.079-.381A.03.03,0,0,0,1187.676,304.354Z" transform="translate(-1184.607 -283.79)" fill="#8c745e"/>
            <path id="Path_1150" data-name="Path 1150" d="M1203.491,275.3c-.289-1.152-.638-2.289-.94-3.438a8.351,8.351,0,0,1-.395-3.749h0a1.948,1.948,0,0,1,.033-.195c-.033.027-.066.053-.1.077a5.18,5.18,0,0,0,.015,2.975c.268,1.284.654,2.537.99,3.8a12.763,12.763,0,0,1-.052,8.1c-1.024,2.713-3.689,3.726-6.43,3.563a34.227,34.227,0,0,1-4.183-.751,4.621,4.621,0,0,0-2.912.2,1.389,1.389,0,0,1-.1.2.075.075,0,0,0,.081.016c2.037-.806,4.28.284,6.338.534a8,8,0,0,0,5.343-.958,6.663,6.663,0,0,0,2.613-4.4A12.694,12.694,0,0,0,1203.491,275.3Z" transform="translate(-1185.502 -267.923)" fill="#8c745e"/>
            <path id="Path_1151" data-name="Path 1151" d="M1199.052,268.01a15.851,15.851,0,0,1-5.471,3c-1.913.617-3.906.99-5.772,1.755-3.038,1.245-5.761,3.845-5.275,7.408a4.221,4.221,0,0,0,1.167,2.347c.824.915,1.978,2.188,1.941,3.5a.051.051,0,0,0,.1.014c.222-1.042-.566-2.064-1.16-2.849-.369-.489-.825-.914-1.176-1.415a3.8,3.8,0,0,1-.632-1.838,6.506,6.506,0,0,1,3.47-6.1c2.121-1.278,4.574-1.759,6.914-2.474a15.6,15.6,0,0,0,5.981-3.279c.006-.05.015-.1.025-.147A1.269,1.269,0,0,1,1199.052,268.01Z" transform="translate(-1182.478 -267.924)" fill="#8c745e"/>
          </g>
          <path id="Path_1152" data-name="Path 1152" d="M1197.108,288.672a1.888,1.888,0,0,1-.5.227.007.007,0,0,0,0,.013,1.913,1.913,0,0,0,.505-.229C1197.122,288.68,1197.115,288.668,1197.108,288.672Z" transform="translate(-1188.631 -276.962)" fill="#8c745e"/>
          <path id="Path_1153" data-name="Path 1153" d="M1197.851,288.084v.025a.007.007,0,0,0,.014,0v-.025A.007.007,0,0,0,1197.851,288.084Z" transform="translate(-1189.175 -276.703)" fill="#8c745e"/>
          <path id="Path_1154" data-name="Path 1154" d="M1197.711,288.141a.471.471,0,0,0-.068.2c0,.008.012.008.014,0a.448.448,0,0,1,.066-.19A.007.007,0,0,0,1197.711,288.141Z" transform="translate(-1189.084 -276.729)" fill="#8c745e"/>
          <path id="Path_1155" data-name="Path 1155" d="M1187.811,303.051a.007.007,0,0,0,0,.014A.007.007,0,0,0,1187.811,303.051Z" transform="translate(-1184.798 -283.226)" fill="#8c745e"/>
          <path id="Path_1156" data-name="Path 1156" d="M1189.842,295.477a11.086,11.086,0,0,0-2.054,4.275.04.04,0,0,0,.077.021,21.607,21.607,0,0,1,.939-2.288c.33-.676.746-1.308,1.068-1.985C1189.88,295.482,1189.857,295.46,1189.842,295.477Z" transform="translate(-1184.79 -279.924)" fill="#8c745e"/>
          <path id="Path_1157" data-name="Path 1157" d="M1199.216,282.985a24.248,24.248,0,0,0-1.774,1.821c-.582.616-1.183,1.22-1.717,1.878-.005.007,0,.015.01.01.662-.6,1.26-1.265,1.874-1.911a23.265,23.265,0,0,0,1.635-1.777C1199.255,282.989,1199.23,282.973,1199.216,282.985Z" transform="translate(-1188.248 -274.483)" fill="#8c745e"/>
          <path id="Path_1158" data-name="Path 1158" d="M1203.345,296.048a4.216,4.216,0,0,1-3.32.713,15.6,15.6,0,0,1-3.236-1.073c-1.647-.646-3.795-1.248-5.348-.044-.056.044.015.128.074.1,2.316-1.273,4.587-.065,6.828.733,1.454.517,3.869,1.019,5.058-.352A.046.046,0,0,0,1203.345,296.048Z" transform="translate(-1186.373 -279.698)" fill="#8c745e"/>
          <path id="Path_1159" data-name="Path 1159" d="M1205.927,290.639a5.8,5.8,0,0,1-3.117,1.011,7.748,7.748,0,0,1-3.263-.9,4.894,4.894,0,0,0-5.093.243c-.063.049-.009.152.065.111a4.971,4.971,0,0,1,3.526-.681,25.679,25.679,0,0,1,2.948,1.116,5.43,5.43,0,0,0,5-.779C1206.061,290.7,1206,290.591,1205.927,290.639Z" transform="translate(-1187.683 -277.607)" fill="#8c745e"/>
          <path id="Path_1160" data-name="Path 1160" d="M1208.054,285.572c-1.524,1.431-3.218.991-5.05.463-1.131-.326-2.979-.795-3.937.183a.008.008,0,0,0,.008.014,6.619,6.619,0,0,1,1.374-.383,5.274,5.274,0,0,1,1.467.105c.952.186,1.858.556,2.814.723,1.121.2,2.783.094,3.37-1.07A.03.03,0,0,0,1208.054,285.572Z" transform="translate(-1189.704 -275.608)" fill="#8c745e"/>
          <path id="Path_1161" data-name="Path 1161" d="M1209.227,281.143c-1.068,1.026-2.377.795-3.7.574a3.569,3.569,0,0,0-2.729.225c-.008.007,0,.02.007.017a6.205,6.205,0,0,1,1.981-.2c.7.075,1.382.265,2.085.317a2.724,2.724,0,0,0,2.445-.844C1209.362,281.17,1209.287,281.086,1209.227,281.143Z" transform="translate(-1191.328 -273.674)" fill="#8c745e"/>
          <path id="Path_1162" data-name="Path 1162" d="M1209.366,275.745c-.847,1.828-3.232.819-4.355,2.207-.006.008,0,.021.011.015a15.092,15.092,0,0,1,3.084-.955,2.073,2.073,0,0,0,1.356-1.225C1209.483,275.73,1209.391,275.69,1209.366,275.745Z" transform="translate(-1192.293 -271.319)" fill="#8c745e"/>
          <path id="Path_1163" data-name="Path 1163" d="M1210.006,272.189a1.639,1.639,0,0,1-1.095,1.3,3.777,3.777,0,0,0-1.108.575s0,.007,0,.006a7.436,7.436,0,0,0,1.655-.806,1.3,1.3,0,0,0,.608-1.077A.032.032,0,0,0,1210.006,272.189Z" transform="translate(-1193.51 -269.768)" fill="#8c745e"/>
          <path id="Path_1164" data-name="Path 1164" d="M1186.38,287.606a10.477,10.477,0,0,1-1.679-1.376,3.89,3.89,0,0,1-.817-2.54.026.026,0,0,0-.053,0,3.705,3.705,0,0,0,1.146,3.036c1.137,1.108,2.7,1.666,2.689,3.515a.043.043,0,0,0,.085.011C1188.078,289.152,1187.179,288.223,1186.38,287.606Z" transform="translate(-1183.059 -274.781)" fill="#8c745e"/>
          <path id="Path_1165" data-name="Path 1165" d="M1189.633,283.383c-.574-.446-1.222-.793-1.757-1.29a3.422,3.422,0,0,1-1.068-2.542c0-.025-.042-.035-.047-.006a3.163,3.163,0,0,0,1.306,2.947c.524.411,1.115.73,1.627,1.156a2.778,2.778,0,0,1,1.065,2.3c0,.008.012.012.016,0C1191.244,284.97,1190.36,283.949,1189.633,283.383Z" transform="translate(-1184.327 -272.978)" fill="#8c745e"/>
          <path id="Path_1166" data-name="Path 1166" d="M1193.783,280.209a4.976,4.976,0,0,1-1.693-1.507,5.822,5.822,0,0,1-.531-2.06c0-.019-.029-.012-.031,0a3.458,3.458,0,0,0,.871,2.729,9.151,9.151,0,0,0,1.215.91,2.3,2.3,0,0,1,1.186,2.209.031.031,0,0,0,.057.016C1195.388,281.615,1194.458,280.686,1193.783,280.209Z" transform="translate(-1186.413 -271.716)" fill="#8c745e"/>
          <path id="Path_1167" data-name="Path 1167" d="M1199.012,277.713a9.769,9.769,0,0,1-1.174-1.147,3.436,3.436,0,0,1-.543-1.735c0-.013-.021-.019-.025,0a2.514,2.514,0,0,0,.547,2c.736.921,1.705,1.264,1.728,2.608,0,.032.047.049.063.017C1199.912,278.827,1199.454,278.153,1199.012,277.713Z" transform="translate(-1188.905 -270.927)" fill="#8c745e"/>
          <path id="Path_1168" data-name="Path 1168" d="M1203.545,275.517c-.422-.74-.941-1.345-.668-2.258.007-.023-.024-.033-.036-.015a1.364,1.364,0,0,0-.039,1.366,9.636,9.636,0,0,1,.973,2.156.032.032,0,0,0,.061,0A1.684,1.684,0,0,0,1203.545,275.517Z" transform="translate(-1191.26 -270.237)" fill="#8c745e"/>
          <path id="Path_1169" data-name="Path 1169" d="M1206.846,273.323c-.191-.609-.577-1.09-.348-1.759.009-.026-.029-.039-.042-.018a1.068,1.068,0,0,0-.069.935c.194.622.556,1.071.345,1.757-.007.025.026.036.041.017A1.007,1.007,0,0,0,1206.846,273.323Z" transform="translate(-1192.861 -269.497)" fill="#8c745e"/>
          <path id="Path_1170" data-name="Path 1170" d="M1195.237,291.866a2.972,2.972,0,0,0-2.071,1c-.024.032.007.088.047.061a10.292,10.292,0,0,1,.9-.616,5.366,5.366,0,0,1,1.129-.422A.011.011,0,0,0,1195.237,291.866Z" transform="translate(-1187.13 -278.354)" fill="#8c745e"/>
          <path id="Path_1171" data-name="Path 1171" d="M1195.078,293.905a2.492,2.492,0,0,0-2.705.453.032.032,0,0,0,.038.05,5.633,5.633,0,0,1,1.2-.5,3.58,3.58,0,0,1,1.453.026C1195.081,293.935,1195.094,293.912,1195.078,293.905Z" transform="translate(-1186.784 -279.153)" fill="#8c745e"/>
          <path id="Path_1172" data-name="Path 1172" d="M1193.537,296.331c-.755-.239-2.232-.165-2.7.6l0,0c.423-.094.789-.382,1.22-.492a4.258,4.258,0,0,1,1.469-.068C1193.555,296.372,1193.558,296.337,1193.537,296.331Z" transform="translate(-1186.12 -280.246)" fill="#8c745e"/>
          <path id="Path_1173" data-name="Path 1173" d="M1192.577,298.145a2.736,2.736,0,0,0-2.525.4.032.032,0,0,0,.031.053c.391-.1.744-.291,1.145-.368a5.239,5.239,0,0,1,1.342-.03C1192.6,298.2,1192.605,298.155,1192.577,298.145Z" transform="translate(-1185.773 -281.029)" fill="#8c745e"/>
          <path id="Path_1174" data-name="Path 1174" d="M1187.09,295.3c-.016-.015-.046,0-.031.024.208.288.445.555.629.86a2.633,2.633,0,0,1,.341,1.119c0,.033.055.047.064.008C1188.259,296.536,1187.62,295.774,1187.09,295.3Z" transform="translate(-1184.472 -279.846)" fill="#8c745e"/>
          <path id="Path_1175" data-name="Path 1175" d="M1188.076,294.515a.02.02,0,0,0-.024.031,2.93,2.93,0,0,1,.569.744,4.57,4.57,0,0,1,.277.888.037.037,0,0,0,.071,0A1.689,1.689,0,0,0,1188.076,294.515Z" transform="translate(-1184.904 -279.506)" fill="#8c745e"/>
          <path id="Path_1176" data-name="Path 1176" d="M1189.549,294.318a2.456,2.456,0,0,0-.729-.994c-.021-.017-.063.006-.043.033a3.134,3.134,0,0,1,.8,1.684.015.015,0,0,0,.025.011C1189.79,294.85,1189.642,294.535,1189.549,294.318Z" transform="translate(-1185.22 -278.986)" fill="#8c745e"/>
          <path id="Path_1177" data-name="Path 1177" d="M1189.894,291.111c-.023-.011-.057.014-.039.039a7.532,7.532,0,0,1,.568.775,4.182,4.182,0,0,1,.345,1c.007.033.054.023.056-.007A1.968,1.968,0,0,0,1189.894,291.111Z" transform="translate(-1185.689 -278.023)" fill="#8c745e"/>
          <path id="Path_1178" data-name="Path 1178" d="M1191.046,290.5c-.012-.01-.034,0-.023.017a2.622,2.622,0,0,1,.731,1.594.029.029,0,0,0,.056.007C1192.037,291.489,1191.489,290.876,1191.046,290.5Z" transform="translate(-1186.199 -277.758)" fill="#8c745e"/>
          <path id="Path_1179" data-name="Path 1179" d="M1192.716,289.8a.023.023,0,0,0-.039.023c.081.213.191.415.262.633a5.669,5.669,0,0,1,.076.668.025.025,0,0,0,.042.011C1193.394,290.776,1192.968,290.088,1192.716,289.8Z" transform="translate(-1186.92 -277.452)" fill="#8c745e"/>
          <path id="Path_1180" data-name="Path 1180" d="M1193.927,287.1c-.016-.012-.043,0-.03.023a2.514,2.514,0,0,1,.437,1.7c-.006.072.1.081.121.016A1.656,1.656,0,0,0,1193.927,287.1Z" transform="translate(-1187.451 -276.275)" fill="#8c745e"/>
          <path id="Path_1181" data-name="Path 1181" d="M1194.835,286.07c-.013-.01-.033.01-.023.023a3.244,3.244,0,0,1,.426.751c.091.254.081.518.15.772a.029.029,0,0,0,.055,0A1.527,1.527,0,0,0,1194.835,286.07Z" transform="translate(-1187.85 -275.827)" fill="#8c745e"/>
          <path id="Path_1182" data-name="Path 1182" d="M1195.959,285.582c-.021-.015-.052.015-.036.036a2.069,2.069,0,0,1,.324.549,5.3,5.3,0,0,1,.113.569.017.017,0,0,0,.033,0A1.1,1.1,0,0,0,1195.959,285.582Z" transform="translate(-1188.333 -275.614)" fill="#8c745e"/>
          <path id="Path_1183" data-name="Path 1183" d="M1198.014,289.12a2.287,2.287,0,0,0-2.117.457.045.045,0,0,0,.044.075c.322-.1.606-.288.94-.37a4.99,4.99,0,0,1,1.125-.1A.031.031,0,0,0,1198.014,289.12Z" transform="translate(-1188.318 -277.121)" fill="#8c745e"/>
          <path id="Path_1184" data-name="Path 1184" d="M1198.59,288.189a1.419,1.419,0,0,0-.777-.079c-.213.028-.507.075-.626.274a.011.011,0,0,0,.01.017,2.235,2.235,0,0,0,.6-.134,4.7,4.7,0,0,1,.777-.019C1198.6,288.247,1198.619,288.2,1198.59,288.189Z" transform="translate(-1188.885 -276.709)" fill="#8c745e"/>
          <path id="Path_1185" data-name="Path 1185" d="M1198.488,287.393a.007.007,0,0,0,0,.014A.007.007,0,1,0,1198.488,287.393Z" transform="translate(-1189.45 -276.405)" fill="#8c745e"/>
          <path id="Path_1186" data-name="Path 1186" d="M1199.56,287.089a1.317,1.317,0,0,0-1.09.054c-.06.027-.017.13.045.107a2.691,2.691,0,0,1,1.03-.108C1199.573,287.143,1199.586,287.1,1199.56,287.089Z" transform="translate(-1189.432 -276.231)" fill="#8c745e"/>
          <path id="Path_1187" data-name="Path 1187" d="M1197.756,283.762c-.019-.015-.048,0-.035.027a1.906,1.906,0,0,1,.267.633,3.753,3.753,0,0,1,.011.681.021.021,0,0,0,.039.01A1.112,1.112,0,0,0,1197.756,283.762Z" transform="translate(-1189.117 -274.821)" fill="#8c745e"/>
          <path id="Path_1188" data-name="Path 1188" d="M1198.969,283.029a.024.024,0,0,0-.044.019,1.822,1.822,0,0,1,.125,1.135.016.016,0,0,0,.027.015A.967.967,0,0,0,1198.969,283.029Z" transform="translate(-1189.642 -274.499)" fill="#8c745e"/>
          <path id="Path_1189" data-name="Path 1189" d="M1199.57,281.913a.018.018,0,0,0-.028.021,2.085,2.085,0,0,1,.265,1.414c0,.016.023.021.029.008A1.268,1.268,0,0,0,1199.57,281.913Z" transform="translate(-1189.91 -274.015)" fill="#8c745e"/>
          <path id="Path_1190" data-name="Path 1190" d="M1200.589,282.047a.017.017,0,0,0-.027.02,1.606,1.606,0,0,1,.214.806.01.01,0,0,0,.019,0A.8.8,0,0,0,1200.589,282.047Z" transform="translate(-1190.355 -274.074)" fill="#8c745e"/>
          <path id="Path_1191" data-name="Path 1191" d="M1202.429,284.641a2.086,2.086,0,0,0-1.841.242c-.03.021-.013.08.028.065a4,4,0,0,1,1.806-.253C1202.454,284.7,1202.455,284.651,1202.429,284.641Z" transform="translate(-1190.361 -275.156)" fill="#8c745e"/>
          <path id="Path_1192" data-name="Path 1192" d="M1203.005,283.737a1.362,1.362,0,0,0-1.352.155c-.02.014-.008.052.018.042a2.9,2.9,0,0,1,1.319-.141A.031.031,0,0,0,1203.005,283.737Z" transform="translate(-1190.827 -274.762)" fill="#8c745e"/>
          <path id="Path_1193" data-name="Path 1193" d="M1203.266,282.929a3.145,3.145,0,0,0-.791.029c-.031,0-.021.049.007.051a3.166,3.166,0,0,0,.79-.041C1203.3,282.964,1203.287,282.931,1203.266,282.929Z" transform="translate(-1191.181 -274.455)" fill="#8c745e"/>
          <path id="Path_1194" data-name="Path 1194" d="M1201.429,279.4c-.017-.019-.045.005-.034.026.111.227.246.442.341.677a1.554,1.554,0,0,1,.071.919.033.033,0,0,0,.06.025C1202.215,280.514,1201.8,279.811,1201.429,279.4Z" transform="translate(-1190.718 -272.922)" fill="#8c745e"/>
          <path id="Path_1195" data-name="Path 1195" d="M1202.521,279.285c-.019-.012-.045.012-.031.032a1.837,1.837,0,0,1,.3,1.081.019.019,0,0,0,.036.01A.877.877,0,0,0,1202.521,279.285Z" transform="translate(-1191.194 -272.871)" fill="#8c745e"/>
          <path id="Path_1196" data-name="Path 1196" d="M1203.143,278.532c-.018-.015-.049,0-.035.027.1.148.2.292.284.445s.139.327.238.468a.005.005,0,0,0,.01,0A1.378,1.378,0,0,0,1203.143,278.532Z" transform="translate(-1191.464 -272.542)" fill="#8c745e"/>
          <path id="Path_1197" data-name="Path 1197" d="M1205.338,280.855a1.119,1.119,0,0,0-1.32.213c0,.005,0,.015.007.012a2.949,2.949,0,0,1,.6-.183,3.415,3.415,0,0,1,.691.027A.037.037,0,0,0,1205.338,280.855Z" transform="translate(-1191.861 -273.5)" fill="#8c745e"/>
          <path id="Path_1198" data-name="Path 1198" d="M1205.615,279.738a.714.714,0,0,0-.363.02c-.075.022-.213.054-.231.143a.009.009,0,0,0,0,.01c.065.049.172,0,.244-.012a2.037,2.037,0,0,0,.346-.09C1205.645,279.8,1205.653,279.747,1205.615,279.738Z" transform="translate(-1192.298 -273.064)" fill="#8c745e"/>
          <path id="Path_1199" data-name="Path 1199" d="M1204.7,276.223c-.018-.014-.042.012-.03.03a2.083,2.083,0,0,1,.325.607,4.2,4.2,0,0,1,.055.687.019.019,0,0,0,.035.01A1.163,1.163,0,0,0,1204.7,276.223Z" transform="translate(-1192.145 -271.537)" fill="#8c745e"/>
          <path id="Path_1200" data-name="Path 1200" d="M1206,276.118c-.016-.016-.049,0-.04.024a2.335,2.335,0,0,1,.1.3,1.589,1.589,0,0,1,.02.348.039.039,0,0,0,.076.011A.713.713,0,0,0,1206,276.118Z" transform="translate(-1192.707 -271.49)" fill="#8c745e"/>
          <path id="Path_1201" data-name="Path 1201" d="M1206.97,277.692a.778.778,0,0,0-.724.2.034.034,0,0,0,.033.056c.116-.03.222-.091.339-.123s.235-.046.352-.082A.027.027,0,0,0,1206.97,277.692Z" transform="translate(-1192.829 -272.169)" fill="#8c745e"/>
          <path id="Path_1202" data-name="Path 1202" d="M1207.6,276.542a.47.47,0,0,0-.33.054c-.092.045-.22.116-.248.22a.038.038,0,0,0,.046.046c.092-.027.161-.111.249-.152s.2-.066.291-.11A.032.032,0,0,0,1207.6,276.542Z" transform="translate(-1193.168 -271.673)" fill="#8c745e"/>
          <path id="Path_1203" data-name="Path 1203" d="M1207.986,274.322a.014.014,0,0,0-.027,0,1.455,1.455,0,0,1-.059.4.005.005,0,0,0,.01,0A.568.568,0,0,0,1207.986,274.322Z" transform="translate(-1193.553 -270.707)" fill="#8c745e"/>
          <path id="Path_1204" data-name="Path 1204" d="M1207.7,290.864a11.222,11.222,0,0,1-2.681-.111,14.2,14.2,0,0,1-2.342-.8s0,0,0,0a6.311,6.311,0,0,0,5.028.931A.014.014,0,0,0,1207.7,290.864Z" transform="translate(-1191.276 -277.522)" fill="#8c745e"/>
          <path id="Path_1205" data-name="Path 1205" d="M1209.94,287.864a5.349,5.349,0,0,1-2.56.112c-.783-.158-1.505-.506-2.278-.686v0c1.334.814,3.391,1.4,4.855.609A.02.02,0,0,0,1209.94,287.864Z" transform="translate(-1192.333 -276.36)" fill="#8c745e"/>
          <path id="Path_1206" data-name="Path 1206" d="M1211.092,289.74a5.259,5.259,0,0,1-1.024.11,8.746,8.746,0,0,1-.891-.109c-.013,0-.019.02-.007.025a2.612,2.612,0,0,0,1.934.018A.023.023,0,0,0,1211.092,289.74Z" transform="translate(-1194.103 -277.427)" fill="#8c745e"/>
          <path id="Path_1207" data-name="Path 1207" d="M1206.882,295.919c-1.6.711-2.88-.4-4.453-.446,0,0,0,0,0,0,1.321.416,3.171,1.4,4.481.487A.026.026,0,0,0,1206.882,295.919Z" transform="translate(-1191.168 -279.925)" fill="#8c745e"/>
          <path id="Path_1208" data-name="Path 1208" d="M1209.259,294.058a9.02,9.02,0,0,1-2.806-.079v0a4.359,4.359,0,0,0,2.814.133C1209.295,294.1,1209.292,294.055,1209.259,294.058Z" transform="translate(-1192.922 -279.274)" fill="#8c745e"/>
          <path id="Path_1209" data-name="Path 1209" d="M1210.521,285.67a5,5,0,0,1-3.814-.227v0a3.935,3.935,0,0,0,3.834.269C1210.564,285.7,1210.547,285.664,1210.521,285.67Z" transform="translate(-1193.032 -275.555)" fill="#8c745e"/>
          <path id="Path_1210" data-name="Path 1210" d="M1210.417,283.656c-1.111.248-1.987-.362-3.062-.344a.015.015,0,0,0,0,.029c.938.251,2.138.847,3.09.372C1210.474,283.7,1210.45,283.648,1210.417,283.656Z" transform="translate(-1193.309 -274.627)" fill="#8c745e"/>
          <path id="Path_1211" data-name="Path 1211" d="M1210.268,278.421a4.716,4.716,0,0,1-1.263.558c-.416.095-.817.026-1.226.087a.01.01,0,0,0,0,.017,2.529,2.529,0,0,0,2.522-.624A.026.026,0,0,0,1210.268,278.421Z" transform="translate(-1193.497 -272.495)" fill="#8c745e"/>
          <path id="Path_1212" data-name="Path 1212" d="M1210.338,281.216c-.43.042-.853.117-1.286.124s-.858-.054-1.288-.083c-.008,0-.008.011,0,.013a3.937,3.937,0,0,0,2.584,0C1210.375,281.263,1210.374,281.212,1210.338,281.216Z" transform="translate(-1193.491 -273.714)" fill="#8c745e"/>
          <path id="Path_1213" data-name="Path 1213" d="M1211.566,279.827a2.647,2.647,0,0,1-1.027.3.029.029,0,0,0,0,.057,1.607,1.607,0,0,0,1.048-.326A.021.021,0,0,0,1211.566,279.827Z" transform="translate(-1194.69 -273.107)" fill="#8c745e"/>
          <path id="Path_1214" data-name="Path 1214" d="M1210.621,274.475c-.173.135-.328.287-.513.408a3.078,3.078,0,0,0-.474.274.025.025,0,0,0,.018.043,1.026,1.026,0,0,0,.572-.244,1.393,1.393,0,0,0,.438-.449A.026.026,0,0,0,1210.621,274.475Z" transform="translate(-1194.305 -270.774)" fill="#8c745e"/>
          <path id="Path_1215" data-name="Path 1215" d="M1210.6,276.287a2.074,2.074,0,0,1-.562.279.018.018,0,0,0,.005.035.756.756,0,0,0,.586-.275C1210.643,276.305,1210.623,276.27,1210.6,276.287Z" transform="translate(-1194.478 -271.565)" fill="#8c745e"/>
          <path id="Path_1216" data-name="Path 1216" d="M1210.538,272.23a3.4,3.4,0,0,1-.5.472c-.014.01,0,.034.014.024a1.723,1.723,0,0,0,.507-.479C1210.57,272.234,1210.549,272.217,1210.538,272.23Z" transform="translate(-1194.483 -269.797)" fill="#8c745e"/>
          <path id="Path_1217" data-name="Path 1217" d="M1199.7,277.228a2.786,2.786,0,0,1-.6-.734,2.948,2.948,0,0,1-.241-1.011c0-.02-.032-.028-.037-.005a1.783,1.783,0,0,0,.842,1.792A.026.026,0,0,0,1199.7,277.228Z" transform="translate(-1189.589 -271.208)" fill="#8c745e"/>
          <path id="Path_1218" data-name="Path 1218" d="M1199.941,276.284c-.061-.135-.109-.274-.156-.413a.014.014,0,0,0-.027,0,.685.685,0,0,0,.152.433C1199.925,276.327,1199.95,276.3,1199.941,276.284Z" transform="translate(-1190.006 -271.381)" fill="#8c745e"/>
          <path id="Path_1219" data-name="Path 1219" d="M1202.4,276.444a2.57,2.57,0,0,1-.453-1.414c0-.026-.047-.039-.052-.007a1.945,1.945,0,0,0,.11.924c.069.194.154.476.382.518A.013.013,0,0,0,1202.4,276.444Z" transform="translate(-1190.928 -271.008)" fill="#8c745e"/>
          <path id="Path_1220" data-name="Path 1220" d="M1197.108,278.015c-.567-.457-.557-1.072-.772-1.7a.02.02,0,0,0-.039.006,2.485,2.485,0,0,0,.361,1.376c.327.516,1.014.651,1.28,1.206.013.026.059.007.048-.02C1197.813,278.454,1197.453,278.293,1197.108,278.015Z" transform="translate(-1188.497 -271.573)" fill="#8c745e"/>
          <path id="Path_1221" data-name="Path 1221" d="M1195.075,280.552a4.519,4.519,0,0,0-1.134-1.114,3.119,3.119,0,0,1-.984-1.893c-.01-.043-.066-.028-.07.009-.187,1.505,1.309,2.113,2.158,3.021C1195.059,280.591,1195.085,280.57,1195.075,280.552Z" transform="translate(-1187.005 -272.103)" fill="#8c745e"/>
          <path id="Path_1222" data-name="Path 1222" d="M1194.7,278.57a1.917,1.917,0,0,1-.573-1.479.022.022,0,0,0-.043-.006,1.36,1.36,0,0,0,.6,1.51C1194.7,278.6,1194.716,278.581,1194.7,278.57Z" transform="translate(-1187.51 -271.907)" fill="#8c745e"/>
          <path id="Path_1223" data-name="Path 1223" d="M1190.708,283.592a4.4,4.4,0,0,0-1.491-1.252,2.062,2.062,0,0,1-1.013-1.063,4.841,4.841,0,0,0-.327-.862.019.019,0,0,0-.035.015,3.2,3.2,0,0,0,.832,1.717,6.521,6.521,0,0,0,.954.548,6.6,6.6,0,0,1,1.063.913A.011.011,0,0,0,1190.708,283.592Z" transform="translate(-1184.814 -273.361)" fill="#8c745e"/>
          <path id="Path_1224" data-name="Path 1224" d="M1192.842,282.025c-.405-.407-.948-.629-1.357-1.03a3.9,3.9,0,0,1-.791-1.587.045.045,0,0,0-.087.012,2.129,2.129,0,0,0,.556,1.463,6.387,6.387,0,0,0,1.651,1.178C1192.836,282.076,1192.86,282.043,1192.842,282.025Z" transform="translate(-1186.016 -272.913)" fill="#8c745e"/>
          <path id="Path_1225" data-name="Path 1225" d="M1190.351,280.991a3.221,3.221,0,0,1-.653-1.015,9.584,9.584,0,0,1-.163-.989c-.008-.033-.063-.045-.078-.01a1.914,1.914,0,0,0,.866,2.052C1190.346,281.043,1190.369,281.011,1190.351,280.991Z" transform="translate(-1185.481 -272.729)" fill="#8c745e"/>
          <path id="Path_1226" data-name="Path 1226" d="M1186.966,286.813c-.964-.8-2.262-1.879-2.1-3.251.005-.043-.062-.057-.08-.021-.662,1.234,1.326,2.734,2.155,3.3C1186.961,286.854,1186.983,286.826,1186.966,286.813Z" transform="translate(-1183.426 -274.718)" fill="#8c745e"/>
          <path id="Path_1227" data-name="Path 1227" d="M1186.545,282.794c0-.028-.047-.04-.054-.007a1.506,1.506,0,0,0,.711,1.4c.7.549,1.537.793,1.913,1.679.006.014.026,0,.023-.01C1188.809,284.38,1186.727,284.413,1186.545,282.794Z" transform="translate(-1184.218 -274.39)" fill="#8c745e"/>
          <path id="Path_1228" data-name="Path 1228" d="M1189.693,287.975a3.056,3.056,0,0,0-.865-.521c-.025-.01-.038.029-.018.042a6.452,6.452,0,0,1,.817.545,4.08,4.08,0,0,1,.478.656c.007.008.02,0,.02-.008A1.072,1.072,0,0,0,1189.693,287.975Z" transform="translate(-1185.232 -276.431)" fill="#8c745e"/>
          <path id="Path_1229" data-name="Path 1229" d="M1185.664,291.429a4.6,4.6,0,0,0-.727-.822,2.476,2.476,0,0,1-.658-1.126.034.034,0,0,0-.066.008c-.022.834.871,1.453,1.4,1.978A.032.032,0,0,0,1185.664,291.429Z" transform="translate(-1183.233 -277.304)" fill="#8c745e"/>
          <path id="Path_1230" data-name="Path 1230" d="M1201.285,298.974a9.241,9.241,0,0,1-3.014-.409c-.631-.183-1.373-.485-1.989-.122a.044.044,0,0,0,.034.081c1.692-.257,3.254,1.02,4.976.508C1201.324,299.022,1201.319,298.972,1201.285,298.974Z" transform="translate(-1188.482 -281.144)" fill="#8c745e"/>
          <path id="Path_1231" data-name="Path 1231" d="M1201.588,297.767c-.707-.063-1.233-.7-1.975-.506-.024.006-.02.049.006.046.714-.092,1.247.571,1.969.511A.025.025,0,0,0,1201.588,297.767Z" transform="translate(-1189.936 -280.688)" fill="#8c745e"/>
          <path id="Path_1232" data-name="Path 1232" d="M1202.62,294.668a9.828,9.828,0,0,0-3.663-.506c-.025,0-.035.042-.006.047.642.12,1.3.14,1.949.236.572.085,1.136.237,1.711.3C1202.656,294.75,1202.659,294.682,1202.62,294.668Z" transform="translate(-1189.646 -279.346)" fill="#8c745e"/>
        </g>
      </g>
    </g>
  </g>
</svg>
