<svg xmlns="http://www.w3.org/2000/svg" xmlns:xlink="http://www.w3.org/1999/xlink" width="90" height="90" viewBox="0 0 90 90">
  <defs>
    <clipPath id="clip-Icons1">
      <rect width="90" height="90"/>
    </clipPath>
  </defs>
  <g id="Icons1" clip-path="url(#clip-Icons1)">
    <rect width="90" height="90" style="fill:transparent;"/>
    <g id="Group_180" data-name="Group 180" transform="translate(-925.267 -57.741)">
      <g id="Group_179" data-name="Group 179" transform="translate(948.267 77.607)">
        <path id="Path_381" data-name="Path 381" d="M988.891,85.775A82.5,82.5,0,0,1,980.991,98c-3.036,3.924-6.589,7.265-9.963,10.878a52.734,52.734,0,0,0-7.643,10.489,54.4,54.4,0,0,0-2.805,5.9,24.572,24.572,0,0,0-1.945,6.183.091.091,0,0,0,.169.045c.975-2.09,1.521-4.405,2.433-6.537a54.373,54.373,0,0,1,2.9-5.779,55.891,55.891,0,0,1,8.457-11.16,102.9,102.9,0,0,0,9.135-10.2,72.6,72.6,0,0,0,7.189-12.029C988.919,85.773,988.9,85.76,988.891,85.775Z" transform="translate(-951.91 -80.475)" fill="#8c745e"/>
        <path id="Path_382" data-name="Path 382" d="M987.557,87.642a85.663,85.663,0,0,1-9.031,11.824c-3.24,3.643-6.94,6.784-10.059,10.546-5.19,6.258-11.037,13.655-11.7,22.091a.227.227,0,0,0,.444.06,37.276,37.276,0,0,1,4.6-12.3,79.826,79.826,0,0,1,8.313-11.175c3.034-3.513,6.641-6.445,9.626-10.014a66.605,66.605,0,0,0,7.829-11.023A.01.01,0,0,0,987.557,87.642Z" transform="translate(-951.254 -81.132)" fill="#8c745e"/>
        <path id="Path_383" data-name="Path 383" d="M959.229,154.465a.016.016,0,0,0,0,.032A.016.016,0,0,0,959.229,154.465Z" transform="translate(-952.114 -104.618)" fill="#8c745e"/>
        <path id="Path_384" data-name="Path 384" d="M958.107,156.062a2.931,2.931,0,0,0-.924-.217.512.512,0,0,0-.06-.221.154.154,0,0,0-.264,0,1.866,1.866,0,0,0-.115.4c-.062.164.093.289.233.306.342.043.693.038,1.031.093A.186.186,0,0,0,958.107,156.062Z" transform="translate(-951.241 -104.999)" fill="#8c745e"/>
        <path id="Path_385" data-name="Path 385" d="M959.167,153.317a1.92,1.92,0,0,0-.471.848,4,4,0,0,0-.268,1.094.235.235,0,0,0,.117.2c.04.023.077.054.126.04l.057-.016a.236.236,0,0,0,.166-.166c.073-.348.132-.7.2-1.046a3.248,3.248,0,0,0,.188-.909A.071.071,0,0,0,959.167,153.317Z" transform="translate(-951.837 -104.208)" fill="#8c745e"/>
        <path id="Path_386" data-name="Path 386" d="M996.3,95.237c-.691-2.752-1.524-5.467-2.245-8.211-.765-2.915-1.547-5.952-.942-8.953h0c.019-.158.047-.312.08-.466q-.116.1-.24.184c-.9,2.3-.457,4.739.036,7.1.64,3.066,1.56,6.061,2.364,9.086,1.748,6.578,2.33,12.853-.123,19.348-2.447,6.478-8.809,8.9-15.356,8.508-3.415-.2-6.647-1.173-9.989-1.792a11.04,11.04,0,0,0-6.955.483,3.345,3.345,0,0,1-.234.468.174.174,0,0,0,.193.039c4.866-1.924,10.223.68,15.137,1.276,4.364.529,8.981.146,12.76-2.289,3.7-2.382,5.289-6.377,6.24-10.516C998.123,104.73,997.476,99.93,996.3,95.237Z" transform="translate(-953.337 -77.607)" fill="#8c745e"/>
        <path id="Path_387" data-name="Path 387" d="M987.851,77.813a37.881,37.881,0,0,1-13.067,7.162c-4.57,1.474-9.33,2.364-13.785,4.19-7.255,2.974-13.759,9.183-12.6,17.692a10.084,10.084,0,0,0,2.786,5.6c1.969,2.185,4.723,5.225,4.635,8.354a.121.121,0,0,0,.236.032c.531-2.489-1.354-4.93-2.769-6.8-.882-1.167-1.969-2.184-2.808-3.381a9.073,9.073,0,0,1-1.507-4.387c-.6-6.239,3.15-11.479,8.287-14.572,5.067-3.051,10.924-4.2,16.512-5.909a37.259,37.259,0,0,0,14.284-7.829c.015-.119.036-.236.06-.353A3.313,3.313,0,0,1,987.851,77.813Z" transform="translate(-948.267 -77.609)" fill="#8c745e"/>
      </g>
      <path id="Path_388" data-name="Path 388" d="M978.828,120.728a4.527,4.527,0,0,1-1.2.543.016.016,0,0,0,.009.031,4.589,4.589,0,0,0,1.206-.546C978.861,120.744,978.845,120.717,978.828,120.728Z" transform="translate(-10.315 -15.153)" fill="#8c745e"/>
      <path id="Path_389" data-name="Path 389" d="M980.215,119.508v.06a.016.016,0,0,0,.032,0v-.06A.016.016,0,0,0,980.215,119.508Z" transform="translate(-11.228 -14.72)" fill="#8c745e"/>
      <path id="Path_390" data-name="Path 390" d="M979.945,119.623a1.1,1.1,0,0,0-.163.47c0,.02.03.02.032,0a1.07,1.07,0,0,1,.159-.453A.016.016,0,0,0,979.945,119.623Z" transform="translate(-11.076 -14.763)" fill="#8c745e"/>
      <path id="Path_391" data-name="Path 391" d="M959.353,150.609a.016.016,0,0,0,0,.032A.016.016,0,0,0,959.353,150.609Z" transform="translate(-3.891 -25.656)" fill="#8c745e"/>
      <path id="Path_392" data-name="Path 392" d="M964.209,134.87c-2.423,2.757-3.941,6.711-4.906,10.21a.1.1,0,0,0,.184.051,51.593,51.593,0,0,1,2.243-5.465c.789-1.613,1.782-3.122,2.55-4.741C964.3,134.882,964.245,134.828,964.209,134.87Z" transform="translate(-3.877 -20.119)" fill="#8c745e"/>
      <path id="Path_393" data-name="Path 393" d="M984.135,108.909a58.319,58.319,0,0,0-4.236,4.349c-1.39,1.471-2.826,2.913-4.1,4.485a.016.016,0,0,0,.023.023c1.58-1.427,3.01-3.021,4.474-4.565a55.737,55.737,0,0,0,3.9-4.244C984.228,108.919,984.167,108.881,984.135,108.909Z" transform="translate(-9.674 -10.997)" fill="#8c745e"/>
      <path id="Path_394" data-name="Path 394" d="M995.329,136.395a10.068,10.068,0,0,1-7.929,1.7,37.238,37.238,0,0,1-7.731-2.564c-3.932-1.542-9.062-2.981-12.771-.1-.134.1.037.3.177.228,5.531-3.038,10.955-.154,16.307,1.75,3.473,1.236,9.24,2.434,12.08-.841A.111.111,0,0,0,995.329,136.395Z" transform="translate(-6.531 -19.74)" fill="#8c745e"/>
      <path id="Path_395" data-name="Path 395" d="M1000.562,124.966a13.876,13.876,0,0,1-7.444,2.415c-2.828.038-5.257-1.043-7.792-2.161-3.98-1.754-8.5-2.216-12.161.58-.152.116-.023.364.154.264a11.876,11.876,0,0,1,8.42-1.625c2.478.512,4.663,1.861,7.041,2.665a12.965,12.965,0,0,0,11.943-1.861C1000.882,125.121,1000.74,124.851,1000.562,124.966Z" transform="translate(-8.727 -16.235)" fill="#8c745e"/>
      <path id="Path_396" data-name="Path 396" d="M1004.2,114.287c-3.64,3.418-7.685,2.368-12.06,1.106-2.7-.779-7.116-1.9-9.4.436a.02.02,0,0,0,.019.034,15.813,15.813,0,0,1,3.281-.914,12.617,12.617,0,0,1,3.5.251c2.273.443,4.437,1.328,6.72,1.728,2.679.469,6.646.224,8.049-2.556A.07.07,0,0,0,1004.2,114.287Z" transform="translate(-12.114 -12.884)" fill="#8c745e"/>
      <path id="Path_397" data-name="Path 397" d="M1005.851,105.086c-2.549,2.451-5.676,1.9-8.839,1.371-2.045-.341-4.745-.844-6.516.537a.022.022,0,0,0,.017.041,14.82,14.82,0,0,1,4.731-.479c1.669.18,3.3.632,4.978.758,2.1.158,4.477-.227,5.84-2.016C1006.174,105.15,1005.993,104.949,1005.851,105.086Z" transform="translate(-14.837 -9.641)" fill="#8c745e"/>
      <path id="Path_398" data-name="Path 398" d="M1005.495,93.871c-2.022,4.364-7.718,1.955-10.4,5.27-.015.019,0,.049.027.036,2.376-1.425,4.834-1.387,7.364-2.282a4.952,4.952,0,0,0,3.239-2.926C1005.773,93.835,1005.556,93.739,1005.495,93.871Z" transform="translate(-16.455 -5.694)" fill="#8c745e"/>
      <path id="Path_399" data-name="Path 399" d="M1006.159,86.482a3.916,3.916,0,0,1-2.615,3.109,9.023,9.023,0,0,0-2.648,1.374c0,.005,0,.016.008.013a17.806,17.806,0,0,0,3.953-1.925,3.116,3.116,0,0,0,1.453-2.571A.075.075,0,0,0,1006.159,86.482Z" transform="translate(-18.495 -3.093)" fill="#8c745e"/>
      <path id="Path_400" data-name="Path 400" d="M957.173,119.733a25.059,25.059,0,0,1-4.008-3.286,9.3,9.3,0,0,1-1.952-6.065.063.063,0,0,0-.125,0,8.857,8.857,0,0,0,2.737,7.252c2.717,2.646,6.45,3.978,6.423,8.394a.1.1,0,0,0,.2.027C961.229,123.425,959.079,121.206,957.173,119.733Z" transform="translate(-0.975 -11.497)" fill="#8c745e"/>
      <path id="Path_401" data-name="Path 401" d="M964.04,110.931c-1.37-1.067-2.918-1.894-4.2-3.081a8.17,8.17,0,0,1-2.551-6.072c0-.061-.1-.083-.113-.016A7.553,7.553,0,0,0,960.3,108.8c1.252.981,2.662,1.743,3.885,2.761a6.643,6.643,0,0,1,2.545,5.487c0,.019.029.029.037.01C967.886,114.72,965.776,112.283,964.04,110.931Z" transform="translate(-3.101 -8.475)" fill="#8c745e"/>
      <path id="Path_402" data-name="Path 402" d="M972.465,104.248c-1.5-1.058-3.117-1.939-4.042-3.6a13.853,13.853,0,0,1-1.268-4.919c-.007-.045-.07-.029-.074.01a8.261,8.261,0,0,0,2.082,6.517,21.97,21.97,0,0,0,2.9,2.173c1.965,1.4,2.994,2.825,2.832,5.275a.073.073,0,0,0,.136.037C976.3,107.607,974.078,105.386,972.465,104.248Z" transform="translate(-6.597 -6.359)" fill="#8c745e"/>
      <path id="Path_403" data-name="Path 403" d="M983.18,98.849a23.273,23.273,0,0,1-2.8-2.74,8.211,8.211,0,0,1-1.3-4.144c0-.031-.052-.044-.059-.008a6,6,0,0,0,1.3,4.787c1.76,2.2,4.074,3.02,4.128,6.229,0,.075.113.115.149.04C985.329,101.508,984.235,99.9,983.18,98.849Z" transform="translate(-10.775 -5.035)" fill="#8c745e"/>
      <path id="Path_404" data-name="Path 404" d="M992.328,94.1c-1.007-1.769-2.246-3.212-1.595-5.392.016-.054-.057-.079-.087-.037a3.26,3.26,0,0,0-.092,3.262c.782,1.824,1.963,3.131,2.323,5.15.013.075.128.069.145,0A4.02,4.02,0,0,0,992.328,94.1Z" transform="translate(-14.724 -3.88)" fill="#8c745e"/>
      <path id="Path_405" data-name="Path 405" d="M999.072,89.383c-.457-1.456-1.377-2.6-.831-4.2.021-.062-.068-.093-.1-.043a2.551,2.551,0,0,0-.165,2.233c.462,1.486,1.327,2.557.824,4.2-.018.061.064.086.1.041A2.406,2.406,0,0,0,999.072,89.383Z" transform="translate(-17.407 -2.639)" fill="#8c745e"/>
      <path id="Path_406" data-name="Path 406" d="M975.426,127.365a7.1,7.1,0,0,0-4.947,2.382c-.058.075.017.211.113.146a24.931,24.931,0,0,1,2.145-1.471,12.818,12.818,0,0,1,2.7-1.007A.025.025,0,0,0,975.426,127.365Z" transform="translate(-7.799 -17.487)" fill="#8c745e"/>
      <path id="Path_407" data-name="Path 407" d="M975.293,131.665c-1.994-.858-4.955-.634-6.46,1.081a.075.075,0,0,0,.091.118,13.559,13.559,0,0,1,2.873-1.2,8.554,8.554,0,0,1,3.469.064C975.3,131.736,975.332,131.682,975.293,131.665Z" transform="translate(-7.22 -18.827)" fill="#8c745e"/>
      <path id="Path_408" data-name="Path 408" d="M972.086,136.68c-1.8-.571-5.329-.4-6.441,1.422a.005.005,0,0,0,.005.008c1.011-.224,1.885-.911,2.915-1.174a10.181,10.181,0,0,1,3.509-.162C972.129,136.778,972.136,136.7,972.086,136.68Z" transform="translate(-6.107 -20.659)" fill="#8c745e"/>
      <path id="Path_409" data-name="Path 409" d="M970.04,140.456c-1.785-.611-4.611-.416-6.03.957a.075.075,0,0,0,.073.125c.933-.24,1.776-.7,2.734-.879a12.474,12.474,0,0,1,3.2-.071C970.1,140.594,970.109,140.48,970.04,140.456Z" transform="translate(-5.525 -21.972)" fill="#8c745e"/>
      <path id="Path_410" data-name="Path 410" d="M957.862,134.5c-.038-.034-.108.012-.075.058.5.687,1.064,1.326,1.5,2.053a6.286,6.286,0,0,1,.813,2.672c.009.079.132.113.152.02C960.653,137.453,959.13,135.636,957.862,134.5Z" transform="translate(-3.343 -19.989)" fill="#8c745e"/>
      <path id="Path_411" data-name="Path 411" d="M959.911,132.869a.048.048,0,0,0-.058.075,7.019,7.019,0,0,1,1.359,1.776,10.943,10.943,0,0,1,.661,2.121.088.088,0,0,0,.169,0A4.034,4.034,0,0,0,959.911,132.869Z" transform="translate(-4.067 -19.419)" fill="#8c745e"/>
      <path id="Path_412" data-name="Path 412" d="M963.2,132.769a5.868,5.868,0,0,0-1.74-2.374c-.052-.04-.152.014-.1.079a7.5,7.5,0,0,1,1.913,4.021.035.035,0,0,0,.06.025C963.78,134.04,963.426,133.289,963.2,132.769Z" transform="translate(-4.597 -18.547)" fill="#8c745e"/>
      <path id="Path_413" data-name="Path 413" d="M963.693,125.8c-.055-.027-.136.032-.093.093a18.134,18.134,0,0,1,1.355,1.852,9.963,9.963,0,0,1,.825,2.38c.018.078.128.055.133-.018A4.7,4.7,0,0,0,963.693,125.8Z" transform="translate(-5.385 -16.933)" fill="#8c745e"/>
      <path id="Path_414" data-name="Path 414" d="M966.08,124.529c-.028-.024-.081.008-.055.043.921,1.221,1.71,2.206,1.746,3.806a.068.068,0,0,0,.133.018C968.448,126.888,967.139,125.424,966.08,124.529Z" transform="translate(-6.239 -16.487)" fill="#8c745e"/>
      <path id="Path_415" data-name="Path 415" d="M969.555,123.078c-.036-.04-.112,0-.092.053.193.51.457.992.625,1.511a13.57,13.57,0,0,1,.181,1.6.061.061,0,0,0,.1.027C971.174,125.4,970.156,123.76,969.555,123.078Z" transform="translate(-7.448 -15.975)" fill="#8c745e"/>
      <path id="Path_416" data-name="Path 416" d="M972.07,117.459c-.037-.029-.1.008-.071.054a6,6,0,0,1,1.042,4.063c-.014.172.243.193.291.04A3.955,3.955,0,0,0,972.07,117.459Z" transform="translate(-8.338 -14.002)" fill="#8c745e"/>
      <path id="Path_417" data-name="Path 417" d="M973.955,115.32c-.032-.023-.077.023-.055.055a7.7,7.7,0,0,1,1.016,1.793c.219.606.2,1.235.36,1.843a.068.068,0,0,0,.13,0C975.872,117.78,974.962,116.02,973.955,115.32Z" transform="translate(-9.007 -13.252)" fill="#8c745e"/>
      <path id="Path_418" data-name="Path 418" d="M976.3,114.307c-.049-.036-.123.036-.086.086a4.968,4.968,0,0,1,.773,1.311,12.589,12.589,0,0,1,.27,1.361c.01.042.064.034.077,0A2.627,2.627,0,0,0,976.3,114.307Z" transform="translate(-9.816 -12.894)" fill="#8c745e"/>
      <path id="Path_419" data-name="Path 419" d="M981.214,121.682a5.462,5.462,0,0,0-5.056,1.09.109.109,0,0,0,.105.18c.768-.25,1.447-.688,2.245-.885a11.949,11.949,0,0,1,2.688-.243A.073.073,0,0,0,981.214,121.682Z" transform="translate(-9.792 -15.42)" fill="#8c745e"/>
      <path id="Path_420" data-name="Path 420" d="M982.185,119.753a3.4,3.4,0,0,0-1.856-.189c-.51.068-1.21.18-1.494.654a.028.028,0,0,0,.024.042,5.423,5.423,0,0,0,1.432-.32,11.169,11.169,0,0,1,1.856-.047C982.216,119.892,982.256,119.786,982.185,119.753Z" transform="translate(-10.741 -14.729)" fill="#8c745e"/>
      <path id="Path_421" data-name="Path 421" d="M981.541,118.068a.016.016,0,0,0,0,.032A.016.016,0,0,0,981.541,118.068Z" transform="translate(-11.688 -14.22)" fill="#8c745e"/>
      <path id="Path_422" data-name="Path 422" d="M984.113,117.467a3.147,3.147,0,0,0-2.6.128c-.144.064-.041.311.108.257a6.41,6.41,0,0,1,2.46-.258C984.143,117.6,984.176,117.5,984.113,117.467Z" transform="translate(-11.659 -13.928)" fill="#8c745e"/>
      <path id="Path_423" data-name="Path 423" d="M980.029,110.524c-.043-.036-.115.01-.082.064a4.557,4.557,0,0,1,.636,1.511,8.9,8.9,0,0,1,.027,1.625.051.051,0,0,0,.093.025A2.657,2.657,0,0,0,980.029,110.524Z" transform="translate(-11.131 -11.564)" fill="#8c745e"/>
      <path id="Path_424" data-name="Path 424" d="M982.553,109a.058.058,0,0,0-.105.044,4.359,4.359,0,0,1,.3,2.712.038.038,0,0,0,.063.036C983.522,110.975,983.1,109.788,982.553,109Z" transform="translate(-12.012 -11.024)" fill="#8c745e"/>
      <path id="Path_425" data-name="Path 425" d="M983.8,106.681a.043.043,0,0,0-.067.051,4.98,4.98,0,0,1,.632,3.378c0,.038.054.05.071.019A3.03,3.03,0,0,0,983.8,106.681Z" transform="translate(-12.461 -10.214)" fill="#8c745e"/>
      <path id="Path_426" data-name="Path 426" d="M985.913,106.96a.04.04,0,0,0-.063.049,3.845,3.845,0,0,1,.512,1.927.023.023,0,0,0,.045.006A1.9,1.9,0,0,0,985.913,106.96Z" transform="translate(-13.206 -10.312)" fill="#8c745e"/>
      <path id="Path_427" data-name="Path 427" d="M990.3,112.386a4.983,4.983,0,0,0-4.4.579c-.073.051-.032.192.066.156a9.551,9.551,0,0,1,4.313-.606C990.365,112.519,990.367,112.41,990.3,112.386Z" transform="translate(-13.216 -12.126)" fill="#8c745e"/>
      <path id="Path_428" data-name="Path 428" d="M991.349,110.508a3.254,3.254,0,0,0-3.23.371c-.047.033-.021.125.042.1a6.939,6.939,0,0,1,3.151-.336A.073.073,0,0,0,991.349,110.508Z" transform="translate(-13.997 -11.465)" fill="#8c745e"/>
      <path id="Path_429" data-name="Path 429" d="M991.719,108.8a7.585,7.585,0,0,0-1.889.069c-.073.012-.049.119.017.123a7.52,7.52,0,0,0,1.885-.1C991.788,108.88,991.769,108.8,991.719,108.8Z" transform="translate(-14.591 -10.951)" fill="#8c745e"/>
      <path id="Path_430" data-name="Path 430" d="M987.663,101.47c-.043-.047-.108.012-.083.064.265.543.588,1.055.815,1.616a3.713,3.713,0,0,1,.171,2.2.079.079,0,0,0,.143.06C989.539,104.119,988.548,102.439,987.663,101.47Z" transform="translate(-13.814 -8.38)" fill="#8c745e"/>
      <path id="Path_431" data-name="Path 431" d="M989.93,101.221c-.045-.03-.107.03-.076.075a4.392,4.392,0,0,1,.72,2.581.046.046,0,0,0,.084.023A2.093,2.093,0,0,0,989.93,101.221Z" transform="translate(-14.613 -8.296)" fill="#8c745e"/>
      <path id="Path_432" data-name="Path 432" d="M991.225,99.656c-.043-.037-.117.01-.083.064.228.353.472.7.678,1.062s.333.78.568,1.118a.013.013,0,0,0,.023-.006A3.288,3.288,0,0,0,991.225,99.656Z" transform="translate(-15.065 -7.744)" fill="#8c745e"/>
      <path id="Path_433" data-name="Path 433" d="M996.184,104.521a2.673,2.673,0,0,0-3.153.508c-.011.012,0,.036.017.029a7.1,7.1,0,0,1,1.44-.438,8.181,8.181,0,0,1,1.652.064A.089.089,0,0,0,996.184,104.521Z" transform="translate(-15.731 -9.349)" fill="#8c745e"/>
      <path id="Path_434" data-name="Path 434" d="M996.531,102.165a1.721,1.721,0,0,0-.866.047c-.18.053-.51.13-.552.342a.021.021,0,0,0,.009.023c.155.117.41.006.582-.029a4.7,4.7,0,0,0,.826-.214C996.6,102.306,996.624,102.186,996.531,102.165Z" transform="translate(-16.464 -8.618)" fill="#8c745e"/>
      <path id="Path_435" data-name="Path 435" d="M994.461,94.856c-.042-.031-.1.03-.072.072a4.967,4.967,0,0,1,.776,1.448,9.875,9.875,0,0,1,.132,1.64.046.046,0,0,0,.084.023C995.974,97.065,995.285,95.474,994.461,94.856Z" transform="translate(-16.206 -6.059)" fill="#8c745e"/>
      <path id="Path_436" data-name="Path 436" d="M997.165,94.64c-.038-.039-.118,0-.1.056a5.614,5.614,0,0,1,.242.717,3.759,3.759,0,0,1,.047.831.093.093,0,0,0,.182.025A1.708,1.708,0,0,0,997.165,94.64Z" transform="translate(-17.15 -5.98)" fill="#8c745e"/>
      <path id="Path_437" data-name="Path 437" d="M999.393,97.917a1.863,1.863,0,0,0-1.728.477.081.081,0,0,0,.078.134c.278-.073.531-.219.81-.3s.562-.11.84-.195A.064.064,0,0,0,999.393,97.917Z" transform="translate(-17.353 -7.119)" fill="#8c745e"/>
      <path id="Path_438" data-name="Path 438" d="M1000.648,95.523a1.117,1.117,0,0,0-.788.128c-.218.106-.526.276-.593.525a.092.092,0,0,0,.111.112c.22-.066.385-.265.595-.365s.469-.158.694-.262A.076.076,0,0,0,1000.648,95.523Z" transform="translate(-17.922 -6.286)" fill="#8c745e"/>
      <path id="Path_439" data-name="Path 439" d="M1001.3,90.908a.033.033,0,0,0-.064.008,3.5,3.5,0,0,1-.14.96c0,.014.016.022.023.01A1.367,1.367,0,0,0,1001.3,90.908Z" transform="translate(-18.567 -4.666)" fill="#8c745e"/>
      <path id="Path_440" data-name="Path 440" d="M1002.24,125.564a26.826,26.826,0,0,1-6.4-.265,33.922,33.922,0,0,1-5.593-1.9c-.006,0-.008.006,0,.009a15.071,15.071,0,0,0,12.009,2.222A.033.033,0,0,0,1002.24,125.564Z" transform="translate(-14.75 -16.092)" fill="#8c745e"/>
      <path id="Path_441" data-name="Path 441" d="M1006.836,119.225a12.771,12.771,0,0,1-6.114.267c-1.87-.377-3.595-1.208-5.441-1.637a0,0,0,0,0,0,0c3.186,1.942,8.1,3.334,11.594,1.453A.048.048,0,0,0,1006.836,119.225Z" transform="translate(-16.522 -14.145)" fill="#8c745e"/>
      <path id="Path_442" data-name="Path 442" d="M1008.328,122.946a12.522,12.522,0,0,1-2.447.261,20.85,20.85,0,0,1-2.126-.259c-.032,0-.045.048-.017.061a6.24,6.24,0,0,0,4.619.043A.055.055,0,0,0,1008.328,122.946Z" transform="translate(-19.49 -15.934)" fill="#8c745e"/>
      <path id="Path_443" data-name="Path 443" d="M1000.363,135.924c-3.832,1.7-6.879-.944-10.634-1.065-.006,0-.007.008,0,.01,3.153.994,7.573,3.339,10.7,1.164A.063.063,0,0,0,1000.363,135.924Z" transform="translate(-14.569 -20.121)" fill="#8c745e"/>
      <path id="Path_444" data-name="Path 444" d="M1004.79,131.943a21.525,21.525,0,0,1-6.7-.189,0,0,0,0,0,0,.005,10.415,10.415,0,0,0,6.72.317C1004.876,132.054,1004.869,131.935,1004.79,131.943Z" transform="translate(-17.508 -19.029)" fill="#8c745e"/>
      <path id="Path_445" data-name="Path 445" d="M1007.727,114.557a11.936,11.936,0,0,1-9.108-.542s0,0,0,0a9.4,9.4,0,0,0,9.154.643C1007.831,114.631,1007.788,114.544,1007.727,114.557Z" transform="translate(-17.695 -12.795)" fill="#8c745e"/>
      <path id="Path_446" data-name="Path 446" d="M1007.281,110.41c-2.653.593-4.745-.863-7.312-.821a.035.035,0,0,0-.009.069c2.242.6,5.106,2.022,7.38.89C1007.419,110.508,1007.361,110.391,1007.281,110.41Z" transform="translate(-18.158 -11.239)" fill="#8c745e"/>
      <path id="Path_447" data-name="Path 447" d="M1006.794,99.426a11.248,11.248,0,0,1-3.018,1.332c-.992.227-1.95.062-2.926.209a.023.023,0,0,0-.005.042c1.791.9,4.7-.151,6.022-1.488A.06.06,0,0,0,1006.794,99.426Z" transform="translate(-18.474 -7.665)" fill="#8c745e"/>
      <path id="Path_448" data-name="Path 448" d="M1006.964,105.233c-1.027.1-2.037.279-3.072.3s-2.049-.13-3.076-.2c-.019,0-.02.025,0,.031a9.4,9.4,0,0,0,6.17.009C1007.051,105.345,1007.049,105.224,1006.964,105.233Z" transform="translate(-18.463 -9.709)" fill="#8c745e"/>
      <path id="Path_449" data-name="Path 449" d="M1009.041,102.346a6.328,6.328,0,0,1-2.452.728.068.068,0,0,0,0,.136,3.834,3.834,0,0,0,2.5-.777A.05.05,0,0,0,1009.041,102.346Z" transform="translate(-20.474 -8.692)" fill="#8c745e"/>
      <path id="Path_450" data-name="Path 450" d="M1007.06,91.225c-.413.322-.784.687-1.226.975a7.4,7.4,0,0,0-1.13.654.061.061,0,0,0,.042.1,2.444,2.444,0,0,0,1.366-.582,3.317,3.317,0,0,0,1.045-1.073A.063.063,0,0,0,1007.06,91.225Z" transform="translate(-19.828 -4.78)" fill="#8c745e"/>
      <path id="Path_451" data-name="Path 451" d="M1006.883,94.99a4.951,4.951,0,0,1-1.341.665.043.043,0,0,0,.011.084,1.812,1.812,0,0,0,1.4-.658C1006.991,95.034,1006.941,94.951,1006.883,94.99Z" transform="translate(-20.118 -6.106)" fill="#8c745e"/>
      <path id="Path_452" data-name="Path 452" d="M1006.736,86.558a8.181,8.181,0,0,1-1.188,1.128c-.033.025,0,.08.033.056a4.121,4.121,0,0,0,1.21-1.143A.035.035,0,0,0,1006.736,86.558Z" transform="translate(-20.126 -3.142)" fill="#8c745e"/>
      <path id="Path_453" data-name="Path 453" d="M984.346,97.492a6.66,6.66,0,0,1-1.422-1.754,7.024,7.024,0,0,1-.576-2.416c-.006-.046-.077-.066-.089-.012a4.26,4.26,0,0,0,2.01,4.28A.063.063,0,0,0,984.346,97.492Z" transform="translate(-11.921 -5.507)" fill="#8c745e"/>
      <path id="Path_454" data-name="Path 454" d="M984.616,95.112c-.144-.321-.261-.653-.374-.986a.033.033,0,0,0-.064.008,1.64,1.64,0,0,0,.363,1.036C984.577,95.216,984.636,95.157,984.616,95.112Z" transform="translate(-12.621 -5.797)" fill="#8c745e"/>
      <path id="Path_455" data-name="Path 455" d="M989.821,95.762a6.139,6.139,0,0,1-1.082-3.377c-.007-.063-.112-.093-.123-.017a4.646,4.646,0,0,0,.263,2.206c.165.464.367,1.136.912,1.238A.03.03,0,0,0,989.821,95.762Z" transform="translate(-14.166 -5.172)" fill="#8c745e"/>
      <path id="Path_456" data-name="Path 456" d="M978.921,99.112c-1.354-1.09-1.33-2.56-1.844-4.062a.048.048,0,0,0-.094.013,5.942,5.942,0,0,0,.863,3.288c.781,1.232,2.42,1.555,3.057,2.88.03.063.141.018.115-.049C980.607,100.161,979.746,99.776,978.921,99.112Z" transform="translate(-10.09 -6.118)" fill="#8c745e"/>
      <path id="Path_457" data-name="Path 457" d="M975.128,104.793a10.822,10.822,0,0,0-2.708-2.66,7.441,7.441,0,0,1-2.35-4.522c-.023-.1-.156-.066-.167.023-.448,3.594,3.125,5.045,5.154,7.215C975.092,104.886,975.152,104.837,975.128,104.793Z" transform="translate(-7.59 -7.008)" fill="#8c745e"/>
      <path id="Path_458" data-name="Path 458" d="M973.881,100.2a4.576,4.576,0,0,1-1.369-3.533.053.053,0,0,0-.1-.014,3.247,3.247,0,0,0,1.426,3.606C973.87,100.281,973.913,100.226,973.881,100.2Z" transform="translate(-8.436 -6.68)" fill="#8c745e"/>
      <path id="Path_459" data-name="Path 459" d="M966.26,111.156a10.5,10.5,0,0,0-3.561-2.989,4.929,4.929,0,0,1-2.42-2.538,11.482,11.482,0,0,0-.781-2.059.045.045,0,0,0-.082.035c.4,1.5.769,3.04,1.988,4.1a15.678,15.678,0,0,0,2.277,1.309,15.625,15.625,0,0,1,2.54,2.18C966.247,111.221,966.282,111.184,966.26,111.156Z" transform="translate(-3.918 -9.117)" fill="#8c745e"/>
      <path id="Path_460" data-name="Path 460" d="M970.5,107.735c-.968-.973-2.266-1.5-3.241-2.461-1.132-1.112-1.337-2.391-1.888-3.791a.106.106,0,0,0-.207.028,5.081,5.081,0,0,0,1.326,3.5c1.054,1.315,2.572,1.908,3.943,2.815C970.487,107.857,970.545,107.779,970.5,107.735Z" transform="translate(-5.931 -8.365)" fill="#8c745e"/>
      <path id="Path_461" data-name="Path 461" d="M964.933,105.394a7.693,7.693,0,0,1-1.56-2.424,22.848,22.848,0,0,1-.389-2.361c-.02-.079-.152-.108-.188-.025-.728,1.662.667,4.05,2.068,4.9C964.921,105.52,964.975,105.442,964.933,105.394Z" transform="translate(-5.036 -8.057)" fill="#8c745e"/>
      <path id="Path_462" data-name="Path 462" d="M958.311,117.882c-2.3-1.918-5.4-4.487-5.011-7.762.013-.1-.146-.137-.191-.052-1.582,2.947,3.166,6.53,5.148,7.885C958.3,117.982,958.351,117.916,958.311,117.882Z" transform="translate(-1.59 -11.391)" fill="#8c745e"/>
      <path id="Path_463" data-name="Path 463" d="M956.741,108.52c-.008-.066-.114-.1-.128-.017a3.6,3.6,0,0,0,1.7,3.345c1.677,1.312,3.671,1.9,4.568,4.011.014.032.062.008.055-.023C962.148,112.307,957.177,112.386,956.741,108.52Z" transform="translate(-2.918 -10.842)" fill="#8c745e"/>
      <path id="Path_464" data-name="Path 464" d="M963.537,119.44a7.269,7.269,0,0,0-2.065-1.244c-.06-.025-.093.069-.043.1a15.477,15.477,0,0,1,1.951,1.3,9.689,9.689,0,0,1,1.141,1.567c.016.02.046,0,.047-.019A2.561,2.561,0,0,0,963.537,119.44Z" transform="translate(-4.617 -14.263)" fill="#8c745e"/>
      <path id="Path_465" data-name="Path 465" d="M955.337,127.067A10.991,10.991,0,0,0,953.6,125.1a5.907,5.907,0,0,1-1.573-2.69.081.081,0,0,0-.158.021c-.052,1.992,2.082,3.47,3.347,4.723A.075.075,0,0,0,955.337,127.067Z" transform="translate(-1.266 -15.727)" fill="#8c745e"/>
      <path id="Path_466" data-name="Path 466" d="M988.909,142.351a22.043,22.043,0,0,1-7.2-.976c-1.507-.436-3.279-1.159-4.75-.292a.106.106,0,0,0,.081.193c4.04-.614,7.771,2.435,11.885,1.213A.071.071,0,0,0,988.909,142.351Z" transform="translate(-10.066 -22.165)" fill="#8c745e"/>
      <path id="Path_467" data-name="Path 467" d="M988.6,139.8c-1.688-.152-2.943-1.67-4.716-1.209-.058.015-.049.117.014.108,1.706-.22,2.978,1.365,4.7,1.221A.06.06,0,0,0,988.6,139.8Z" transform="translate(-12.503 -21.4)" fill="#8c745e"/>
      <path id="Path_468" data-name="Path 468" d="M991.268,133.349a23.492,23.492,0,0,0-8.748-1.208c-.061,0-.084.1-.016.113,1.533.287,3.109.335,4.653.566,1.367.2,2.714.566,4.086.711C991.354,133.543,991.361,133.382,991.268,133.349Z" transform="translate(-12.018 -19.151)" fill="#8c745e"/>
    </g>
  </g>
</svg>
