<svg id="Layer_1" data-name="Layer 1" xmlns="http://www.w3.org/2000/svg" viewBox="0 0 30 30"><defs><style>.cls-1{fill:#3f3126;}.cls-2{fill:none;stroke:#3f3127;stroke-miterlimit:10;stroke-width:0.5px;}</style></defs><title>icons</title><path class="cls-1" d="M9.61,16.57a.4.4,0,0,0,.57-.29c.06-.2.18-.71.24-.92a.57.57,0,0,0-.17-.64,3.36,3.36,0,0,1-.76-2.26A5.45,5.45,0,0,1,15.15,7c3.09,0,4.79,1.89,4.79,4.41,0,3.32-1.47,6.11-3.65,6.11a1.77,1.77,0,0,1-1.81-2.21,25.29,25.29,0,0,0,1-4.08,1.54,1.54,0,0,0-1.55-1.73c-1.23,0-2.22,1.27-2.22,3a4.43,4.43,0,0,0,.37,1.82l-1.48,6.26a12.89,12.89,0,0,0,0,4.37.15.15,0,0,0,.27.07,12.2,12.2,0,0,0,2.08-3.77c.14-.51.81-3.16.81-3.16a3.27,3.27,0,0,0,2.8,1.44c3.7,0,6.21-3.37,6.21-7.88C22.75,8.17,19.86,5,15.47,5,10,5,7.25,8.91,7.25,12.17,7.25,14.15,8,15.91,9.61,16.57Z"/><rect class="cls-2" x="0.8" y="0.8" width="28.4" height="28.4" rx="4.14"/></svg>