<svg xmlns="http://www.w3.org/2000/svg" xmlns:xlink="http://www.w3.org/1999/xlink" width="90" height="90" viewBox="0 0 90 90">
  <defs>
    <clipPath id="clip-Icons2">
      <rect width="90" height="90"/>
    </clipPath>
  </defs>
  <g id="Icons2" clip-path="url(#clip-Icons2)">
    <rect width="90" height="90" style="fill:transparent;"/>
    <g id="Group_189" data-name="Group 189" transform="translate(-1132.568 -67.671)">
      <g id="Group_188" data-name="Group 188" transform="translate(1150.568 87.537)">
        <g id="Group_187" data-name="Group 187">
          <g id="Group_182" data-name="Group 182" transform="translate(0 20.533)">
            <path id="Path_469" data-name="Path 469" d="M1180.007,142.649a.307.307,0,0,0-.592.163,18.4,18.4,0,0,1,.04,4.069c-.027.922-.342,2,.174,2.8a.015.015,0,0,0,.022,0c.688-.762.5-2.085.553-3.062A10.128,10.128,0,0,0,1180.007,142.649Z" transform="translate(-1157.978 -122.211)" fill="#8c745e"/>
            <g id="Group_181" data-name="Group 181">
              <path id="Path_470" data-name="Path 470" d="M1172.418,143.381a.185.185,0,0,0-.336.141c.222,1.108-9.9.644-10.808.569-3.54-.293-8.741.238-9.651-4.233a7.572,7.572,0,0,1,1.131-5.83c.8-1.393,1.178-2.967,2.059-4.322.867-1.331,1.54-2.718,2.337-4.088a18.781,18.781,0,0,0,1.944-3.311c.094-.278-.307-.42-.457-.192-1.209,1.844-2.411,3.558-3.532,5.466-.53.9-1.248,1.68-1.736,2.607s-.765,1.929-1.21,2.864c-1,2.1-1.735,3.46-1.567,5.883a5.821,5.821,0,0,0,1.644,3.98,6.42,6.42,0,0,0,4.192,1.636c2.557.246,5.135.508,7.7.618a28.754,28.754,0,0,0,7.314-.376C1172.234,144.611,1173.006,144.28,1172.418,143.381Z" transform="translate(-1150.568 -116.947)" fill="#8c745e"/>
              <path id="Path_471" data-name="Path 471" d="M1160.716,121.14c-.82-.522-1.628-1.04-2.416-1.61a.387.387,0,0,0-.393,0,.293.293,0,0,0-.178.232.386.386,0,0,0,.1.378,11.862,11.862,0,0,0,2.543,1.588A.341.341,0,0,0,1160.716,121.14Z" transform="translate(-1152.409 -116.297)" fill="#8c745e"/>
              <path id="Path_472" data-name="Path 472" d="M1167.557,115.226a46.582,46.582,0,0,1-6.429,1.938c-.941.251-2.81.356-3.093,1.449a.079.079,0,0,0,.074.1,4.741,4.741,0,0,0,1.965-.476c.933-.286,1.883-.517,2.828-.759a28.493,28.493,0,0,0,5.014-1.635C1168.337,115.645,1167.97,115.051,1167.557,115.226Z" transform="translate(-1152.49 -115.194)" fill="#8c745e"/>
              <path id="Path_473" data-name="Path 473" d="M1172.373,120.274a15.222,15.222,0,0,0-1.118-4.931.168.168,0,0,0-.31.084,21.4,21.4,0,0,0,.592,4.331c.3,1.88.464,3.752.6,5.65a.339.339,0,0,0,.677,0A30.676,30.676,0,0,0,1172.373,120.274Z" transform="translate(-1155.814 -115.211)" fill="#8c745e"/>
              <path id="Path_474" data-name="Path 474" d="M1172.241,128.38a3.24,3.24,0,0,0-1.28-1.188,2.393,2.393,0,0,0-1.63-.474.339.339,0,0,0-.149.561,5.335,5.335,0,0,0,1.36.63c.471.242.891.564,1.356.814A.252.252,0,0,0,1172.241,128.38Z" transform="translate(-1155.338 -118.153)" fill="#8c745e"/>
              <path id="Path_475" data-name="Path 475" d="M1167.507,127.175a.351.351,0,0,0-.605-.353,65.35,65.35,0,0,0-4.049,7.144,13.111,13.111,0,0,0-1.9,6.239c.088,3.218,2.933,6.4,6.336,5.782a.214.214,0,0,0,0-.41c-1.915-.418-3.624-.972-4.693-2.774a6.73,6.73,0,0,1-.166-5.752C1163.676,133.579,1165.914,130.483,1167.507,127.175Z" transform="translate(-1153.243 -118.146)" fill="#8c745e"/>
              <path id="Path_476" data-name="Path 476" d="M1175.068,142.236c-2.229-.009-4.457,0-6.685-.068a58.954,58.954,0,0,0-6.676-.27c-.338.029-.456.537-.085.626a31.526,31.526,0,0,0,6.409.445c2.345.068,4.692.093,7.037,0A.368.368,0,0,0,1175.068,142.236Z" transform="translate(-1153.356 -122.06)" fill="#8c745e"/>
            </g>
          </g>
          <g id="Group_184" data-name="Group 184" transform="translate(24.622 25.136)">
            <path id="Path_477" data-name="Path 477" d="M1203.027,124.819a.308.308,0,0,0,.438.431,18.37,18.37,0,0,1,3.5-2.069c.812-.437,1.9-.7,2.341-1.553a.014.014,0,0,0-.009-.021c-1-.214-2.055.61-2.927,1.052A10.141,10.141,0,0,0,1203.027,124.819Z" transform="translate(-1188.682 -121.44)" fill="#8c745e"/>
            <g id="Group_183" data-name="Group 183">
              <path id="Path_478" data-name="Path 478" d="M1206.085,121.93a.185.185,0,0,0,.29.221c.849-.746,5.505,8.248,5.9,9.076,1.517,3.212,4.576,7.451,1.16,10.475a7.571,7.571,0,0,1-5.615,1.936c-1.607,0-3.159.464-4.772.378-1.586-.085-3.124.026-4.708.02a18.7,18.7,0,0,0-3.84-.027c-.288.058-.21.476.062.491,2.2.124,4.287.309,6.5.325,1.047.007,2.079.241,3.125.2s2.053-.3,3.085-.384c2.314-.184,3.864-.228,5.879-1.584a5.817,5.817,0,0,0,2.624-3.414,6.414,6.414,0,0,0-.678-4.448c-1.065-2.338-2.128-4.7-3.316-6.978a28.756,28.756,0,0,0-3.982-6.146C1207.243,121.475,1206.569,120.971,1206.085,121.93Z" transform="translate(-1186.459 -121.394)" fill="#8c745e"/>
              <path id="Path_479" data-name="Path 479" d="M1194.039,152.342c-.041.971-.086,1.93-.186,2.9a.388.388,0,0,0,.2.34.294.294,0,0,0,.29.039.386.386,0,0,0,.278-.275,11.851,11.851,0,0,0,.1-3A.342.342,0,0,0,1194.039,152.342Z" transform="translate(-1186.339 -129.281)" fill="#8c745e"/>
              <path id="Path_480" data-name="Path 480" d="M1183.887,147.572a46.738,46.738,0,0,1,4.893,4.6c.688.689,1.713,2.255,2.8,1.954a.079.079,0,0,0,.048-.114c-.265-.64-.9-1-1.394-1.464-.715-.665-1.389-1.373-2.072-2.069a28.536,28.536,0,0,0-3.923-3.526C1183.86,146.688,1183.528,147.3,1183.887,147.572Z" transform="translate(-1183.733 -127.961)" fill="#8c745e"/>
              <path id="Path_481" data-name="Path 481" d="M1187.507,141.643a15.226,15.226,0,0,0-3.711,3.434c-.091.147.088.3.228.226a21.377,21.377,0,0,0,3.455-2.679c1.478-1.2,3.018-2.277,4.594-3.342a.339.339,0,0,0-.339-.587A30.778,30.778,0,0,0,1187.507,141.643Z" transform="translate(-1183.743 -125.838)" fill="#8c745e"/>
              <path id="Path_482" data-name="Path 482" d="M1194.461,138.759a3.23,3.23,0,0,0-.39,1.7,2.4,2.4,0,0,0,.4,1.65.34.34,0,0,0,.561-.152,5.348,5.348,0,0,0-.135-1.493c-.025-.529.043-1.053.026-1.581A.252.252,0,0,0,1194.461,138.759Z" transform="translate(-1186.396 -125.835)" fill="#8c745e"/>
              <path id="Path_483" data-name="Path 483" d="M1194.857,139.467a.35.35,0,0,0,0,.7,65.327,65.327,0,0,0,8.212-.065,13.128,13.128,0,0,0,6.352-1.477c2.743-1.686,4.072-5.739,1.839-8.378a.214.214,0,0,0-.355.2c.6,1.867.97,3.625-.056,5.451a6.728,6.728,0,0,1-4.9,3.02C1202.319,139.582,1198.519,139.192,1194.857,139.467Z" transform="translate(-1186.511 -123.658)" fill="#8c745e"/>
              <path id="Path_484" data-name="Path 484" d="M1202.945,126.3c1.107,1.935,2.229,3.86,3.284,5.824a58.893,58.893,0,0,0,3.1,5.916c.194.278.693.127.585-.239a31.644,31.644,0,0,0-2.819-5.773c-1.114-2.064-2.266-4.109-3.518-6.095A.368.368,0,0,0,1202.945,126.3Z" transform="translate(-1188.668 -122.519)" fill="#8c745e"/>
            </g>
          </g>
          <g id="Group_186" data-name="Group 186" transform="translate(13.902)">
            <path id="Path_485" data-name="Path 485" d="M1175.31,113.935a.307.307,0,0,0,.155-.595,18.374,18.374,0,0,1-3.544-2c-.785-.486-1.563-1.3-2.515-1.252a.015.015,0,0,0-.014.018c.316.976,1.555,1.476,2.375,2.01A10.135,10.135,0,0,0,1175.31,113.935Z" transform="translate(-1169.318 -93.345)" fill="#8c745e"/>
            <g id="Group_185" data-name="Group 185">
              <path id="Path_486" data-name="Path 486" d="M1170.183,104.974a.185.185,0,0,0,.045-.362c-1.071-.362,4.391-8.892,4.912-9.644,2.023-2.92,4.164-7.689,8.492-6.242a7.573,7.573,0,0,1,4.483,3.895c.806,1.391,1.981,2.5,2.713,3.944.719,1.416,1.584,2.692,2.372,4.067a18.782,18.782,0,0,0,1.9,3.339c.195.22.518-.056.4-.3-.993-1.969-1.875-3.867-2.968-5.792-.517-.91-.831-1.921-1.391-2.806s-1.287-1.627-1.875-2.48c-1.316-1.912-2.129-3.233-4.311-4.3a5.821,5.821,0,0,0-4.268-.566,6.418,6.418,0,0,0-3.513,2.812c-1.492,2.091-3.007,4.193-4.385,6.36a28.76,28.76,0,0,0-3.332,6.522C1169.21,104.2,1169.11,105.034,1170.183,104.974Z" transform="translate(-1169.292 -87.537)" fill="#8c745e"/>
              <path id="Path_487" data-name="Path 487" d="M1204.627,109.066c.861-.45,1.714-.89,2.6-1.288a.385.385,0,0,0,.2-.339.293.293,0,0,0-.111-.271.384.384,0,0,0-.377-.1,11.855,11.855,0,0,0-2.647,1.408A.342.342,0,0,0,1204.627,109.066Z" transform="translate(-1178.267 -92.563)" fill="#8c745e"/>
              <path id="Path_488" data-name="Path 488" d="M1205.609,117.435a46.733,46.733,0,0,1,1.537-6.537c.253-.941,1.1-2.611.292-3.4a.079.079,0,0,0-.122.016,4.742,4.742,0,0,0-.57,1.939c-.219.951-.495,1.889-.756,2.829a28.533,28.533,0,0,0-1.091,5.16C1204.857,117.9,1205.555,117.88,1205.609,117.435Z" transform="translate(-1178.463 -92.672)" fill="#8c745e"/>
              <path id="Path_489" data-name="Path 489" d="M1197.308,118.268a15.221,15.221,0,0,0,4.829,1.5.168.168,0,0,0,.082-.311,21.4,21.4,0,0,0-4.048-1.652c-1.778-.679-3.481-1.475-5.191-2.307a.339.339,0,0,0-.339.587A30.738,30.738,0,0,0,1197.308,118.268Z" transform="translate(-1175.264 -94.728)" fill="#8c745e"/>
              <path id="Path_490" data-name="Path 490" d="M1192.643,115.436a3.241,3.241,0,0,0,1.669-.514c.451-.264,1.093-.642,1.226-1.175a.339.339,0,0,0-.412-.409c-.467.131-.818.6-1.225.863-.445.287-.934.49-1.382.768A.252.252,0,0,0,1192.643,115.436Z" transform="translate(-1175.244 -94.18)" fill="#8c745e"/>
              <path id="Path_491" data-name="Path 491" d="M1190.285,109.413a.35.35,0,0,0,.608-.347,65.17,65.17,0,0,0-4.163-7.08,13.123,13.123,0,0,0-4.454-4.762c-2.832-1.533-7.006-.658-8.176,2.6a.214.214,0,0,0,.355.2c1.319-1.449,2.654-2.653,4.748-2.677a6.729,6.729,0,0,1,5.065,2.732C1186.654,102.893,1188.216,106.38,1190.285,109.413Z" transform="translate(-1170.528 -89.844)" fill="#8c745e"/>
              <path id="Path_492" data-name="Path 492" d="M1177.647,110.952c1.122-1.926,2.228-3.86,3.4-5.755a58.932,58.932,0,0,0,3.572-5.647c.144-.307-.237-.663-.5-.386a31.484,31.484,0,0,0-3.59,5.328c-1.231,2-2.427,4.017-3.52,6.093A.368.368,0,0,0,1177.647,110.952Z" transform="translate(-1171.268 -90.506)" fill="#8c745e"/>
            </g>
          </g>
        </g>
        <path id="Path_493" data-name="Path 493" d="M1162.862,149.86c-.421-.912-1.607-1.3-2.273-2.044a6.071,6.071,0,0,1-1.344-4.651c0-.026-.039-.031-.045-.006a6.2,6.2,0,0,0,.693,4.679c.543.941,1.674,2.489,2.928,2.123A.07.07,0,0,0,1162.862,149.86Z" transform="translate(-1152.744 -101.86)" fill="#8c745e"/>
        <path id="Path_494" data-name="Path 494" d="M1160.444,152.04a.019.019,0,0,0,0,.037A.019.019,0,0,0,1160.444,152.04Z" transform="translate(-1153.107 -104.152)" fill="#8c745e"/>
        <path id="Path_495" data-name="Path 495" d="M1159.546,149.957a14.122,14.122,0,0,1-1.844-2.121,5.359,5.359,0,0,1-.713-3.666.014.014,0,0,0-.027-.007c-.661,2.136-.124,5.418,2.514,5.914A.072.072,0,0,0,1159.546,149.957Z" transform="translate(-1152.149 -102.12)" fill="#8c745e"/>
        <path id="Path_496" data-name="Path 496" d="M1156.2,149.168a8.122,8.122,0,0,1-1.587-6.078c.007-.056-.083-.078-.107-.029a5.247,5.247,0,0,0,1.509,6.292C1156.125,149.431,1156.277,149.276,1156.2,149.168Z" transform="translate(-1151.461 -101.832)" fill="#8c745e"/>
        <path id="Path_497" data-name="Path 497" d="M1152.68,145.769a16.178,16.178,0,0,1-.206-3.127.058.058,0,0,0-.113-.016,6.7,6.7,0,0,0,1.1,5.86.067.067,0,0,0,.111-.065C1153.285,147.525,1152.88,146.7,1152.68,145.769Z" transform="translate(-1150.965 -101.717)" fill="#8c745e"/>
        <path id="Path_498" data-name="Path 498" d="M1166.435,125.275a33.751,33.751,0,0,0-5.36,9.495c-.017.043.05.068.073.03a91.129,91.129,0,0,0,5.351-9.476C1166.516,125.286,1166.468,125.238,1166.435,125.275Z" transform="translate(-1153.274 -97.254)" fill="#8c745e"/>
        <path id="Path_499" data-name="Path 499" d="M1178.444,97.1a8.561,8.561,0,0,0-4.192,5.791.06.06,0,0,0,.11.047,25.638,25.638,0,0,1,1.848-3.008c.744-.934,1.655-1.668,2.46-2.538A.187.187,0,0,0,1178.444,97.1Z" transform="translate(-1156.668 -89.996)" fill="#8c745e"/>
        <path id="Path_500" data-name="Path 500" d="M1180.652,97.223a6.147,6.147,0,0,0-1.875,1.914,11.807,11.807,0,0,0-1.476,2.441c-.025.059.065.1.106.062.645-.683,1.21-1.442,1.845-2.136a10.363,10.363,0,0,0,1.7-1.982A.22.22,0,0,0,1180.652,97.223Z" transform="translate(-1157.453 -90.025)" fill="#8c745e"/>
        <path id="Path_501" data-name="Path 501" d="M1182.813,97.755c-.6-.011-1.143.853-1.476,1.271a5.827,5.827,0,0,0-1.027,1.927c-.014.045.05.085.082.048.491-.584.953-1.192,1.436-1.782.327-.4,1.016-.865,1.049-1.4A.065.065,0,0,0,1182.813,97.755Z" transform="translate(-1158.228 -90.169)" fill="#8c745e"/>
        <path id="Path_502" data-name="Path 502" d="M1184.389,98.377a2.983,2.983,0,0,0-1.353,1.026,3.079,3.079,0,0,0-.724,1.518c-.013.074.073.141.134.078.373-.391.724-.8,1.088-1.2a14.1,14.1,0,0,0,1.1-1.093C1184.757,98.537,1184.562,98.336,1184.389,98.377Z" transform="translate(-1158.744 -90.328)" fill="#8c745e"/>
        <path id="Path_503" data-name="Path 503" d="M1185.438,90.242a2.9,2.9,0,0,0-3.244,1.837.044.044,0,0,0,.072.042c2.714-2.894,5.732-.164,7.757,2.011a.026.026,0,0,0,.041-.031C1188.994,92.441,1187.568,90.5,1185.438,90.242Z" transform="translate(-1158.714 -88.227)" fill="#8c745e"/>
        <path id="Path_504" data-name="Path 504" d="M1198.739,102.777a14.3,14.3,0,0,0-2.285-3.281.081.081,0,0,0-.126.1c.571,1.181,1.431,2.234,2.092,3.371s1.22,2.348,1.9,3.477a.064.064,0,0,0,.116-.049A17.638,17.638,0,0,0,1198.739,102.777Z" transform="translate(-1162.353 -90.611)" fill="#8c745e"/>
        <path id="Path_505" data-name="Path 505" d="M1208.29,149.775c-2.037.039-4.062.284-6.1.383s-4.09-.03-6.121.091c-.049,0-.066.079-.013.091a28.927,28.927,0,0,0,12.251-.418A.075.075,0,0,0,1208.29,149.775Z" transform="translate(-1162.277 -103.568)" fill="#8c745e"/>
        <path id="Path_506" data-name="Path 506" d="M1212.905,140.134a6.277,6.277,0,0,0-1.378-2.022.087.087,0,0,0-.144.084,6.266,6.266,0,0,0,1.07,2.2A.262.262,0,0,0,1212.905,140.134Z" transform="translate(-1166.232 -100.558)" fill="#8c745e"/>
        <path id="Path_507" data-name="Path 507" d="M1213.64,138.789a3.605,3.605,0,0,0-.766-.932.107.107,0,0,0-.177.1,3.584,3.584,0,0,0,.449,1.117,2.316,2.316,0,0,0,.678.883.176.176,0,0,0,.264-.151A2.313,2.313,0,0,0,1213.64,138.789Z" transform="translate(-1166.571 -100.491)" fill="#8c745e"/>
        <path id="Path_508" data-name="Path 508" d="M1214.885,138.238a2.862,2.862,0,0,0-.557-.815.087.087,0,0,0-.144.084,2.92,2.92,0,0,0,.351.935,1.6,1.6,0,0,0,.523.714.079.079,0,0,0,.117-.068A1.668,1.668,0,0,0,1214.885,138.238Z" transform="translate(-1166.954 -100.38)" fill="#8c745e"/>
        <path id="Path_509" data-name="Path 509" d="M1216.1,137.437a1.3,1.3,0,0,0-.39-.538.073.073,0,0,0-.12.07,2.963,2.963,0,0,0,.21.574,4.238,4.238,0,0,0,.258.6.119.119,0,0,0,.219-.059A1.534,1.534,0,0,0,1216.1,137.437Z" transform="translate(-1167.317 -100.247)" fill="#8c745e"/>
        <path id="Path_510" data-name="Path 510" d="M1217.079,137a1,1,0,0,0-.256-.318.04.04,0,0,0-.063.048,1.019,1.019,0,0,0,.22.346A.064.064,0,0,0,1217.079,137Z" transform="translate(-1167.616 -100.193)" fill="#8c745e"/>
        <path id="Path_511" data-name="Path 511" d="M1161.588,143.9a.019.019,0,0,0,0,.037A.019.019,0,0,0,1161.588,143.9Z" transform="translate(-1153.402 -102.056)" fill="#8c745e"/>
        <path id="Path_512" data-name="Path 512" d="M1163.89,143.843a6.937,6.937,0,0,0-1.443-.28c-.348-.02-.768-.111-.994.195a.116.116,0,0,0,0,.119c.2.319.655.254.994.258a6.905,6.905,0,0,0,1.443-.175A.061.061,0,0,0,1163.89,143.843Z" transform="translate(-1153.367 -101.961)" fill="#8c745e"/>
        <path id="Path_513" data-name="Path 513" d="M1163.245,145.264a2.935,2.935,0,0,0-1.336-.1c-.232.034-.177.353,0,.417a1.523,1.523,0,0,0,1.36-.141A.1.1,0,0,0,1163.245,145.264Z" transform="translate(-1153.449 -102.372)" fill="#8c745e"/>
        <path id="Path_514" data-name="Path 514" d="M1163.4,146.978a3.075,3.075,0,0,0-1.13-.123.19.19,0,0,0-.051.37,1.743,1.743,0,0,0,1.2-.085A.09.09,0,0,0,1163.4,146.978Z" transform="translate(-1153.534 -102.814)" fill="#8c745e"/>
        <path id="Path_515" data-name="Path 515" d="M1163.578,148.587a4.207,4.207,0,0,0-.989-.059.064.064,0,0,0-.032.118,1.1,1.1,0,0,0,1.041.094A.085.085,0,0,0,1163.578,148.587Z" transform="translate(-1153.648 -103.246)" fill="#8c745e"/>
        <path id="Path_516" data-name="Path 516" d="M1178.1,146.738a9.886,9.886,0,0,0-.263-2.457c-.022-.076-.149-.087-.166,0a10.474,10.474,0,0,0-.022,2.645,6.446,6.446,0,0,0,.319,2.256c.007.016.029.009.033,0A6.924,6.924,0,0,0,1178.1,146.738Z" transform="translate(-1157.525 -102.137)" fill="#8c745e"/>
        <path id="Path_517" data-name="Path 517" d="M1174.089,150.131a25.081,25.081,0,0,0-3.184.226c-.918.067-1.846.06-2.757.191-.071.01-.042.1.016.113a14.524,14.524,0,0,0,5.942-.406A.063.063,0,0,0,1174.089,150.131Z" transform="translate(-1155.085 -103.658)" fill="#8c745e"/>
        <path id="Path_518" data-name="Path 518" d="M1213.673,128.019a9.69,9.69,0,0,0-2.025-2.688.055.055,0,0,0-.085.066c.5.988,1.148,1.9,1.687,2.869a11.138,11.138,0,0,0,1.448,2.573.006.006,0,0,0,.01,0A6,6,0,0,0,1213.673,128.019Z" transform="translate(-1166.277 -97.268)" fill="#8c745e"/>
        <path id="Path_519" data-name="Path 519" d="M1206.944,128c-.331-.515-.982-1.754-1.687-1.662a.021.021,0,0,0-.019.014c-.143.677.834,1.427,1.188,1.95a27.056,27.056,0,0,1,1.627,2.751c.03.057.112.016.1-.042A8.894,8.894,0,0,0,1206.944,128Z" transform="translate(-1164.646 -97.53)" fill="#8c745e"/>
        <path id="Path_520" data-name="Path 520" d="M1194.272,106.6c-.021-.02-.065,0-.053.03a46.39,46.39,0,0,0,2.366,4.366.063.063,0,0,0,.115-.048A10.437,10.437,0,0,0,1194.272,106.6Z" transform="translate(-1161.811 -92.446)" fill="#8c745e"/>
        <path id="Path_521" data-name="Path 521" d="M1203.325,145.1a27.736,27.736,0,0,0-7.093-.362c-.109.012-.156.183-.028.209a27.7,27.7,0,0,0,7.1.305C1203.385,145.248,1203.417,145.117,1203.325,145.1Z" transform="translate(-1162.303 -102.246)" fill="#8c745e"/>
        <path id="Path_522" data-name="Path 522" d="M1191.643,143.139c-.636-.036-1.333.563-1.846.9a10.039,10.039,0,0,0-1.819,1.46.069.069,0,0,0,.083.108c.691-.421,1.336-.905,2.013-1.347.5-.322,1.27-.6,1.571-1.118Z" transform="translate(-1160.199 -101.859)" fill="#8c745e"/>
      </g>
      <path id="Path_523" data-name="Path 523" d="M1219.229,144.138c-.01-.036-.07-.041-.078,0a4.237,4.237,0,0,1-1.948,2.951,20.385,20.385,0,0,0-2.616,1.339c-.053.047-.006.122.053.128a5.436,5.436,0,0,0,3.5-1.474A3.057,3.057,0,0,0,1219.229,144.138Z" transform="translate(-16.484 -14.572)" fill="#8c745e"/>
      <path id="Path_524" data-name="Path 524" d="M1218.471,144.911a4.33,4.33,0,0,1-2.147,1.9c-.063.036-.039.151.039.145a2.732,2.732,0,0,0,2.2-2.009A.049.049,0,0,0,1218.471,144.911Z" transform="translate(-16.928 -14.772)" fill="#8c745e"/>
    </g>
  </g>
</svg>
