<svg id="Layer_1" data-name="Layer 1" xmlns="http://www.w3.org/2000/svg" viewBox="0 0 30 30"><defs><style>.cls-1{fill:#3f3126;}.cls-2{fill:none;stroke:#3f3127;stroke-miterlimit:10;stroke-width:0.5px;}</style></defs><title>icons</title><path class="cls-1" d="M6,20.64a10.47,10.47,0,0,0,16.12-9.3A7.43,7.43,0,0,0,24,9.43a7.47,7.47,0,0,1-2.12.58,3.69,3.69,0,0,0,1.62-2,7.53,7.53,0,0,1-2.34.9,3.68,3.68,0,0,0-6.27,3.36,10.48,10.48,0,0,1-7.6-3.85A3.7,3.7,0,0,0,8.41,13.3a3.67,3.67,0,0,1-1.67-.47,3.69,3.69,0,0,0,3,3.66A3.6,3.6,0,0,1,8,16.56a3.7,3.7,0,0,0,3.45,2.56A7.43,7.43,0,0,1,6,20.64Z"/><rect class="cls-2" x="0.8" y="0.8" width="28.4" height="28.4" rx="4.14"/></svg>