<svg xmlns="http://www.w3.org/2000/svg" width="23.903" height="23.893" viewBox="0 0 23.903 23.893"><defs><style>.a{fill:#3a2f2d;}</style></defs><path class="a" d="M31.825,5.3A11.849,11.849,0,0,0,13.182,19.6L11.5,25.729l6.279-1.65a11.815,11.815,0,0,0,5.663,1.441h0A11.959,11.959,0,0,0,35.4,13.675,11.882,11.882,0,0,0,31.825,5.3ZM23.446,23.528a9.819,9.819,0,0,1-5.015-1.373l-.357-.213-3.725.976.991-3.635-.234-.375a9.866,9.866,0,1,1,18.3-5.238A9.957,9.957,0,0,1,23.446,23.528Zm5.4-7.374c-.292-.151-1.751-.865-2.021-.962s-.468-.151-.666.151-.764.958-.94,1.164-.346.223-.641.076a8.035,8.035,0,0,1-4.028-3.523c-.3-.522.3-.486.868-1.618a.552.552,0,0,0-.025-.519c-.076-.151-.666-1.607-.911-2.2s-.486-.5-.666-.508-.367-.011-.566-.011a1.09,1.09,0,0,0-.789.367,3.314,3.314,0,0,0-1.034,2.471,5.8,5.8,0,0,0,1.207,3.062,13.173,13.173,0,0,0,5.058,4.471c1.877.811,2.615.879,3.552.742a3.045,3.045,0,0,0,2-1.409,2.473,2.473,0,0,0,.169-1.4C29.336,16.374,29.141,16.3,28.846,16.154Z" transform="translate(-11.5 -1.836)"/></svg>