<svg id="Layer_1" data-name="Layer 1" xmlns="http://www.w3.org/2000/svg" viewBox="0 0 30 30"><defs><style>.cls-1{fill:#3f3126;}.cls-2{fill:none;stroke:#3f3127;stroke-miterlimit:10;stroke-width:0.5px;}</style></defs><title>icons</title><path class="cls-1" d="M24.38,10.26a2.47,2.47,0,0,0-1.73-1.75C21.12,8.1,15,8.1,15,8.1s-6.12,0-7.65.41a2.47,2.47,0,0,0-1.73,1.75A25.69,25.69,0,0,0,5.21,15a25.69,25.69,0,0,0,.41,4.74,2.47,2.47,0,0,0,1.73,1.75c1.53.41,7.65.41,7.65.41s6.12,0,7.65-.41a2.47,2.47,0,0,0,1.73-1.75A25.69,25.69,0,0,0,24.79,15,25.69,25.69,0,0,0,24.38,10.26ZM13,17.91V12.09L18.12,15Z"/><rect class="cls-2" x="0.8" y="0.8" width="28.4" height="28.4" rx="4.14"/></svg>