<svg xmlns="http://www.w3.org/2000/svg" width="19.48" height="19.48" viewBox="0 0 19.48 19.48"><defs><style>.a{fill:#fbbb00;}.b{fill:#518ef8;}.c{fill:#28b446;}.d{fill:#f14336;}</style></defs><path class="a" d="M4.317,144.78l-.678,2.531-2.478.052a9.757,9.757,0,0,1-.072-9.1h0l2.206.4.967,2.193a5.813,5.813,0,0,0,.055,3.914Z" transform="translate(0 -133.007)"/><path class="b" d="M270.984,208.176a9.737,9.737,0,0,1-3.472,9.415h0l-2.779-.142-.393-2.455a5.8,5.8,0,0,0,2.5-2.964h-5.208v-3.853h9.356Z" transform="translate(-251.674 -200.255)"/><path class="c" d="M45.186,314.972h0a9.743,9.743,0,0,1-14.677-2.98l3.156-2.584a5.793,5.793,0,0,0,8.348,2.966Z" transform="translate(-29.348 -297.637)"/><path class="d" d="M43.492,2.242,40.337,4.826A5.792,5.792,0,0,0,31.8,7.859l-3.173-2.6h0A9.742,9.742,0,0,1,43.492,2.242Z" transform="translate(-27.535)"/></svg>