<?xml version="1.0" encoding="utf-8"?>
<!-- Generator: Adobe Illustrator 23.0.2, SVG Export Plug-In . SVG Version: 6.00 Build 0)  -->
<svg version="1.1" id="Layer_1" xmlns="http://www.w3.org/2000/svg" xmlns:xlink="http://www.w3.org/1999/xlink" x="0px" y="0px"
	 viewBox="0 0 50 50" style="enable-background:new 0 0 50 50;" xml:space="preserve">
<style type="text/css">
	.st0{fill:#AF8166;}
</style>
<g>
	<g>
		<path class="st0" d="M25,43.58C14.76,43.58,6.42,35.24,6.42,25S14.76,6.42,25,6.42S43.58,14.76,43.58,25S35.24,43.58,25,43.58z
			 M25,7.72C15.47,7.72,7.72,15.47,7.72,25S15.47,42.28,25,42.28c9.53,0,17.28-7.75,17.28-17.28S34.53,7.72,25,7.72z"/>
	</g>
	<g>
		<path class="st0" d="M15.34,20.83c0-0.87,0.71-1.58,1.58-1.58c0.87,0,1.58,0.71,1.58,1.58s-0.71,1.58-1.58,1.58
			C16.04,22.41,15.34,21.7,15.34,20.83z"/>
	</g>
	<g>
		<path class="st0" d="M31.5,20.83c0-0.87,0.71-1.58,1.58-1.58c0.87,0,1.58,0.71,1.58,1.58s-0.71,1.58-1.58,1.58
			C32.21,22.41,31.5,21.7,31.5,20.83z"/>
	</g>
	<g>
		<path class="st0" d="M15.34,34.86c-1.99,0-3.62-1.62-3.62-3.62c0-0.81,0.24-1.29,0.66-2.07l2.39-4.48
			c0.11-0.21,0.33-0.34,0.57-0.34l0,0c0.24,0,0.46,0.13,0.57,0.34l2.39,4.48c0,0,0,0,0,0.01l0.03,0.05c0.42,0.8,0.63,1.2,0.63,2
			C18.95,33.23,17.33,34.86,15.34,34.86z M15.34,26.38l-1.82,3.41c-0.38,0.7-0.5,0.97-0.5,1.45c0,1.28,1.04,2.32,2.32,2.32
			s2.32-1.04,2.32-2.32c0-0.47-0.08-0.63-0.48-1.4l-0.03-0.05L15.34,26.38z"/>
	</g>
	<g>
		<path class="st0" d="M30.65,29.01c-0.13,0-0.27-0.04-0.39-0.13c-1.52-1.13-3.33-1.72-5.23-1.72c-1.69,0-3.32,0.48-4.74,1.38
			c-0.3,0.19-0.7,0.1-0.9-0.2c-0.19-0.3-0.1-0.7,0.2-0.9c1.62-1.04,3.5-1.58,5.44-1.58c2.18,0,4.26,0.68,6,1.98
			c0.29,0.21,0.35,0.62,0.14,0.91C31.04,28.92,30.85,29.01,30.65,29.01z"/>
	</g>
</g>
</svg>
