<?xml version="1.0" encoding="utf-8"?>
<!-- Generator: Adobe Illustrator 23.0.2, SVG Export Plug-In . SVG Version: 6.00 Build 0)  -->
<svg version="1.1" id="Layer_1" xmlns="http://www.w3.org/2000/svg" xmlns:xlink="http://www.w3.org/1999/xlink" x="0px" y="0px"
	 viewBox="0 0 50 50" style="enable-background:new 0 0 50 50;" xml:space="preserve">
<style type="text/css">
	.st0{fill:#AF8166;}
</style>
<g>
	<g>
		<path class="st0" d="M25,43.58C14.76,43.58,6.42,35.24,6.42,25S14.76,6.42,25,6.42S43.58,14.76,43.58,25S35.24,43.58,25,43.58z
			 M25,7.72C15.47,7.72,7.72,15.47,7.72,25S15.47,42.28,25,42.28S42.28,34.53,42.28,25S34.53,7.72,25,7.72z"/>
	</g>
	<g>
		<path class="st0" d="M15.33,20.83c0-0.87,0.71-1.58,1.58-1.58c0.87,0,1.58,0.71,1.58,1.58c0,0.87-0.71,1.58-1.58,1.58
			C16.04,22.41,15.33,21.7,15.33,20.83z"/>
	</g>
	<g>
		<path class="st0" d="M31.5,20.83c0-0.87,0.71-1.58,1.58-1.58c0.87,0,1.58,0.71,1.58,1.58c0,0.87-0.71,1.58-1.58,1.58
			C32.21,22.41,31.5,21.7,31.5,20.83z"/>
	</g>
	<g>
		<path class="st0" d="M16.31,32.99c-0.09,0-0.17-0.02-0.26-0.05c-0.33-0.14-0.48-0.52-0.34-0.85c1.6-3.7,5.25-6.09,9.28-6.09
			c4.03,0,7.67,2.39,9.28,6.09c0.14,0.33-0.01,0.71-0.34,0.85c-0.33,0.14-0.71-0.01-0.85-0.34c-1.4-3.23-4.57-5.31-8.09-5.31
			c-3.52,0-6.69,2.08-8.09,5.31C16.8,32.84,16.57,32.99,16.31,32.99z"/>
	</g>
</g>
</svg>
