<?xml version="1.0" encoding="utf-8"?>
<!-- Generator: Adobe Illustrator 23.0.2, SVG Export Plug-In . SVG Version: 6.00 Build 0)  -->
<svg version="1.1" id="Layer_1" xmlns="http://www.w3.org/2000/svg" xmlns:xlink="http://www.w3.org/1999/xlink" x="0px" y="0px"
	 viewBox="0 0 50 50" style="enable-background:new 0 0 50 50;" xml:space="preserve">
<style type="text/css">
	.st0{fill:#AF8166;}
</style>
<g>
	<g>
		<path class="st0" d="M15.33,20.83c0-0.87,0.71-1.58,1.58-1.58c0.87,0,1.58,0.71,1.58,1.58c0,0.87-0.71,1.58-1.58,1.58
			C16.04,22.41,15.33,21.7,15.33,20.83z"/>
	</g>
	<g>
		<path class="st0" d="M31.5,20.83c0-0.87,0.71-1.58,1.58-1.58c0.87,0,1.58,0.71,1.58,1.58c0,0.87-0.71,1.58-1.58,1.58
			C32.21,22.41,31.5,21.7,31.5,20.83z"/>
	</g>
	<g>
		<path class="st0" d="M25,43.58C14.76,43.58,6.42,35.24,6.42,25C6.42,14.76,14.76,6.42,25,6.42S43.58,14.76,43.58,25
			C43.58,35.24,35.24,43.58,25,43.58z M25,7.72C15.47,7.72,7.72,15.47,7.72,25c0,9.53,7.75,17.28,17.28,17.28S42.28,34.53,42.28,25
			C42.28,15.47,34.53,7.72,25,7.72z"/>
	</g>
	<g>
		<path class="st0" d="M34.26,30.54H15.74c-0.36,0-0.65-0.29-0.65-0.65s0.29-0.65,0.65-0.65h18.51c0.36,0,0.65,0.29,0.65,0.65
			S34.61,30.54,34.26,30.54z"/>
	</g>
</g>
</svg>
