<?xml version="1.0" encoding="utf-8"?>
<!-- Generator: Adobe Illustrator 23.0.2, SVG Export Plug-In . SVG Version: 6.00 Build 0)  -->
<svg version="1.1" id="Layer_1" xmlns="http://www.w3.org/2000/svg" xmlns:xlink="http://www.w3.org/1999/xlink" x="0px" y="0px"
	 viewBox="0 0 50 50" style="enable-background:new 0 0 50 50;" xml:space="preserve">
<style type="text/css">
	.st0{fill:#AF8166;}
</style>
<g>
	<g>
		<path class="st0" d="M25,43.58C14.76,43.58,6.42,35.24,6.42,25S14.76,6.42,25,6.42S43.58,14.76,43.58,25S35.24,43.58,25,43.58z
			 M25,7.72C15.47,7.72,7.72,15.47,7.72,25S15.47,42.28,25,42.28S42.28,34.53,42.28,25S34.53,7.72,25,7.72z"/>
	</g>
	<g>
		<path class="st0" d="M15.33,20.83c0-0.87,0.71-1.58,1.58-1.58c0.87,0,1.58,0.71,1.58,1.58c0,0.87-0.71,1.58-1.58,1.58
			C16.04,22.41,15.33,21.7,15.33,20.83z"/>
	</g>
	<g>
		<path class="st0" d="M31.5,20.83c0-0.87,0.71-1.58,1.58-1.58s1.58,0.71,1.58,1.58c0,0.87-0.71,1.58-1.58,1.58
			S31.5,21.7,31.5,20.83z"/>
	</g>
	<g>
		<path class="st0" d="M25,35.74c-4.73,0-8.86-3.03-10.26-7.55c-0.11-0.34,0.08-0.71,0.43-0.81c0.34-0.11,0.71,0.08,0.81,0.43
			c1.23,3.97,4.86,6.64,9.02,6.64c4.16,0,7.79-2.67,9.02-6.64c0.11-0.34,0.47-0.53,0.81-0.43c0.34,0.11,0.53,0.47,0.43,0.81
			C33.86,32.71,29.73,35.74,25,35.74z"/>
	</g>
	<g>
		<path class="st0" d="M14.29,29.09c-0.24,0-0.47-0.14-0.59-0.37c-0.15-0.32-0.02-0.71,0.31-0.87l1.84-0.88
			c0.32-0.16,0.71-0.02,0.87,0.31c0.15,0.32,0.02,0.71-0.31,0.87l-1.84,0.88C14.48,29.07,14.38,29.09,14.29,29.09z"/>
	</g>
	<g>
		<path class="st0" d="M35.71,29.09c-0.09,0-0.19-0.02-0.28-0.06l-1.84-0.88c-0.32-0.15-0.46-0.54-0.31-0.87
			c0.15-0.32,0.54-0.46,0.87-0.31l1.84,0.88c0.32,0.15,0.46,0.54,0.31,0.87C36.19,28.95,35.95,29.09,35.71,29.09z"/>
	</g>
</g>
</svg>
