<svg xmlns="http://www.w3.org/2000/svg" width="119.586" height="133.412" viewBox="0 0 119.586 133.412"><defs><style>.a{fill:#9d8b7a;}.b{fill:none;stroke:#9d8b7a;}</style></defs><g transform="translate(0 0.444)"><g transform="matrix(0.391, -0.921, 0.921, 0.391, -217.383, 177.113)"><path class="a" d="M155.969,198.63c.109.052,10.715,5.161,13.075,11.309.877,2.271,3.787,9.521,5.62,10.7a1.448,1.448,0,0,1,.043.982c-.254.839-1.213,1.628-2.867,2.3l-.864.351.707.609c.206.172,5.011,4.2,11.025,1.7a2.872,2.872,0,0,1,2.418.273c.647.618.487,1.937.237,2.933l-1.38,6.742c-.333.722-3.007,6.692-1.779,10.4.02.091.817,3.206-1.766,3.812l.2,1.118a34.946,34.946,0,0,0,9.192-2.484,12.836,12.836,0,0,0,3.724-2.443c2.164-.719,5.906-1.535,7.135-.768a.7.7,0,0,1,.352.536l.015.11.056.1c.251.438.848,1.835.353,2.513l.211.177c-.011.019-.021.041-.033.06a.285.285,0,0,0,.091.392.281.281,0,0,0,.268.015.267.267,0,0,0,.114-.1l.221.186.036-.047c1.282-1.658,3.884-4.665,5.514-5.41a1.652,1.652,0,0,1,.456-.149c.829.33,6.023,2.533,7.222,6.027l.55,1.615.53-1.623c.658-2.032,2.032-6.691,1.32-8.367a1.48,1.48,0,0,1,.425-.641.817.817,0,0,1,.266.247l1.271,1.588-.26-2.016c-.315-2.423-.541-6.678.189-7.779a5.756,5.756,0,0,1,1.949-1.436,6.34,6.34,0,0,1,4.593-.209l.353-1.081c-.039-.014-3.972-1.422-4.882-3.875a3.143,3.143,0,0,1,.344-2.779l.336-.581L217,221.563l-1.015-2.218-.307-.044c-1.747-.245-4.654-1.109-5.038-2.386a2.037,2.037,0,0,1,.718-1.773c3.851.8,13.457,3.014,14.755,5.435,0,0,1.231.62,1.7-1.961,0,0-3.688-1.858-4.379-1.3,0,0-8.492-1.977-11.3-3.284l-.072-.141a1.017,1.017,0,0,1-.041-.7,1.279,1.279,0,0,1,.721-.66c.99-.452,3.3-.784,8.683.209l1.078.2-.458-.995a1.26,1.26,0,0,1,.735-1.738,4.665,4.665,0,0,1,1.5-.347l.356-.034.126-.336c0-.008.943-2.106,6.36-4.151l3.23-1.217-3.452.117a2.5,2.5,0,0,1-2.006-.893c-.56-.89-.275-2.478.824-4.588.9-3.043,3.631-12.756,2.662-14.322l-.414-.668-.507.6a15.264,15.264,0,0,1-4.66,3.562,6.305,6.305,0,0,1-6.534-.326c-6.164-5.245-8.152-6.324-8.907-6.467-3.022-3.2-9.681-10.191-10.551-10.512l-.705-.26-.058.75c-.323,4.016-.954,8.538-1.45,9.155-.626.916-5.536,8.266-4.9,11.57a10.876,10.876,0,0,1-8.831-1.5l-.124-.08-4.94-.322,1.2,1.093c.479.439,1.158,1.289,1.091,1.724-.016.085.021.544-2.061.512l-.113.011c-.469.09-11.508,2.2-14.681,3.652a3.168,3.168,0,0,0-.8.488c-1.484-.2-6.714-.836-8.508.213l-.929.545Zm8.633-.045.513.078.008-.036a12.689,12.689,0,0,1,10.616,7.348c-3.422-1.1-6.167-2.184-7.092-3.034-.163-.094-1.539-.863-3.343-1.774-.234-.408-1.659-2.735-3.577-2.8a.285.285,0,0,0-.021.57,3.852,3.852,0,0,1,2.563,1.719,43.284,43.284,0,0,0-5.836-2.443A34.9,34.9,0,0,1,164.6,198.586Zm18.616-5.663a1.89,1.89,0,0,0-.157-1,30.077,30.077,0,0,1,13.132,19.509c-.874-.2-3.1-.725-5.945-1.435-.461-1.3-3.191-8.81-5.187-9.55a.283.283,0,0,0-.367.167.286.286,0,0,0,.168.367c1.44.536,3.749,6.176,4.722,8.849-2.445-.613-5.263-1.348-8.045-2.127a.3.3,0,0,0-.081-.023c-1.74-.488-3.456-.992-5.05-1.5,0-.026.013-.052,0-.078a13.309,13.309,0,0,0-10.97-8.015c.072-.038.153-.083.271-.136,2.939-1.345,13.5-3.391,14.364-3.558a5.3,5.3,0,0,0,2.2-.336A1.485,1.485,0,0,0,183.218,192.923Zm15.148-10.191c.088,4,6.279,6.585,6.865,6.819.105.991.189,1.88.247,2.614-.2.665.177,2.965.795,5.849-1.634-.928-7.01-4.263-8.988-9a.285.285,0,0,0-.372-.154.292.292,0,0,0-.155.373c2.331,5.588,8.952,9.149,9.676,9.524.9,4.074,2.2,9.076,3.081,12.349a.35.35,0,0,0,.021.078c.242.9.449,1.665.607,2.237-4.622-.994-11.484-2.327-13.372-1.973a30.653,30.653,0,0,0-13.655-20.155l1.255.081a11.665,11.665,0,0,0,10.26,1.36l.59-.238-.306-.559C194.134,190.5,196.3,186.093,198.366,182.732Zm2.73-10.48c.229.213.5.476.816.781,1.565,3.257,2.681,10.7,3.25,15.872-1.412-.627-6.847-3.287-6.172-6.893a.272.272,0,0,0-.045-.207c.194-.3.388-.591.568-.861C200.307,179.968,200.87,174.729,201.1,172.252Zm1.816,1.768c1.324,1.324,3,3.047,4.619,4.736.807,2.278-1.3,5.626-2.182,6.883A60.7,60.7,0,0,0,202.912,174.02Zm24.37,14.944a15.475,15.475,0,0,0,4.084-2.852c-1.457,5.381-8.324,11.481-12.017,14.446.315-2.749,1.086-6.846,2.018-7.424a.281.281,0,0,0,.092-.39.276.276,0,0,0-.391-.093c-1.549.959-2.26,7.566-2.333,8.318,0,.023.016.042.018.065-1.052.83-1.734,1.318-1.765,1.339-4.66,3.183-6.493,6.244-7.155,7.7-1.221-4.6-2.536-9.856-3.277-13.455.706-.516,6.547-4.939,7.014-10.432a.285.285,0,1,0-.568-.049c-.406,4.8-5.339,8.905-6.569,9.861a11.207,11.207,0,0,1-.421-3.647.321.321,0,0,0,.04-.167c-.051-.656-.246-2.913-.6-5.729.3-.378,3.046-3.979,2.825-6.92.869.908,1.7,1.786,2.433,2.564l.362.383.258-.207c.986.344,4.881,3.366,8.254,6.231A7.494,7.494,0,0,0,227.282,188.964Zm.665,14.992a2.781,2.781,0,0,0,1.059.958c-4.461.525-11.9-.045-14.095-.233a27.248,27.248,0,0,1,2.4-1.841c.222-.157,2.28-1.633,4.8-3.831.03,0,.058.02.088.01a27.982,27.982,0,0,0,3.814-1.343,7.331,7.331,0,0,0,1.461-.839.285.285,0,0,0,.042-.4.277.277,0,0,0-.4-.044,15.362,15.362,0,0,1-4.069,1.784c3.023-2.738,6.436-6.347,8.113-9.917-.495,2.681-1.465,6.562-2.491,10.075C227.4,200.761,227.142,202.689,227.946,203.956Zm-4.778,4.937c0-.013,0-.022,0-.031-.678-1.972-8.663-1.133-11.472-.775a19.885,19.885,0,0,1,2.62-2.887,100.521,100.521,0,0,0,13.411.4,9.448,9.448,0,0,0-3.857,3.152A6.11,6.11,0,0,0,223.168,208.894Zm-12.217,3.93a1.965,1.965,0,0,0-.1.787c-.028-.018-.048-.049-.082-.058-.222-.807-.454-1.664-.692-2.553a10.1,10.1,0,0,1,1.178-2.28c4.516-.615,10.948-.915,11.372.326,0,0,.008,0,.008.01-.106.038-.227.07-.322.114a2.328,2.328,0,0,0-1.5,2.3C214.893,210.47,211.6,210.96,210.951,212.823ZM220.277,224c-5.8.979-11.584-4.372-12.134-4.9a7.031,7.031,0,0,1,.168-.808A6.409,6.409,0,0,1,209.446,216c.06-.063.105-.1.16-.163a2.278,2.278,0,0,0-.053,1.406c.638,2.13,4.457,2.937,5.66,3.141l.954,2.084Zm.522,3.392a6.1,6.1,0,0,0,1.891,2.473c-9.849-2.222-14.306-6.809-14.355-6.859-.007-.007-.017,0-.022-.01a11.644,11.644,0,0,1-.254-3.19c1.49,1.347,7.1,5.957,12.793,4.649A4.061,4.061,0,0,0,220.8,227.388Zm-4.092,14.992.2.234c.308.361.066,2.3-.521,4.673-.8-5.258-4.007-14.67-4.469-16.009a28.281,28.281,0,0,1-3.377-7.318c1.593,1.364,6.339,4.85,14.741,6.6a7.052,7.052,0,0,0-1.953.555,6.815,6.815,0,0,0-2.4,1.809c-.957,1.447-.707,5.475-.513,7.483a1.14,1.14,0,0,0-.5.105,2.655,2.655,0,0,0-1.118,1.569Zm-9.3,1.268a15.09,15.09,0,0,0-3.967,3.4c2.341-7.374-1-17.1-1.413-18.231.659-1.012,1.071-1.674,1.166-1.82a50.69,50.69,0,0,1,4.549-8.8c-.911,3.456.317,7.938,3.664,13.324,1.9,5.532,4.365,13.754,4.589,17.246-.006.017-.009.039-.016.062-2.14-3.431-7.116-5.314-7.352-5.4l-.2-.039A2.584,2.584,0,0,0,207.409,243.648Zm-13.258,1.9a16.5,16.5,0,0,0,2.5-8.847c0-.013-.016-.024-.019-.036,2.051-2.816,3.821-5.436,5.008-7.247.738,2.233,3.525,11.564.993,18.216a6.208,6.208,0,0,0-.48-1.205,1.829,1.829,0,0,0-.861-1.242C199.649,244.169,196.01,245.013,194.151,245.546Zm-4.8,2.785a27.609,27.609,0,0,1-4.747,1.6c3.57-2.462,7.888-7.675,11.469-12.518a16.848,16.848,0,0,1-2.765,8.392l-.253.079-.128.047-.1.1A11.481,11.481,0,0,1,189.353,248.331Zm-4.311-11.389.045-.129.128-.628a22.959,22.959,0,0,1,17.906-10.462c-.143.329-.284.661-.433,1.009-.064.105-4.335,6.9-9.3,13.251-1.144.3-8.326,2.222-9.07,3.769a.285.285,0,0,0,.514.246c.444-.93,4.824-2.4,7.969-3.267-3.4,4.27-7.056,8.193-9.888,9.561a5.09,5.09,0,0,0,.38-3.7C182.146,243.121,185.014,237,185.042,236.942Zm-11.856-12.391c.026-.012.044-.027.067-.04a56.173,56.173,0,0,0,13.313-4.121c8.2-3.757,12.11-8.192,12.292-8.406,2.585.294,7.158,1.125,11.506,2.062a.235.235,0,0,0,.142.089l-.739.69a.1.1,0,0,1,.021,0,5.676,5.676,0,0,0-.7.706c-1.252,1.35-3.279,4.132-5.711,9.615a23.361,23.361,0,0,0-17.876,9.658l.976-4.778c.466-1.857.277-3.215-.565-4.014-1.275-1.207-3.491-.543-3.586-.513A9.891,9.891,0,0,1,173.186,224.551Zm2.621-2.643a2.542,2.542,0,0,0-.245-2.005l-.1-.155-.175-.066c-.889-.331-3.282-5.3-5.057-9.834a11.333,11.333,0,0,0,9.165-.375,12.946,12.946,0,0,0,2.083-1.185c2.773.778,5.579,1.507,8.013,2.114-1.311,1.459-6.546,6.774-12.3,5.449a.288.288,0,0,0-.341.215.285.285,0,0,0,.214.341,10.224,10.224,0,0,0,6.606-.845,20.17,20.17,0,0,0,6.446-5c3.479.863,6.047,1.452,6.364,1.523.021.006.041-.006.062-.006s.023.014.039.012a.469.469,0,0,0,.077-.022l.007,0h0a.25.25,0,0,0,.128-.121l0,0a.163.163,0,0,1,.023-.011,3.909,3.909,0,0,1,1.336-.015c-1.5,1.577-9.013,8.763-23.654,11.779A3.692,3.692,0,0,0,175.807,221.908Zm-16.689-22.883a78.868,78.868,0,0,1,9.2,4.374c1.412,1.3,6.772,3.079,12.442,4.688-1.484.954-6.015,3.345-10.865.972C167.927,204.661,162.446,200.952,159.118,199.026Z"/><path class="a" d="M202.468,250.523l.168.128-.009.012Z" transform="translate(-0.302 -0.509)"/><path class="a" d="M202.637,250.652Z" transform="translate(-0.303 -0.51)"/></g><path class="b" d="M6486.548,2931.014s7.357-15.062,27.494-25.541" transform="translate(-6426.521 -2905.474)"/><path class="b" d="M6540.14,2977.891s5.049-9.545,19.8-14.658" transform="translate(-6440.521 -2912.653)"/><path class="b" d="M6534.99,2922.577s6.915-8.677,16.848-10.412" transform="translate(-6760.78 -2054.485) rotate(-7)"/><path class="b" d="M6511,2943.761s10.687-11.855,19.7-16.576" transform="translate(-6427.521 -2918.448)"/><path class="b" d="M6547.317,2924.308a48.988,48.988,0,0,1,8.595-4.493" transform="translate(-6440.521 -2918.448)"/></g></svg>