<svg id="Layer_1" data-name="Layer 1" xmlns="http://www.w3.org/2000/svg" viewBox="0 0 30 30"><defs><style>.cls-1{fill:#866852;}.cls-2{fill:#fff;}</style></defs><title>icons</title><circle class="cls-1" cx="15" cy="15" r="14.4"/><path class="cls-2" d="M12.3,13.59h-.68v-.17a5.45,5.45,0,0,1-.76.21,3.77,3.77,0,0,1-.87.11,2.58,2.58,0,0,1-.8-.11,1,1,0,0,1-.56-.43,1.61,1.61,0,0,1-.11-.42,2.89,2.89,0,0,1,0-.44,1.63,1.63,0,0,1,.13-.55,4,4,0,0,1,.68-.45,8.37,8.37,0,0,1,.93-.44,11.55,11.55,0,0,1,1.38-.47,1.45,1.45,0,0,0-.22-.78,1.49,1.49,0,0,0-.23-.28,1.34,1.34,0,0,0-.37-.22A1.73,1.73,0,0,0,10.29,9a2.56,2.56,0,0,0-.68,0L9.52,9a.39.39,0,0,1-.15,0s0-.07.09-.1l.22-.06a4.26,4.26,0,0,1,1.23,0,4.24,4.24,0,0,1,.46.1,1.72,1.72,0,0,1,.43.21,1.3,1.3,0,0,1,.32.34,1.19,1.19,0,0,1,.18.49Zm-2.93-.53a.8.8,0,0,0,.57.25,3.25,3.25,0,0,0,.76,0,5.81,5.81,0,0,0,.92-.22V10.88c-.39.16-.74.31-1,.45s-.55.27-.75.38a4.87,4.87,0,0,0-.6.38.75.75,0,0,0-.08.37,1.31,1.31,0,0,0,.06.31A1,1,0,0,0,9.37,13.06Z"/><path class="cls-2" d="M17.72,13.59l-2-2.31h-.33a.58.58,0,0,1-.19,0v2.31h-.67V5.74h.11a.62.62,0,0,0,.18,0,.6.6,0,0,0,.21-.08.4.4,0,0,0,.17-.17v5.22h.44a1.41,1.41,0,0,0,.45-.11,7.6,7.6,0,0,0,1-.49,4.43,4.43,0,0,0,.61-.44,1.56,1.56,0,0,0,.42-.44c.06,0,.09,0,.09.05a.38.38,0,0,1,0,.1,1.3,1.3,0,0,1-.19.45,2.8,2.8,0,0,1-.25.36,2.33,2.33,0,0,1-.32.31c-.15.11-.3.22-.46.32a2.84,2.84,0,0,1-.58.28l2.09,2.53Z"/><path class="cls-2" d="M21.45,6.53a2.43,2.43,0,0,1,.05.31,1.34,1.34,0,0,1,0,.21.46.46,0,0,1,0,.15,1.18,1.18,0,0,1-.36.07.47.47,0,0,1-.19,0,.32.32,0,0,1-.12-.11,1.4,1.4,0,0,1-.06-.24.7.7,0,0,1,0-.16.39.39,0,0,1,.06-.13A.2.2,0,0,1,21,6.5a.82.82,0,0,1,.22,0ZM20.8,9.07A1.55,1.55,0,0,0,21.15,9a.56.56,0,0,0,.31-.24v4.83H20.8Z"/><path class="cls-2" d="M9.21,17.34c0,.12,0,.22,0,.31a1.34,1.34,0,0,1,0,.21.54.54,0,0,1,0,.15,1.59,1.59,0,0,1-.36.07.37.37,0,0,1-.2,0,.23.23,0,0,1-.11-.11,1.31,1.31,0,0,1-.06-.23.37.37,0,0,1,0-.16.46.46,0,0,1,.05-.14.32.32,0,0,1,.17-.1.81.81,0,0,1,.22,0A1.57,1.57,0,0,1,9.21,17.34Zm-.66,2.54a1.75,1.75,0,0,0,.36-.07.56.56,0,0,0,.31-.24V24.4H8.55Z"/><path class="cls-2" d="M14.7,24.4l-2-2.31H12.4l-.19,0V24.4h-.66V16.55h.1l.19,0a1,1,0,0,0,.2-.08.37.37,0,0,0,.17-.18v5.23a3.39,3.39,0,0,0,.45,0,1.46,1.46,0,0,0,.45-.1,8.09,8.09,0,0,0,1-.49,5.72,5.72,0,0,0,.62-.44,2.13,2.13,0,0,0,.42-.44c.06,0,.09,0,.09,0s0,.07,0,.1a1.35,1.35,0,0,1-.19.46,4.28,4.28,0,0,1-.26.36,2.33,2.33,0,0,1-.32.31,5.33,5.33,0,0,1-.46.32,2.85,2.85,0,0,1-.58.28l2.09,2.53Z"/><path class="cls-2" d="M21.27,19.94a10,10,0,0,1,.24,1.74,9.59,9.59,0,0,1,0,1.35,5.16,5.16,0,0,1-.21,1.19,8.78,8.78,0,0,1-1.2.26,5.23,5.23,0,0,1-.92.06,3.38,3.38,0,0,1-.7-.08A2.16,2.16,0,0,1,18,24.3a1.17,1.17,0,0,1-.63-.65,3.82,3.82,0,0,1-.21-1.18,6.74,6.74,0,0,1,0-1,5.64,5.64,0,0,1,.23-1,1,1,0,0,1,.32-.43,1.34,1.34,0,0,1,.51-.24,2.44,2.44,0,0,1,.63-.1h.68A10.34,10.34,0,0,1,21.27,19.94Zm-.45,3.84a3.72,3.72,0,0,0,.13-.73c0-.26,0-.59,0-1a12.51,12.51,0,0,0-.15-1.51,11.22,11.22,0,0,0-1.3-.27l-.51,0a2.36,2.36,0,0,0-.47,0,1.06,1.06,0,0,0-.38.12.49.49,0,0,0-.24.23,7.34,7.34,0,0,0-.15,1,7.83,7.83,0,0,0,0,1,3.28,3.28,0,0,0,.23,1,.83.83,0,0,0,.49.32,3.09,3.09,0,0,0,.85.09A6,6,0,0,0,20.82,23.78Z"/></svg>