<?xml version="1.0" encoding="utf-8"?>
<!-- Generator: Adobe Illustrator 23.0.2, SVG Export Plug-In . SVG Version: 6.00 Build 0)  -->
<svg version="1.1" id="Layer_1" xmlns="http://www.w3.org/2000/svg" xmlns:xlink="http://www.w3.org/1999/xlink" x="0px" y="0px"
	 viewBox="0 0 20 20" style="enable-background:new 0 0 20 20;" xml:space="preserve">
<style type="text/css">
	.st0{fill:#AF8166;}
</style>
<path class="st0" d="M10,0C4.5,0,0,4.5,0,10s4.5,10,10,10s10-4.5,10-10S15.5,0,10,0z M13.9,7.5c0.1-0.1,0.2,0,0.3,0.1
	C14.4,7.8,14.8,8,15.1,8c0.4,0,0.7-0.2,0.9-0.5c0.1-0.1,0.2-0.1,0.3-0.1c0.1,0.1,0.1,0.2,0.1,0.3c-0.3,0.5-0.7,0.7-1.3,0.7
	c-0.5,0-0.9-0.2-1.2-0.6C13.8,7.7,13.8,7.5,13.9,7.5z M4.9,7.4c0.1-0.1,0.2,0,0.3,0.1C5.4,7.8,5.7,8,6.1,8c0.3,0,0.7-0.2,0.8-0.4
	C7,7.4,7.1,7.4,7.2,7.5c0.1,0.1,0.1,0.2,0.1,0.3C7,8.2,6.6,8.4,6.1,8.4c-0.5,0-1-0.3-1.3-0.7C4.7,7.6,4.8,7.5,4.9,7.4z M16.8,12
	c0,0.1-0.1,0.1-0.2,0.1c0,0-0.1,0-0.1,0L16.1,12c-0.8,2.3-3,3.9-5.5,3.9S5.9,14.3,5.1,12l-0.4,0.2c0,0-0.1,0-0.1,0
	c-0.1,0-0.2,0-0.2-0.1c-0.1-0.1,0-0.2,0.1-0.3l1-0.5c0.1-0.1,0.3,0,0.3,0.1c0.1,0.1,0,0.2-0.1,0.3l-0.3,0.1c0.7,2.2,2.8,3.6,5.1,3.6
	s4.4-1.5,5.1-3.6l-0.3-0.1c-0.1-0.1-0.2-0.2-0.1-0.3c0.1-0.1,0.2-0.2,0.3-0.1l1,0.5C16.8,11.8,16.8,11.9,16.8,12z"/>
</svg>
