<?xml version="1.0" encoding="utf-8"?>
<!-- Generator: Adobe Illustrator 23.0.2, SVG Export Plug-In . SVG Version: 6.00 Build 0)  -->
<svg version="1.1" id="Layer_1" xmlns="http://www.w3.org/2000/svg" xmlns:xlink="http://www.w3.org/1999/xlink" x="0px" y="0px"
	 viewBox="0 0 20 20" style="enable-background:new 0 0 20 20;" xml:space="preserve">
<style type="text/css">
	.st0{fill:#AF8166;}
</style>
<g>
	<path class="st0" d="M5.7,12.6l-1.1-2.1l-1.1,2.1c-0.2,0.4-0.3,0.6-0.3,0.9c0,0.8,0.6,1.4,1.4,1.4c0.8,0,1.4-0.6,1.4-1.4
		C6,13.2,6,13.1,5.7,12.6L5.7,12.6z"/>
	<path class="st0" d="M10,0C4.5,0,0,4.5,0,10c0,5.5,4.5,10,10,10c5.5,0,10-4.5,10-10C20,4.5,15.5,0,10,0z M5.5,6.8
		c0.5,0,0.9,0.4,0.9,0.9S6,8.6,5.5,8.6S4.6,8.2,4.6,7.7S5,6.8,5.5,6.8z M4.6,15.4c-1.1,0-1.9-0.9-1.9-1.9c0-0.4,0.1-0.7,0.4-1.1
		l1.6-2.9l1.6,3c0.2,0.4,0.3,0.6,0.3,1.1C6.5,14.5,5.7,15.4,4.6,15.4z M13.4,12.1c-0.1,0.1-0.2,0.1-0.3,0.1c-0.1,0-0.1,0-0.2-0.1
		c-0.9-0.6-1.9-1-2.9-1c-0.9,0-1.9,0.3-2.7,0.8C7.2,12.1,7,12,6.9,11.9c-0.1-0.2-0.1-0.4,0.1-0.5c0.9-0.6,1.9-0.9,3-0.9
		c1.2,0,2.4,0.4,3.3,1.1C13.5,11.7,13.5,11.9,13.4,12.1z M14.5,8.6c-0.5,0-0.9-0.4-0.9-0.9s0.4-0.9,0.9-0.9c0.5,0,0.9,0.4,0.9,0.9
		S15,8.6,14.5,8.6z"/>
</g>
</svg>
