<?xml version="1.0" encoding="utf-8"?>
<!-- Generator: Adobe Illustrator 23.0.2, SVG Export Plug-In . SVG Version: 6.00 Build 0)  -->
<svg version="1.1" id="Layer_1" xmlns="http://www.w3.org/2000/svg" xmlns:xlink="http://www.w3.org/1999/xlink" x="0px" y="0px"
	 viewBox="0 0 20 20" style="enable-background:new 0 0 20 20;" xml:space="preserve">
<style type="text/css">
	.st0{fill:#AF8166;}
</style>
<path class="st0" d="M10,0C4.5,0,0,4.5,0,10s4.5,10,10,10s10-4.5,10-10S15.5,0,10,0z M5.3,7.7c0-0.5,0.4-0.9,0.9-0.9S7,7.2,7,7.7
	S6.6,8.6,6.1,8.6S5.3,8.2,5.3,7.7z M15.6,14.3c-0.1,0.1-0.3,0-0.3-0.1c-0.8-1.8-2.6-3-4.6-3s-3.8,1.2-4.6,3c0,0.1-0.1,0.2-0.2,0.2
	c0,0-0.1,0-0.1,0c-0.1-0.1-0.2-0.2-0.1-0.3c0.9-2,2.9-3.3,5.1-3.3s4.2,1.3,5.1,3.3C15.8,14.1,15.7,14.3,15.6,14.3z M15.2,8.6
	c-0.5,0-0.9-0.4-0.9-0.9s0.4-0.9,0.9-0.9c0.5,0,0.9,0.4,0.9,0.9S15.6,8.6,15.2,8.6z"/>
</svg>
