<?xml version="1.0" encoding="utf-8"?>
<!-- Generator: Adobe Illustrator 23.0.2, SVG Export Plug-In . SVG Version: 6.00 Build 0)  -->
<svg version="1.1" id="Layer_1" xmlns="http://www.w3.org/2000/svg" xmlns:xlink="http://www.w3.org/1999/xlink" x="0px" y="0px"
	 viewBox="0 0 20 20" style="enable-background:new 0 0 20 20;" xml:space="preserve">
<style type="text/css">
	.st0{fill:#AF8166;}
</style>
<path class="st0" d="M10,0C4.5,0,0,4.5,0,10s4.5,10,10,10s10-4.5,10-10S15.5,0,10,0z M15.2,6.8c0.5,0,0.9,0.4,0.9,0.9
	s-0.4,0.9-0.9,0.9c-0.5,0-0.9-0.4-0.9-0.9S14.7,6.8,15.2,6.8z M6.1,6.8C6.6,6.8,7,7.2,7,7.7S6.6,8.6,6.1,8.6S5.3,8.2,5.3,7.7
	S5.7,6.8,6.1,6.8z M16.9,12c0,0.1-0.1,0.1-0.2,0.1c0,0-0.1,0-0.1,0L16.2,12c-0.8,2.3-3,3.9-5.5,3.9c-2.5,0-4.7-1.6-5.5-3.9l-0.3,0.2
	c0,0-0.1,0-0.1,0c-0.1,0-0.2-0.1-0.2-0.1c-0.1-0.1,0-0.3,0.1-0.3l1-0.5c0.1-0.1,0.3,0,0.3,0.1c0.1,0.1,0,0.3-0.1,0.3l-0.2,0.1
	c0.8,2.2,2.8,3.6,5.1,3.6c2.3,0,4.3-1.4,5.1-3.6l-0.2-0.1c-0.1-0.1-0.2-0.2-0.1-0.3c0.1-0.1,0.2-0.2,0.3-0.1l1,0.5
	C16.9,11.7,16.9,11.9,16.9,12z"/>
</svg>
