<?xml version="1.0" encoding="utf-8"?>
<!-- Generator: Adobe Illustrator 23.0.2, SVG Export Plug-In . SVG Version: 6.00 Build 0)  -->
<svg version="1.1" id="Layer_1" xmlns="http://www.w3.org/2000/svg" xmlns:xlink="http://www.w3.org/1999/xlink" x="0px" y="0px"
	 viewBox="0 0 20 20" style="enable-background:new 0 0 20 20;" xml:space="preserve">
<style type="text/css">
	.st0{fill:#AF8166;}
</style>
<g>
	<path class="st0" d="M10.7,15.4c2.2,0,4.2-1.4,5-3.4h-10C6.4,14,8.4,15.4,10.7,15.4z"/>
	<path class="st0" d="M10,0C4.5,0,0,4.5,0,10s4.5,10,10,10s10-4.5,10-10S15.5,0,10,0z M15.2,6.8c0.5,0,0.9,0.4,0.9,0.9
		s-0.4,0.9-0.9,0.9c-0.5,0-0.9-0.4-0.9-0.9S14.7,6.8,15.2,6.8z M6.1,6.8C6.6,6.8,7,7.2,7,7.7S6.6,8.6,6.1,8.6S5.3,8.2,5.3,7.7
		S5.7,6.8,6.1,6.8z M16.3,11.7c-0.8,2.5-3,4.1-5.6,4.1c-2.6,0-4.9-1.7-5.6-4.1c0-0.1,0-0.2,0-0.2c0-0.1,0.1-0.1,0.2-0.1H16
		c0.1,0,0.2,0,0.2,0.1C16.3,11.6,16.3,11.7,16.3,11.7z"/>
</g>
</svg>
